{
.appVersion = "3434";
.formatVersion = 3;
DisplayStrings = (
"
Johanes Gutenbergs
ALFIE BOB CHART DAZED ECHO FIX GOLF HOPE INDIA JOKER KICK LIMA MICK NOVEMBER: OSCILLATE PAPER QUEBEC ROMANIA SIERRA TAMARINA UNITED VITALITY WHISKY X-RATED YOUTH ZANZIBAR! SINCE 1927 WEVE SEEN 328 PRESTIGE PICTURES 65 NON. Alpha Babs Charlie Dazed Echo Foxtrot Golf Hotel India Jojo Kick Lima Mickey November Oscillator Pipa Quebec Roma Sierra Tango United Vivacious Whiskey X-ray Yarrow Zulu

nnnvooooo

Metrics & Kerning
Metrics
Lowercase 02M

glyphs = (
{
glyphname = A;
kernLeft = A;
kernRight = A;
lastChange = "2025-10-27 04:19:54 +0000";
layers = (
{
anchors = (
{
name = bottom;
pos = (362,0);
},
{
name = ogonek;
pos = (547,0);
},
{
name = top;
pos = (357,700);
},
{
name = top_ring;
pos = (357,619);
}
);
background = {
shapes = (
{
closed = 0;
nodes = (
(402,445,ls),
(419,488,o),
(431,537,o),
(437,581,c),
(416,581,l),
(422,537,o),
(435,489,o),
(452,445,cs)
);
},
{
closed = 1;
nodes = (
(255,656,l),
(49,166,l),
(206,166,l),
(300,445,ls),
(307,465,o),
(317,499,o),
(322,529,c),
(330,529,l),
(335,499,o),
(346,465,o),
(353,445,cs),
(447,166,l),
(607,166,l),
(400,656,l)
);
}
);
};
hints = (
{
horizontal = 1;
origin = (0,17);
target = up;
type = BottomGhost;
},
{
horizontal = 1;
origin = (1,3);
target = (1,2);
type = Stem;
},
{
horizontal = 1;
origin = (0,16);
target = down;
type = TopGhost;
},
{
horizontal = 1;
origin = (0,16);
target = (0,7);
type = Stem;
},
{
origin = (0,17);
target = (0,14);
type = Stem;
}
);
layerId = m006;
shapes = (
{
closed = 1;
nodes = (
(168,0,l),
(226,166,l),
(241,207,l),
(321,427,ls),
(338,473,o),
(347,509,o),
(352,529,c),
(360,529,l),
(365,509,o),
(376,473,o),
(393,427,cs),
(473,207,l),
(488,166,l),
(547,0,l),
(703,0,l),
(418,700,l),
(297,700,l),
(11,0,l)
);
},
{
closed = 1;
nodes = (
(540,119,l),
(540,254,l),
(161,254,l),
(161,119,l)
);
}
);
width = 714;
},
{
anchors = (
{
name = bottom;
pos = (353,0);
},
{
name = ogonek;
pos = (592,0);
},
{
name = top;
pos = (347,700);
},
{
name = top_ring;
pos = (347,619);
}
);
background = {
shapes = (
{
closed = 1;
nodes = (
(171,0,l),
(231,166,l),
(246,207,l),
(328,427,ls),
(345,473,o),
(355,509,o),
(360,529,c),
(368,529,l),
(373,509,o),
(385,473,o),
(402,427,cs),
(484,207,l),
(499,166,l),
(559,0,l),
(711,0,l),
(426,700,l),
(305,700,l),
(19,0,l)
);
},
{
closed = 1;
nodes = (
(548,139,l),
(548,249,l),
(169,249,l),
(169,139,l)
);
},
{
closed = 1;
nodes = (
(139,0,l),
(205,177,l),
(214,208,l),
(328,500,ls),
(348,551,o),
(355,578,o),
(362,602,c),
(367,602,l),
(374,578,o),
(381,552,o),
(401,500,cs),
(514,208,l),
(523,177,l),
(590,0,l),
(677,0,l),
(398,700,l),
(331,700,l),
(52,0,l)
);
},
{
closed = 1;
nodes = (
(556,159,l),
(556,229,l),
(168,229,l),
(168,159,l)
);
}
);
};
hints = (
{
horizontal = 1;
origin = (0,17);
target = up;
type = BottomGhost;
},
{
horizontal = 1;
origin = (1,3);
target = (1,2);
type = Stem;
},
{
horizontal = 1;
origin = (0,16);
target = down;
type = TopGhost;
},
{
horizontal = 1;
origin = (0,16);
target = (0,7);
type = Stem;
},
{
origin = (0,17);
target = (0,14);
type = Stem;
}
);
layerId = "610C2E7D-EDB4-4EC2-BEB5-F0DB9FB0A101";
shapes = (
{
closed = 1;
nodes = (
(101,0,l),
(173,177,l),
(185,208,l),
(307,500,ls),
(329,551,o),
(336,578,o),
(344,602,c),
(349,602,l),
(357,578,o),
(364,552,o),
(386,500,cs),
(507,208,l),
(519,177,l),
(592,0,l),
(680,0,l),
(380,700,l),
(313,700,l),
(13,0,l)
);
},
{
closed = 1;
nodes = (
(538,156,l),
(538,232,l),
(150,232,l),
(150,156,l)
);
}
);
width = 693;
}
);
unicode = 65;
},
{
glyphname = AE;
kernLeft = AE;
kernRight = E;
lastChange = "2025-10-27 02:17:50 +0000";
layers = (
{
anchors = (
{
name = bottom;
pos = (565,0);
},
{
name = ogonek;
pos = (876,0);
},
{
name = top;
pos = (565,700);
},
{
name = top_ring;
pos = (565,700);
}
);
background = {
shapes = (
{
closed = 1;
nodes = (
(176,0,l),
(280,166,l),
(300,207,l),
(445,445,ls),
(471,488,o),
(500,537,o),
(521,582,c),
(490,565,l),
(665,565,l),
(581,700,l),
(462,700,l),
(4,0,l)
);
},
{
closed = 1;
nodes = (
(617,133,l),
(617,268,l),
(203,268,l),
(203,133,l)
);
},
{
closed = 1;
nodes = (
(937,0,l),
(937,135,l),
(665,135,l),
(665,287,l),
(930,287,l),
(930,422,l),
(665,422,l),
(665,565,l),
(935,565,l),
(935,700,l),
(525,700,l),
(525,0,l)
);
}
);
};
hints = (
{
horizontal = 1;
origin = (0,11);
target = up;
type = BottomGhost;
},
{
horizontal = 1;
origin = (1,3);
target = (1,2);
type = Stem;
},
{
horizontal = 1;
origin = (0,10);
target = (0,8);
type = Stem;
}
);
layerId = "610C2E7D-EDB4-4EC2-BEB5-F0DB9FB0A101";
shapes = (
{
closed = 1;
nodes = (
(111,0,l),
(226,177,l),
(245,208,l),
(438,500,ls),
(480,562,o),
(504,599,o),
(520,637,c),
(498,625,l),
(568,625,l),
(568,700,l),
(483,700,l),
(13,0,l)
);
},
{
closed = 1;
nodes = (
(574,156,l),
(574,232,l),
(216,232,l),
(169,156,l)
);
},
{
pos = (443,0);
ref = E;
}
);
width = 993;
},
{
anchors = (
{
name = bottom;
pos = (603,0);
},
{
name = ogonek;
pos = (856,0);
},
{
name = top;
pos = (603,700);
},
{
name = top_ring;
pos = (560,700);
}
);
background = {
anchors = (
{
name = bottom;
pos = (279,0);
},
{
name = ogonek;
pos = (368,0);
},
{
name = top;
pos = (269,700);
}
);
hints = (
{
horizontal = 1;
origin = (2,11);
target = (2,2);
type = Stem;
},
{
horizontal = 1;
origin = (2,4);
target = (2,6);
type = Stem;
},
{
horizontal = 1;
origin = (2,10);
target = (2,8);
type = Stem;
},
{
origin = (2,11);
target = (2,7);
type = Stem;
}
);
shapes = (
{
closed = 1;
nodes = (
(627,900,l),
(731,1066,l),
(751,1107,l),
(911,1345,ls),
(939,1387,o),
(976,1437,o),
(995,1482,c),
(968,1472,l),
(1015,1472,l),
(1015,900,l),
(1427,900,l),
(1427,1026,l),
(1128,1026,l),
(1155,981,l),
(1155,1239,l),
(1110,1195,l),
(1420,1195,l),
(1420,1317,l),
(1110,1317,l),
(1155,1273,l),
(1155,1519,l),
(1110,1474,l),
(1425,1474,l),
(1425,1600,l),
(937,1600,l),
(465,900,l)
);
},
{
closed = 1;
nodes = (
(1107,1039,l),
(1107,1149,l),
(674,1149,l),
(674,1039,l)
);
},
{
closed = 1;
nodes = (
(944,0,l),
(944,135,l),
(672,135,l),
(672,287,l),
(937,287,l),
(937,422,l),
(672,422,l),
(672,565,l),
(942,565,l),
(942,700,l),
(532,700,l),
(532,0,l)
);
}
);
};
layerId = m006;
shapes = (
{
closed = 1;
nodes = (
(183,0,l),
(287,166,l),
(307,207,l),
(452,445,ls),
(478,488,o),
(507,537,o),
(528,582,c),
(497,565,l),
(672,565,l),
(588,700,l),
(469,700,l),
(11,0,l)
);
},
{
closed = 1;
nodes = (
(624,133,l),
(624,268,l),
(210,268,l),
(210,133,l)
);
},
{
pos = (452,0);
ref = E;
}
);
width = 1013;
}
);
metricLeft = A;
metricRight = E;
unicode = 198;
},
{
glyphname = B;
kernLeft = H;
kernRight = B;
lastChange = "2025-10-21 19:34:37 +0000";
layers = (
{
anchors = (
{
name = bottom;
pos = (332,0);
},
{
name = top;
pos = (328,700);
}
);
background = {
shapes = (
{
closed = 1;
nodes = (
(311,0,ls),
(463,0,o),
(559,76,o),
(559,193,cs),
(559,299,o),
(487,357,o),
(375,374,c),
(375,372,l),
(470,390,o),
(520,438,o),
(520,522,cs),
(520,625,o),
(438,700,o),
(286,700,cs),
(50,700,l),
(50,0,l)
);
},
{
closed = 1;
nodes = (
(190,294,l),
(298,294,ls),
(374,294,o),
(417,266,o),
(417,215,cs),
(417,154,o),
(374,126,o),
(298,126,cs),
(190,126,l)
);
},
{
closed = 1;
nodes = (
(190,575,l),
(273,575,ls),
(349,575,o),
(378,542,o),
(378,494,cs),
(378,438,o),
(349,414,o),
(273,414,cs),
(190,414,l)
);
}
);
};
hints = (
{
horizontal = 1;
origin = (0,15);
target = (1,8);
type = Stem;
},
{
horizontal = 1;
origin = (1,1);
target = (2,8);
type = Stem;
},
{
horizontal = 1;
origin = (0,14);
target = (2,1);
type = Stem;
},
{
horizontal = 1;
origin = (1,1);
target = (0,6);
type = Stem;
},
{
origin = (0,15);
target = (2,8);
type = Stem;
},
{
origin = (1,4);
target = (0,3);
type = Stem;
},
{
origin = (2,4);
target = (0,10);
type = Stem;
}
);
layerId = m006;
shapes = (
{
closed = 1;
nodes = (
(341,0,ls),
(493,0,o),
(589,76,o),
(589,193,cs),
(589,311,o),
(487,365,o),
(433,371,c),
(433,377,l),
(486,388,o),
(550,421,o),
(550,516,cs),
(550,625,o),
(468,700,o),
(316,700,cs),
(80,700,l),
(80,0,l)
);
},
{
closed = 1;
nodes = (
(220,289,l),
(338,289,ls),
(404,289,o),
(447,266,o),
(447,211,cs),
(447,154,o),
(404,135,o),
(338,135,cs),
(220,135,l)
);
},
{
closed = 1;
nodes = (
(220,565,l),
(313,565,ls),
(379,565,o),
(408,545,o),
(408,493,cs),
(408,441,o),
(379,419,o),
(313,419,cs),
(220,419,l)
);
}
);
width = 638;
},
{
anchors = (
{
name = bottom;
pos = (316,0);
},
{
name = top;
pos = (312,700);
}
);
hints = (
{
horizontal = 1;
origin = (0,15);
target = (1,8);
type = Stem;
},
{
horizontal = 1;
origin = (1,1);
target = (2,8);
type = Stem;
},
{
horizontal = 1;
origin = (0,14);
target = (2,1);
type = Stem;
},
{
origin = (0,15);
target = (2,8);
type = Stem;
},
{
origin = (1,4);
target = (0,3);
type = Stem;
},
{
origin = (2,4);
target = (0,10);
type = Stem;
}
);
layerId = "610C2E7D-EDB4-4EC2-BEB5-F0DB9FB0A101";
shapes = (
{
closed = 1;
nodes = (
(336,0,ls),
(475,0,o),
(571,72,o),
(571,191,cs),
(571,294,o),
(508,343,o),
(403,362,c),
(403,367,l),
(500,390,o),
(532,448,o),
(532,516,cs),
(532,632,o),
(450,700,o),
(311,700,cs),
(82,700,l),
(82,0,l)
);
},
{
closed = 1;
nodes = (
(166,318,l),
(327,318,ls),
(419,318,o),
(486,280,o),
(486,198,cs),
(486,115,o),
(419,76,o),
(327,76,cs),
(166,76,l)
);
},
{
closed = 1;
nodes = (
(166,624,l),
(302,624,ls),
(394,624,o),
(447,588,o),
(447,507,cs),
(447,422,o),
(394,390,o),
(302,390,cs),
(166,390,l)
);
}
);
width = 618;
}
);
metricLeft = H;
unicode = 66;
},
{
glyphname = C;
kernLeft = O;
kernRight = C;
lastChange = "2025-10-20 15:17:22 +0000";
layers = (
{
anchors = (
{
name = bottom;
pos = (407,0);
},
{
name = ogonek;
pos = (510,0);
},
{
name = top;
pos = (407,700);
}
);
background = {
shapes = (
{
closed = 1;
nodes = (
(614,-13,o),
(766,142,o),
(766,349,cs),
(766,557,o),
(614,713,o),
(411,713,cs),
(208,713,o),
(56,557,o),
(56,349,cs),
(56,142,o),
(208,-13,o),
(411,-13,cs)
);
},
{
closed = 1;
nodes = (
(295,125,o),
(199,202,o),
(199,349,cs),
(199,496,o),
(295,575,o),
(411,575,cs),
(526,575,o),
(623,496,o),
(623,349,cs),
(623,202,o),
(526,125,o),
(411,125,cs)
);
},
{
closed = 1;
nodes = (
(385,0,ls),
(612,0,o),
(764,140,o),
(764,349,cs),
(764,560,o),
(612,700,o),
(385,700,cs),
(150,700,l),
(150,0,l)
);
},
{
closed = 1;
nodes = (
(290,628,l),
(227,565,l),
(381,565,ls),
(534,565,o),
(621,497,o),
(621,349,cs),
(621,202,o),
(534,135,o),
(381,135,cs),
(227,135,l),
(290,72,l)
);
}
);
};
hints = (
{
horizontal = 1;
origin = (0,25);
place = (-13,0);
type = Stem;
},
{
horizontal = 1;
origin = (0,19);
target = (0,12);
type = Stem;
},
{
origin = (0,22);
target = (0,9);
type = Stem;
}
);
layerId = m006;
shapes = (
{
closed = 1;
nodes = (
(529,-13,o),
(614,36,o),
(667,100,c),
(564,190,l),
(525,147,o),
(469,125,o),
(410,125,cs),
(270,125,o),
(185,221,o),
(185,349,cs),
(185,477,o),
(270,575,o),
(407,575,cs),
(479,575,o),
(524,550,o),
(566,506,c),
(666,601,l),
(600,679,o),
(508,713,o),
(407,713,cs),
(191,713,o),
(42,550,o),
(42,349,cs),
(42,149,o),
(199,-13,o),
(407,-13,cs)
);
}
);
width = 689;
},
{
anchors = (
{
name = bottom;
pos = (399,0);
},
{
name = ogonek;
pos = (502,0);
},
{
name = top;
pos = (399,700);
}
);
background = {
shapes = (
{
closed = 1;
nodes = (
(-94,687,o),
(48,850,o),
(48,1050,cs),
(48,1252,o),
(-94,1413,o),
(-300,1413,cs),
(-506,1413,o),
(-648,1250,o),
(-648,1049,cs),
(-648,848,o),
(-506,687,o),
(-300,687,cs)
);
},
{
closed = 1;
nodes = (
(-458,763,o),
(-564,878,o),
(-564,1049,cs),
(-564,1220,o),
(-458,1337,o),
(-300,1337,cs),
(-141,1337,o),
(-36,1221,o),
(-36,1050,cs),
(-36,879,o),
(-141,763,o),
(-300,763,cs)
);
},
{
closed = 1;
nodes = (
(513,-13,o),
(601,29,o),
(661,102,c),
(601,151,l),
(550,93,o),
(492,63,o),
(402,63,cs),
(251,63,o),
(128,182,o),
(128,349,cs),
(128,515,o),
(241,637,o),
(399,637,cs),
(474,637,o),
(541,608,o),
(594,551,c),
(655,603,l),
(592,678,o),
(506,713,o),
(399,713,cs),
(195,713,o),
(41,553,o),
(41,349,cs),
(41,145,o),
(197,-13,o),
(399,-13,cs)
);
}
);
};
hints = (
{
horizontal = 1;
origin = (0,25);
target = (0,6);
type = Stem;
},
{
horizontal = 1;
origin = (0,19);
target = (0,12);
type = Stem;
},
{
origin = (0,22);
target = (0,9);
type = Stem;
}
);
layerId = "610C2E7D-EDB4-4EC2-BEB5-F0DB9FB0A101";
shapes = (
{
closed = 1;
nodes = (
(513,-13,o),
(601,29,o),
(661,102,c),
(601,151,l),
(550,93,o),
(492,63,o),
(402,63,cs),
(251,63,o),
(128,182,o),
(128,349,cs),
(128,515,o),
(241,637,o),
(399,637,cs),
(475,637,o),
(543,615,o),
(594,551,c),
(655,603,l),
(592,678,o),
(506,713,o),
(399,713,cs),
(195,713,o),
(41,553,o),
(41,349,cs),
(41,145,o),
(197,-13,o),
(399,-13,cs)
);
}
);
width = 682;
}
);
metricLeft = O;
metricRight = "=O-20";
unicode = 67;
},
{
glyphname = D;
kernLeft = H;
kernRight = O;
lastChange = "2025-10-19 19:24:26 +0000";
layers = (
{
anchors = (
{
name = bottom;
pos = (349,0);
},
{
name = center;
pos = (150,349);
},
{
name = top;
pos = (367,700);
}
);
background = {
shapes = (
{
closed = 1;
nodes = (
(292,0,ls),
(513,0,o),
(671,130,o),
(671,349,cs),
(671,570,o),
(513,700,o),
(292,700,cs),
(82,700,l),
(82,0,l)
);
},
{
closed = 1;
nodes = (
(164,670,l),
(128,624,l),
(295,624,ls),
(466,624,o),
(587,525,o),
(587,349,cs),
(587,174,o),
(466,76,o),
(295,76,cs),
(128,76,l),
(164,30,l)
);
}
);
};
hints = (
{
horizontal = 1;
origin = (0,8);
target = (1,8);
type = Stem;
},
{
horizontal = 1;
origin = (0,7);
target = (1,1);
type = Stem;
},
{
origin = (0,8);
target = (1,8);
type = Stem;
},
{
origin = (1,4);
target = (0,3);
type = Stem;
}
);
layerId = m006;
shapes = (
{
closed = 1;
nodes = (
(315,0,ls),
(542,0,o),
(694,140,o),
(694,349,cs),
(694,560,o),
(542,700,o),
(315,700,cs),
(80,700,l),
(80,0,l)
);
},
{
closed = 1;
nodes = (
(220,565,l),
(311,565,ls),
(464,565,o),
(551,497,o),
(551,349,cs),
(551,202,o),
(464,135,o),
(311,135,cs),
(220,135,l)
);
}
);
width = 736;
},
{
anchors = (
{
name = bottom;
pos = (319,0);
},
{
name = center;
pos = (128,349);
},
{
name = top;
pos = (337,700);
}
);
background = {
shapes = (
{
closed = 1;
nodes = (
(551,-13,o),
(691,150,o),
(691,350,cs),
(691,552,o),
(551,713,o),
(343,713,cs),
(135,713,o),
(-5,550,o),
(-5,349,cs),
(-5,148,o),
(135,-13,o),
(343,-13,cs)
);
},
{
closed = 1;
nodes = (
(185,64,o),
(82,178,o),
(82,349,cs),
(82,520,o),
(185,636,o),
(343,636,cs),
(502,636,o),
(604,521,o),
(604,350,cs),
(604,179,o),
(502,64,o),
(343,64,cs)
);
}
);
};
hints = (
{
horizontal = 1;
origin = (0,8);
target = (1,8);
type = Stem;
},
{
horizontal = 1;
origin = (0,7);
target = (1,1);
type = Stem;
},
{
origin = (0,8);
target = (1,8);
type = Stem;
},
{
origin = (1,4);
target = (0,3);
type = Stem;
}
);
layerId = "610C2E7D-EDB4-4EC2-BEB5-F0DB9FB0A101";
shapes = (
{
closed = 1;
nodes = (
(292,0,ls),
(513,0,o),
(671,130,o),
(671,349,cs),
(671,570,o),
(513,700,o),
(292,700,cs),
(82,700,l),
(82,0,l)
);
},
{
closed = 1;
nodes = (
(164,624,l),
(295,624,ls),
(466,624,o),
(587,525,o),
(587,349,cs),
(587,174,o),
(466,76,o),
(295,76,cs),
(164,76,l)
);
}
);
width = 712;
}
);
metricLeft = H;
metricRight = O;
unicode = 68;
},
{
glyphname = Dcroat;
kernLeft = H;
kernRight = O;
lastChange = "2025-10-24 01:14:29 +0000";
layers = (
{
background = {
shapes = (
{
ref = H;
}
);
};
layerId = "610C2E7D-EDB4-4EC2-BEB5-F0DB9FB0A101";
shapes = (
{
ref = D;
},
{
closed = 1;
nodes = (
(367,326,l),
(367,394,l),
(14,394,l),
(14,326,l)
);
}
);
width = 712;
},
{
background = {
shapes = (
{
ref = H;
}
);
};
layerId = m006;
shapes = (
{
ref = D;
},
{
closed = 1;
nodes = (
(369,295,l),
(369,415,l),
(10,415,l),
(10,295,l)
);
}
);
width = 736;
}
);
metricRight = O;
unicode = 272;
},
{
glyphname = E;
kernLeft = H;
kernRight = E;
lastChange = "2025-10-20 00:59:54 +0000";
layers = (
{
anchors = (
{
name = bottom;
pos = (310,0);
},
{
name = ogonek;
pos = (399,0);
},
{
name = top;
pos = (300,700);
}
);
hints = (
{
horizontal = 1;
origin = (0,0);
target = (0,1);
type = Stem;
},
{
horizontal = 1;
origin = (0,4);
target = (0,5);
type = Stem;
},
{
horizontal = 1;
origin = (0,9);
target = (0,8);
type = Stem;
},
{
origin = (0,11);
target = (0,7);
type = Stem;
}
);
layerId = m006;
shapes = (
{
closed = 1;
nodes = (
(492,0,l),
(492,135,l),
(220,135,l),
(220,287,l),
(485,287,l),
(485,422,l),
(220,422,l),
(220,565,l),
(490,565,l),
(490,700,l),
(80,700,l),
(80,0,l)
);
}
);
width = 561;
},
{
anchors = (
{
name = bottom;
pos = (300,0);
},
{
name = ogonek;
pos = (389,0);
},
{
name = top;
pos = (290,700);
}
);
hints = (
{
horizontal = 1;
origin = (0,11);
target = (0,2);
type = Stem;
},
{
horizontal = 1;
origin = (0,4);
target = (0,5);
type = Stem;
},
{
horizontal = 1;
origin = (0,10);
target = (0,8);
type = Stem;
},
{
origin = (0,11);
target = (0,7);
type = Stem;
},
{
horizontal = 1;
options = 4;
origin = (0,11);
target = (0,1);
type = TTStem;
},
{
horizontal = 1;
options = 4;
origin = (0,4);
target = (0,6);
type = TTStem;
},
{
horizontal = 1;
options = 4;
origin = (0,10);
target = (0,8);
type = TTStem;
},
{
horizontal = 1;
options = 4;
origin = (0,4);
target = (0,5);
type = TTShift;
}
);
layerId = "610C2E7D-EDB4-4EC2-BEB5-F0DB9FB0A101";
shapes = (
{
closed = 1;
nodes = (
(479,0,l),
(479,76,l),
(164,76,l),
(164,318,l),
(472,318,l),
(472,394,l),
(164,394,l),
(164,624,l),
(477,624,l),
(477,700,l),
(82,700,l),
(82,0,l)
);
}
);
width = 550;
}
);
metricLeft = H;
unicode = 69;
},
{
glyphname = Schwa;
kernLeft = O;
kernRight = O;
lastChange = "2025-09-01 19:41:57 +0000";
layers = (
{
background = {
shapes = (
{
pos = (-8,0);
ref = O;
}
);
};
layerId = "610C2E7D-EDB4-4EC2-BEB5-F0DB9FB0A101";
shapes = (
{
closed = 1;
nodes = (
(583,-13,o),
(733,144,o),
(733,349,cs),
(733,555,o),
(587,713,o),
(378,713,cs),
(258,713,o),
(161,663,o),
(91,563,c),
(156,520,l),
(204,595,o),
(280,637,o),
(377,637,cs),
(544,637,o),
(646,511,o),
(646,349,cs),
(646,187,o),
(535,63,o),
(377,63,cs),
(225,63,o),
(126,167,o),
(124,318,c),
(91,296,l),
(670,295,l),
(670,367,l),
(44,367,l),
(42,355,o),
(41,338,o),
(41,321,cs),
(41,126,o),
(179,-13,o),
(378,-13,cs)
);
}
);
width = 774;
},
{
layerId = m006;
shapes = (
{
closed = 1;
nodes = (
(587,-13,o),
(734,149,o),
(734,349,cs),
(734,550,o),
(587,713,o),
(379,713,cs),
(259,713,o),
(169,676,o),
(80,590,c),
(182,493,l),
(236,550,o),
(294,575,o),
(376,575,cs),
(502,575,o),
(589,477,o),
(589,349,cs),
(589,221,o),
(511,125,o),
(376,125,cs),
(274,125,o),
(197,181,o),
(188,285,c),
(159,266,l),
(653,266,l),
(653,396,l),
(47,396,l),
(44,375,o),
(42,344,o),
(42,322,cs),
(42,128,o),
(169,-13,o),
(379,-13,cs)
);
}
);
width = 776;
}
);
metricLeft = O;
metricRight = O;
unicode = 399;
},
{
glyphname = F;
kernLeft = H;
kernRight = F;
lastChange = "2025-10-23 18:40:17 +0000";
layers = (
{
anchors = (
{
name = bottom;
pos = (150,0);
},
{
name = ogonek;
pos = (118,0);
},
{
name = top;
pos = (304,700);
}
);
hints = (
{
horizontal = 1;
origin = (0,9);
target = up;
type = BottomGhost;
},
{
horizontal = 1;
origin = (0,2);
target = (0,4);
type = Stem;
},
{
horizontal = 1;
origin = (0,8);
target = (0,6);
type = Stem;
},
{
origin = (0,9);
target = (0,5);
type = Stem;
}
);
layerId = m006;
shapes = (
{
closed = 1;
nodes = (
(220,0,l),
(220,281,l),
(486,281,l),
(486,416,l),
(220,416,l),
(220,565,l),
(491,565,l),
(491,700,l),
(80,700,l),
(80,0,l)
);
}
);
width = 556;
},
{
anchors = (
{
name = bottom;
pos = (124,0);
},
{
name = ogonek;
pos = (104,0);
},
{
name = top;
pos = (295,700);
}
);
hints = (
{
horizontal = 1;
origin = (0,9);
target = up;
type = BottomGhost;
},
{
horizontal = 1;
origin = (0,2);
target = (0,4);
type = Stem;
},
{
horizontal = 1;
origin = (0,8);
target = (0,6);
type = Stem;
},
{
origin = (0,9);
target = (0,5);
type = Stem;
}
);
layerId = "610C2E7D-EDB4-4EC2-BEB5-F0DB9FB0A101";
shapes = (
{
closed = 1;
nodes = (
(166,0,l),
(166,311,l),
(475,311,l),
(475,387,l),
(166,387,l),
(166,624,l),
(480,624,l),
(480,700,l),
(82,700,l),
(82,0,l)
);
}
);
width = 547;
}
);
metricLeft = H;
unicode = 70;
},
{
glyphname = Fhook;
kernLeft = j;
kernRight = F;
lastChange = "2025-10-16 14:10:14 +0000";
layers = (
{
layerId = "610C2E7D-EDB4-4EC2-BEB5-F0DB9FB0A101";
shapes = (
{
pos = (3,0);
ref = F;
},
{
closed = 1;
nodes = (
(100,-230,o),
(169,-161,o),
(169,-35,cs),
(169,0,l),
(130,107,l),
(85,0,l),
(85,-32,ls),
(85,-109,o),
(45,-152,o),
(-16,-152,cs),
(-49,-152,o),
(-77,-144,o),
(-99,-118,c),
(-156,-186,l),
(-119,-223,o),
(-70,-234,o),
(-13,-233,cs)
);
}
);
width = 550;
},
{
layerId = m006;
shapes = (
{
ref = F;
},
{
closed = 1;
nodes = (
(134,-229,o),
(220,-160,o),
(220,-16,cs),
(220,0,l),
(150,186,l),
(80,0,l),
(80,-25,ls),
(80,-71,o),
(48,-99,o),
(8,-99,cs),
(-27,-99,o),
(-53,-80,o),
(-69,-59,c),
(-156,-174,l),
(-119,-208,o),
(-66,-229,o),
(-6,-229,cs)
);
}
);
width = 556;
}
);
metricRight = F;
unicode = 401;
},
{
glyphname = G;
kernLeft = O;
kernRight = O;
lastChange = "2025-10-23 18:39:04 +0000";
layers = (
{
anchors = (
{
name = bottom;
pos = (399,0);
},
{
name = ogonek;
pos = (529,9);
},
{
name = top;
pos = (399,700);
}
);
background = {
shapes = (
{
ref = O;
},
{
ref = C;
}
);
};
hints = (
{
horizontal = 1;
origin = (0,31);
target = (0,12);
type = Stem;
},
{
horizontal = 1;
origin = (0,8);
target = (0,6);
type = Stem;
},
{
horizontal = 1;
origin = (0,25);
target = (0,18);
type = Stem;
},
{
origin = (0,28);
target = (0,15);
type = Stem;
}
);
layerId = m006;
shapes = (
{
closed = 1;
nodes = (
(607,-13,o),
(734,128,o),
(734,322,cs),
(734,344,o),
(732,375,o),
(729,396,c),
(364,396,l),
(364,266,l),
(617,266,l),
(588,285,l),
(579,181,o),
(502,125,o),
(400,125,cs),
(265,125,o),
(187,221,o),
(187,349,cs),
(187,477,o),
(274,575,o),
(400,575,cs),
(476,575,o),
(519,555,o),
(566,506,c),
(666,601,l),
(592,682,o),
(511,713,o),
(397,713,cs),
(189,713,o),
(42,550,o),
(42,349,cs),
(42,149,o),
(189,-13,o),
(397,-13,cs)
);
}
);
width = 776;
},
{
anchors = (
{
name = bottom;
pos = (396,0);
},
{
name = ogonek;
pos = (523,9);
},
{
name = top;
pos = (396,700);
}
);
background = {
shapes = (
{
ref = O;
},
{
ref = C;
}
);
};
hints = (
{
horizontal = 1;
origin = (0,31);
target = (0,12);
type = Stem;
},
{
horizontal = 1;
origin = (0,8);
target = (0,6);
type = Stem;
},
{
horizontal = 1;
origin = (0,25);
target = (0,18);
type = Stem;
},
{
origin = (0,28);
target = (0,15);
type = Stem;
},
{
origin = (0,8,0,12);
target = (0,2);
type = Stem;
}
);
layerId = "610C2E7D-EDB4-4EC2-BEB5-F0DB9FB0A101";
shapes = (
{
closed = 1;
nodes = (
(595,-13,o),
(733,126,o),
(733,321,cs),
(733,338,o),
(732,355,o),
(730,367,c),
(363,367,l),
(363,293,l),
(683,294,l),
(650,318,l),
(648,167,o),
(549,63,o),
(397,63,cs),
(239,63,o),
(128,187,o),
(128,349,cs),
(128,511,o),
(230,637,o),
(397,637,cs),
(480,637,o),
(549,608,o),
(594,550,c),
(655,603,l),
(588,680,o),
(510,713,o),
(396,713,cs),
(187,713,o),
(41,555,o),
(41,349,cs),
(41,144,o),
(191,-13,o),
(396,-13,cs)
);
}
);
width = 774;
}
);
metricLeft = O;
metricRight = O;
unicode = 71;
},
{
glyphname = H;
kernLeft = H;
kernRight = H;
lastChange = "2025-10-20 02:15:05 +0000";
layers = (
{
anchors = (
{
name = bottom;
pos = (365,0);
},
{
name = ogonek;
pos = (510,0);
},
{
name = top;
pos = (365,700);
}
);
background = {
shapes = (
{
closed = 1;
nodes = (
(190,0,l),
(190,340,l),
(145,295,l),
(525,295,l),
(480,340,l),
(480,0,l),
(620,0,l),
(620,700,l),
(480,700,l),
(480,376,l),
(525,421,l),
(145,421,l),
(190,376,l),
(190,700,l),
(50,700,l),
(50,0,l)
);
}
);
};
hints = (
{
horizontal = 1;
origin = (0,11);
target = up;
type = BottomGhost;
},
{
horizontal = 1;
origin = (0,2);
target = (0,8);
type = Stem;
},
{
horizontal = 1;
origin = (0,10);
target = down;
type = TopGhost;
},
{
origin = (0,11);
target = (0,9);
type = Stem;
},
{
origin = (0,5);
target = (0,7);
type = Stem;
},
{
horizontal = 1;
options = 4;
origin = (0,11);
target = (0,3);
type = TTShift;
},
{
horizontal = 1;
options = 4;
origin = (0,10);
target = (0,6);
type = TTShift;
}
);
layerId = m006;
shapes = (
{
closed = 1;
nodes = (
(220,0,l),
(220,295,l),
(510,295,l),
(510,0,l),
(650,0,l),
(650,700,l),
(510,700,l),
(510,430,l),
(220,430,l),
(220,700,l),
(80,700,l),
(80,0,l)
);
}
);
width = 730;
},
{
anchors = (
{
name = bottom;
pos = (365,0);
},
{
name = ogonek;
pos = (557,0);
},
{
name = top;
pos = (365,700);
}
);
background = {
shapes = (
{
closed = 1;
nodes = (
(362,700,l),
(443,700,l),
(443,920,l),
(362,920,l)
);
},
{
closed = 1;
nodes = (
(298,-220,l),
(379,-220,l),
(379,0,l),
(298,0,l)
);
},
{
closed = 1;
nodes = (
(482,700,l),
(563,700,l),
(563,900,l),
(482,900,l)
);
}
);
};
hints = (
{
horizontal = 1;
origin = (0,11);
target = up;
type = BottomGhost;
},
{
horizontal = 1;
origin = (0,2);
target = (0,8);
type = Stem;
},
{
horizontal = 1;
origin = (0,10);
target = down;
type = TopGhost;
},
{
origin = (0,11);
target = (0,9);
type = Stem;
},
{
horizontal = 1;
options = 4;
origin = (0,11);
type = TTSnap;
},
{
horizontal = 1;
options = 4;
origin = (0,8);
target = (0,2);
type = TTStem;
},
{
horizontal = 1;
options = 4;
origin = (0,10);
type = TTSnap;
},
{
horizontal = 1;
options = 4;
origin = (0,11);
target = (0,3);
type = TTShift;
},
{
horizontal = 1;
options = 4;
origin = (0,10);
target = (0,6);
type = TTShift;
},
{
origin = (0,3);
target = (0,4);
type = Stem;
}
);
layerId = "610C2E7D-EDB4-4EC2-BEB5-F0DB9FB0A101";
shapes = (
{
closed = 1;
nodes = (
(164,0,l),
(164,326,l),
(557,326,l),
(557,0,l),
(639,0,l),
(639,700,l),
(557,700,l),
(557,402,l),
(164,402,l),
(164,700,l),
(82,700,l),
(82,0,l)
);
}
);
width = 721;
}
);
unicode = 72;
},
{
glyphname = Hbar;
kernLeft = H;
kernRight = H;
lastChange = "2025-10-26 03:48:27 +0000";
layers = (
{
layerId = "610C2E7D-EDB4-4EC2-BEB5-F0DB9FB0A101";
shapes = (
{
ref = H;
},
{
closed = 1;
nodes = (
(707,526,l),
(707,596,l),
(14,596,l),
(14,526,l)
);
}
);
width = 721;
},
{
layerId = m006;
shapes = (
{
ref = H;
},
{
closed = 1;
nodes = (
(720,508,l),
(720,628,l),
(10,628,l),
(10,508,l)
);
}
);
width = 730;
}
);
unicode = 294;
},
{
glyphname = I;
kernLeft = H;
kernRight = H;
lastChange = "2025-10-16 14:11:30 +0000";
layers = (
{
anchors = (
{
name = bottom;
pos = (150,0);
},
{
name = ogonek;
pos = (124,0);
},
{
name = top;
pos = (150,700);
}
);
hints = (
{
horizontal = 1;
origin = (0,4);
target = up;
type = BottomGhost;
},
{
horizontal = 1;
origin = (0,2);
target = down;
type = TopGhost;
},
{
origin = (0,4);
target = (0,1);
type = Stem;
}
);
layerId = m006;
shapes = (
{
closed = 1;
nodes = (
(220,0,l),
(220,700,l),
(80,700,l),
(80,373,l),
(80,0,l)
);
}
);
width = 300;
},
{
anchors = (
{
name = bottom;
pos = (123,0);
},
{
name = ogonek;
pos = (86,0);
},
{
name = top;
pos = (123,700);
}
);
hints = (
{
horizontal = 1;
origin = (0,4);
target = up;
type = BottomGhost;
},
{
horizontal = 1;
origin = (0,2);
target = down;
type = TopGhost;
},
{
origin = (0,4);
target = (0,1);
type = Stem;
}
);
layerId = "610C2E7D-EDB4-4EC2-BEB5-F0DB9FB0A101";
shapes = (
{
closed = 1;
nodes = (
(164,0,l),
(164,700,l),
(82,700,l),
(82,356,l),
(82,0,l)
);
}
);
width = 246;
}
);
metricLeft = H;
metricRight = H;
unicode = 73;
},
{
glyphname = J;
kernLeft = J;
kernRight = U;
lastChange = "2025-10-26 20:56:17 +0000";
layers = (
{
anchors = (
{
name = bottom;
pos = (193,0);
},
{
name = ogonek;
pos = (256,0);
},
{
name = top;
pos = (339,700);
}
);
background = {
shapes = (
{
closed = 1;
nodes = (
(374,-13,o),
(486,99,o),
(486,259,cs),
(486,700,l),
(346,700,l),
(346,274,ls),
(346,177,o),
(299,117,o),
(203,117,cs),
(107,117,o),
(60,177,o),
(60,274,cs),
(60,700,l),
(-80,700,l),
(-80,259,ls),
(-80,99,o),
(32,-13,o),
(203,-13,cs)
);
},
{
closed = 1;
nodes = (
(321,-13,o),
(424,39,o),
(424,202,cs),
(424,700,l),
(284,700,l),
(284,198,ls),
(284,145,o),
(256,117,o),
(203,117,cs),
(180,117,o),
(158,124,o),
(138,138,c),
(85,16,l),
(113,-1,o),
(149,-13,o),
(207,-13,cs)
);
}
);
};
hints = (
{
horizontal = 1;
origin = (0,15);
target = (0,8);
type = Stem;
},
{
horizontal = 1;
origin = (0,4);
target = down;
type = TopGhost;
},
{
origin = (0,3);
target = (0,5);
type = Stem;
}
);
layerId = m006;
shapes = (
{
closed = 1;
nodes = (
(333,-13,o),
(409,56,o),
(409,200,cs),
(409,700,l),
(269,700,l),
(269,191,ls),
(269,145,o),
(237,117,o),
(197,117,cs),
(162,117,o),
(136,136,o),
(120,157,c),
(32,48,l),
(80,8,o),
(133,-13,o),
(193,-13,cs)
);
}
);
width = 484;
},
{
anchors = (
{
name = bottom;
pos = (177,0);
},
{
name = ogonek;
pos = (240,0);
},
{
name = top;
pos = (314,700);
}
);
hints = (
{
horizontal = 1;
origin = (0,15);
target = (0,8);
type = Stem;
},
{
horizontal = 1;
origin = (0,4);
target = down;
type = TopGhost;
},
{
origin = (0,3);
target = (0,5);
type = Stem;
}
);
layerId = "610C2E7D-EDB4-4EC2-BEB5-F0DB9FB0A101";
shapes = (
{
closed = 1;
nodes = (
(290,-9,o),
(356,60,o),
(356,186,cs),
(356,700,l),
(272,700,l),
(272,186,ls),
(272,109,o),
(232,66,o),
(171,66,cs),
(138,66,o),
(110,74,o),
(88,100,c),
(34,35,l),
(71,-2,o),
(120,-13,o),
(177,-12,cs)
);
}
);
width = 433;
}
);
unicode = 74;
},
{
glyphname = K;
kernLeft = H;
kernRight = K;
lastChange = "2025-10-14 05:04:25 +0000";
layers = (
{
anchors = (
{
name = bottom;
pos = (323,0);
},
{
name = ogonek;
pos = (462,0);
},
{
name = top;
pos = (313,701);
}
);
hints = (
{
horizontal = 1;
origin = (0,12);
target = up;
type = BottomGhost;
},
{
horizontal = 1;
origin = (0,11);
target = down;
type = TopGhost;
},
{
origin = (0,12);
target = (0,10);
type = Stem;
}
);
layerId = m006;
shapes = (
{
closed = 1;
nodes = (
(220,0,l),
(220,309,l),
(223,309,l),
(462,0,l),
(641,0,l),
(350,372,l),
(621,700,l),
(438,700,l),
(223,411,l),
(220,411,l),
(220,700,l),
(80,700,l),
(80,0,l)
);
}
);
width = 648;
},
{
anchors = (
{
name = bottom;
pos = (294,0);
},
{
name = ogonek;
pos = (471,0);
},
{
name = top;
pos = (284,701);
}
);
background = {
shapes = (
{
closed = 1;
nodes = (
(166,0,l),
(166,342,l),
(168,342,l),
(471,0,l),
(591,0,l),
(249,368,l),
(569,700,l),
(452,700,l),
(168,384,l),
(166,384,l),
(166,700,l),
(82,700,l),
(82,0,l)
);
}
);
};
hints = (
{
horizontal = 1;
origin = (0,12);
target = up;
type = BottomGhost;
},
{
horizontal = 1;
origin = (0,11);
target = down;
type = TopGhost;
},
{
origin = (0,12);
target = (0,10);
type = Stem;
}
);
layerId = "610C2E7D-EDB4-4EC2-BEB5-F0DB9FB0A101";
shapes = (
{
closed = 1;
nodes = (
(164,0,l),
(164,344,l),
(166,344,l),
(471,0,l),
(591,0,l),
(249,368,l),
(569,700,l),
(452,700,l),
(166,382,l),
(164,382,l),
(164,700,l),
(82,700,l),
(82,0,l)
);
}
);
width = 600;
}
);
metricLeft = H;
unicode = 75;
},
{
glyphname = L;
kernLeft = H;
kernRight = L;
lastChange = "2025-10-17 01:08:16 +0000";
layers = (
{
anchors = (
{
name = bottom;
pos = (293,0);
},
{
name = center;
pos = (318,370);
},
{
name = ogonek;
pos = (481,0);
},
{
name = top;
pos = (146,700);
},
{
name = topright;
pos = (308,700);
}
);
hints = (
{
horizontal = 1;
origin = (0,5);
target = (0,2);
type = Stem;
},
{
horizontal = 1;
origin = (0,4);
target = down;
type = TopGhost;
},
{
origin = (0,5);
target = (0,3);
type = Stem;
}
);
layerId = m006;
shapes = (
{
closed = 1;
nodes = (
(481,0,l),
(481,135,l),
(220,135,l),
(220,700,l),
(80,700,l),
(80,0,l)
);
}
);
width = 536;
},
{
anchors = (
{
name = bottom;
pos = (273,0);
},
{
name = center;
pos = (298,370);
},
{
name = ogonek;
pos = (461,0);
},
{
name = top;
pos = (122,700);
},
{
name = topright;
pos = (288,700);
}
);
hints = (
{
horizontal = 1;
origin = (0,5);
target = (0,2);
type = Stem;
},
{
horizontal = 1;
origin = (0,4);
target = down;
type = TopGhost;
},
{
origin = (0,5);
target = (0,3);
type = Stem;
}
);
layerId = "610C2E7D-EDB4-4EC2-BEB5-F0DB9FB0A101";
shapes = (
{
closed = 1;
nodes = (
(462,0,l),
(462,76,l),
(164,76,l),
(164,700,l),
(82,700,l),
(82,0,l)
);
}
);
width = 519;
}
);
metricLeft = H;
unicode = 76;
},
{
glyphname = Lslash;
kernLeft = H;
kernRight = L;
lastChange = "2025-10-24 01:19:02 +0000";
layers = (
{
background = {
shapes = (
{
closed = 1;
nodes = (
(128,313,l),
(138,313,l),
(309,425,l),
(309,514,l),
(140,395,l),
(128,395,l),
(2,307,l),
(2,225,l)
);
}
);
};
layerId = "610C2E7D-EDB4-4EC2-BEB5-F0DB9FB0A101";
shapes = (
{
pos = (10,0);
ref = L;
},
{
closed = 1;
nodes = (
(128,313,l),
(138,313,l),
(309,425,l),
(309,514,l),
(140,395,l),
(128,395,l),
(16,317,l),
(16,235,l)
);
}
);
width = 529;
},
{
background = {
shapes = (
{
closed = 1;
nodes = (
(142,283,l),
(152,283,l),
(323,395,l),
(323,538,l),
(158,419,l),
(142,419,l),
(16,331,l),
(16,195,l)
);
}
);
};
layerId = m006;
shapes = (
{
ref = L;
},
{
closed = 1;
nodes = (
(142,283,l),
(152,281,l),
(323,393,l),
(323,536,l),
(158,417,l),
(142,419,l),
(10,327,l),
(10,191,l)
);
}
);
width = 536;
}
);
unicode = 321;
},
{
glyphname = M;
kernLeft = H;
kernRight = H;
lastChange = "2025-10-17 02:21:06 +0000";
layers = (
{
anchors = (
{
name = bottom;
pos = (476,0);
},
{
name = ogonek;
pos = (731,0);
},
{
name = top;
pos = (475,700);
}
);
background = {
shapes = (
{
closed = 0;
nodes = (
(617,1777,l),
(475,1382,ls),
(456,1329,o),
(453,1302,o),
(450,1276,c),
(444,1276,l),
(440,1302,o),
(436,1328,o),
(417,1382,cs),
(275,1777,l)
);
},
{
closed = 0;
nodes = (
(143,1100,l),
(175,1495,ls),
(179,1548,o),
(174,1575,o),
(171,1601,c),
(177,1601,l),
(187,1575,o),
(199,1549,o),
(233,1495,cs),
(485,1100,l)
);
},
{
closed = 0;
nodes = (
(402,1100,l),
(654,1495,ls),
(688,1549,o),
(700,1575,o),
(710,1601,c),
(716,1601,l),
(713,1575,o),
(708,1548,o),
(712,1495,cs),
(744,1100,l)
);
},
{
closed = 1;
nodes = (
(187,0,l),
(187,283,ls),
(187,402,o),
(183,446,o),
(171,536,c),
(153,537,l),
(410,0,l),
(478,0,l),
(735,537,l),
(717,536,l),
(705,446,o),
(701,402,o),
(701,283,cs),
(701,0,l),
(838,0,l),
(838,700,l),
(670,700,l),
(524,391,ls),
(452,238,o),
(448,211,o),
(437,162,c),
(457,162,l),
(446,211,o),
(441,238,o),
(369,391,cs),
(224,700,l),
(50,700,l),
(50,0,l)
);
},
{
closed = 0;
nodes = (
(144,866,l),
(480,157,l)
);
},
{
closed = 0;
nodes = (
(750,866,l),
(414,157,l)
);
}
);
};
hints = (
{
horizontal = 1;
origin = (0,27);
target = up;
type = BottomGhost;
},
{
horizontal = 1;
origin = (0,26);
target = down;
type = TopGhost;
},
{
horizontal = 1;
origin = (0,26);
target = (0,9);
type = Stem;
},
{
origin = (0,27);
target = (0,1);
type = Stem;
},
{
origin = (0,13);
target = (0,15);
type = Stem;
}
);
layerId = m006;
shapes = (
{
closed = 1;
nodes = (
(217,0,l),
(217,283,ls),
(217,391,o),
(213,456,o),
(203,499,c),
(207,499,l),
(440,0,l),
(508,0,l),
(741,499,l),
(745,499,l),
(735,459,o),
(731,394,o),
(731,283,cs),
(731,0,l),
(868,0,l),
(868,700,l),
(701,700,l),
(554,391,ls),
(511,300,o),
(487,243,o),
(479,206,c),
(475,206,l),
(467,243,o),
(442,300,o),
(399,391,cs),
(253,700,l),
(80,700,l),
(80,0,l)
);
}
);
width = 948;
},
{
anchors = (
{
name = bottom;
pos = (461,0);
},
{
name = ogonek;
pos = (758,0);
},
{
name = top;
pos = (463,700);
}
);
hints = (
{
horizontal = 1;
origin = (0,27);
target = up;
type = BottomGhost;
},
{
horizontal = 1;
origin = (0,26);
target = (0,9);
type = Stem;
},
{
horizontal = 1;
origin = (0,27);
target = (0,21);
type = Stem;
},
{
origin = (0,27);
target = (0,1);
type = Stem;
},
{
origin = (0,13);
target = (0,15);
type = Stem;
}
);
layerId = "610C2E7D-EDB4-4EC2-BEB5-F0DB9FB0A101";
shapes = (
{
closed = 1;
nodes = (
(165,0,l),
(165,376,ls),
(165,485,o),
(162,549,o),
(156,592,c),
(160,592,l),
(441,0,l),
(483,0,l),
(762,592,l),
(766,592,l),
(761,553,o),
(758,487,o),
(758,376,cs),
(758,0,l),
(841,0,l),
(841,700,l),
(730,700,l),
(541,306,ls),
(497,214,o),
(474,158,o),
(466,125,c),
(462,125,l),
(454,159,o),
(429,215,o),
(386,306,cs),
(199,700,l),
(82,700,l),
(82,0,l)
);
}
);
width = 923;
}
);
metricLeft = H;
metricRight = H;
unicode = 77;
},
{
glyphname = N;
kernLeft = H;
kernRight = H;
lastChange = "2025-10-14 05:04:25 +0000";
layers = (
{
anchors = (
{
name = bottom;
pos = (395,0);
},
{
name = ogonek;
pos = (676,0);
},
{
name = top;
pos = (386,700);
}
);
hints = (
{
horizontal = 1;
origin = (0,23);
target = up;
type = BottomGhost;
},
{
horizontal = 1;
origin = (0,22);
target = down;
type = TopGhost;
},
{
origin = (0,23);
target = (0,1);
type = Stem;
},
{
origin = (0,11);
target = (0,13);
type = Stem;
}
);
layerId = m006;
shapes = (
{
closed = 1;
nodes = (
(210,0,l),
(210,365,ls),
(210,417,o),
(208,455,o),
(204,491,c),
(207,491,l),
(214,473,o),
(234,440,o),
(251,421,cs),
(605,0,l),
(696,0,l),
(696,700,l),
(566,700,l),
(566,351,ls),
(566,284,o),
(570,246,o),
(574,221,c),
(570,221,l),
(563,240,o),
(544,276,o),
(527,295,cs),
(186,700,l),
(80,700,l),
(80,0,l)
);
}
);
width = 776;
},
{
anchors = (
{
name = bottom;
pos = (385,0);
},
{
name = ogonek;
pos = (666,0);
},
{
name = top;
pos = (376,700);
}
);
hints = (
{
horizontal = 1;
origin = (0,23);
target = up;
type = BottomGhost;
},
{
horizontal = 1;
origin = (0,22);
target = down;
type = TopGhost;
},
{
horizontal = 1;
origin = (0,23);
target = (0,17);
type = Stem;
},
{
origin = (0,23);
target = (0,1);
type = Stem;
},
{
origin = (0,12);
target = (0,11);
type = Stem;
}
);
layerId = "610C2E7D-EDB4-4EC2-BEB5-F0DB9FB0A101";
shapes = (
{
closed = 1;
nodes = (
(163,0,l),
(163,453,ls),
(163,512,o),
(161,551,o),
(157,574,c),
(160,574,l),
(164,562,o),
(180,537,o),
(201,511,cs),
(603,0,l),
(673,0,l),
(673,700,l),
(592,700,l),
(592,255,ls),
(592,182,o),
(594,151,o),
(599,130,c),
(595,130,l),
(591,142,o),
(569,175,o),
(550,199,cs),
(156,700,l),
(82,700,l),
(82,0,l)
);
}
);
width = 755;
}
);
metricLeft = H;
metricRight = H;
unicode = 78;
},
{
glyphname = Eng;
kernLeft = H;
kernRight = H;
lastChange = "2025-09-02 14:46:49 +0000";
layers = (
{
hints = (
{
horizontal = 1;
origin = (1,15);
target = (1,8);
type = Stem;
},
{
origin = (1,3);
target = (1,5);
type = Stem;
}
);
layerId = "610C2E7D-EDB4-4EC2-BEB5-F0DB9FB0A101";
shapes = (
{
ref = N;
},
{
closed = 1;
nodes = (
(607,-230,o),
(673,-161,o),
(673,-35,cs),
(673,0,l),
(592,122,l),
(592,-32,ls),
(592,-109,o),
(552,-152,o),
(491,-152,cs),
(458,-152,o),
(430,-144,o),
(408,-118,c),
(351,-186,l),
(388,-223,o),
(437,-234,o),
(494,-233,cs)
);
}
);
width = 755;
},
{
background = {
shapes = (
{
closed = 1;
nodes = (
(505,-228,o),
(522,-230,o),
(537,-230,cs),
(640,-230,o),
(696,-182,o),
(696,-69,cs),
(696,94,l),
(575,90,l),
(575,-62,ls),
(575,-89,o),
(554,-110,o),
(524,-110,cs),
(514,-110,o),
(500,-108,o),
(493,-106,c),
(493,-226,l)
);
},
{
closed = 1;
nodes = (
(640,-233,o),
(696,-170,o),
(696,-67,cs),
(696,0,l),
(575,216,l),
(575,-60,ls),
(575,-93,o),
(559,-110,o),
(530,-110,cs),
(514,-110,o),
(502,-108,o),
(485,-103,c),
(470,-223,l),
(495,-230,o),
(521,-233,o),
(537,-233,cs)
);
}
);
};
hints = (
{
horizontal = 1;
origin = (1,15);
target = (1,8);
type = Stem;
},
{
origin = (1,3);
target = (1,5);
type = Stem;
}
);
layerId = m006;
shapes = (
{
ref = N;
},
{
closed = 1;
nodes = (
(620,-229,o),
(696,-160,o),
(696,-16,cs),
(696,0,l),
(566,206,l),
(566,-25,ls),
(566,-71,o),
(534,-99,o),
(494,-99,cs),
(459,-99,o),
(433,-80,o),
(417,-59,c),
(330,-174,l),
(367,-208,o),
(420,-229,o),
(480,-229,cs)
);
}
);
width = 776;
}
);
metricLeft = H;
metricRight = H;
unicode = 330;
},
{
color = 5;
glyphname = O;
kernLeft = O;
kernRight = O;
lastChange = "2025-10-26 22:49:08 +0000";
layers = (
{
anchors = (
{
name = bottom;
pos = (390,0);
},
{
name = center;
pos = (383,338);
},
{
name = ogonek;
pos = (490,0);
},
{
name = top;
pos = (390,700);
},
{
name = topright;
pos = (600,700);
}
);
hints = (
{
horizontal = 1;
origin = (0,11);
target = (1,11);
type = Stem;
},
{
horizontal = 1;
origin = (0,5);
target = (1,5);
type = Stem;
},
{
origin = (0,8);
target = (1,2);
type = Stem;
},
{
origin = (1,8);
target = (0,2);
type = Stem;
}
);
layerId = m006;
shapes = (
{
closed = 1;
nodes = (
(600,-13,o),
(752,142,o),
(752,349,cs),
(752,557,o),
(600,713,o),
(397,713,cs),
(194,713,o),
(42,557,o),
(42,349,cs),
(42,142,o),
(194,-13,o),
(397,-13,cs)
);
},
{
closed = 1;
nodes = (
(281,125,o),
(185,202,o),
(185,349,cs),
(185,496,o),
(281,575,o),
(397,575,cs),
(512,575,o),
(609,496,o),
(609,349,cs),
(609,202,o),
(512,125,o),
(397,125,cs)
);
}
);
width = 794;
},
{
anchors = (
{
name = bottom;
pos = (390,0);
},
{
name = center;
pos = (383,338);
},
{
name = ogonek;
pos = (486,0);
},
{
name = top;
pos = (390,700);
},
{
name = topright;
pos = (595,700);
}
);
hints = (
{
horizontal = 1;
origin = (0,11);
target = (1,11);
type = Stem;
},
{
horizontal = 1;
origin = (0,5);
target = (1,5);
type = Stem;
},
{
origin = (0,8);
target = (1,2);
type = Stem;
},
{
origin = (1,8);
target = (0,2);
type = Stem;
}
);
layerId = "610C2E7D-EDB4-4EC2-BEB5-F0DB9FB0A101";
shapes = (
{
closed = 1;
nodes = (
(595,-13,o),
(737,150,o),
(737,350,cs),
(737,552,o),
(595,713,o),
(389,713,cs),
(183,713,o),
(41,550,o),
(41,349,cs),
(41,148,o),
(183,-13,o),
(389,-13,cs)
);
},
{
closed = 1;
nodes = (
(231,63,o),
(125,178,o),
(125,349,cs),
(125,520,o),
(231,637,o),
(389,637,cs),
(548,637,o),
(653,521,o),
(653,350,cs),
(653,179,o),
(548,63,o),
(389,63,cs)
);
}
);
width = 778;
}
);
unicode = 79;
},
{
glyphname = OE;
kernLeft = O;
kernRight = E;
lastChange = "2025-09-06 02:18:22 +0000";
layers = (
{
anchors = (
{
name = bottom;
pos = (653,0);
},
{
name = top;
pos = (653,700);
}
);
background = {
anchors = (
{
name = bottom;
pos = (390,0);
},
{
name = center;
pos = (383,338);
},
{
name = ogonek;
pos = (486,0);
},
{
name = top;
pos = (390,700);
},
{
name = topright;
pos = (595,700);
}
);
hints = (
{
horizontal = 1;
origin = (0,11);
target = (1,11);
type = Stem;
},
{
horizontal = 1;
origin = (0,5);
target = (1,5);
type = Stem;
},
{
origin = (0,8);
target = (1,2);
type = Stem;
},
{
origin = (1,8);
target = (0,2);
type = Stem;
}
);
shapes = (
{
closed = 1;
nodes = (
(595,-13,o),
(737,150,o),
(737,350,cs),
(737,552,o),
(595,713,o),
(389,713,cs),
(183,713,o),
(41,550,o),
(41,349,cs),
(41,148,o),
(183,-13,o),
(389,-13,cs)
);
},
{
closed = 1;
nodes = (
(231,63,o),
(125,178,o),
(125,349,cs),
(125,520,o),
(231,637,o),
(389,637,cs),
(548,637,o),
(653,521,o),
(653,350,cs),
(653,179,o),
(548,63,o),
(389,63,cs)
);
}
);
};
layerId = "610C2E7D-EDB4-4EC2-BEB5-F0DB9FB0A101";
shapes = (
{
closed = 1;
nodes = (
(627,113,l),
(662,113,l),
(666,587,l),
(638,587,l),
(692,492,l),
(642,634,o),
(544,713,o),
(389,713,cs),
(183,713,o),
(41,550,o),
(41,349,cs),
(41,148,o),
(183,-13,o),
(389,-13,cs),
(544,-13,o),
(642,67,o),
(692,203,c)
);
},
{
closed = 1;
nodes = (
(231,63,o),
(125,178,o),
(125,349,cs),
(125,520,o),
(231,637,o),
(389,637,cs),
(548,637,o),
(653,529,o),
(653,350,cs),
(653,179,o),
(548,63,o),
(389,63,cs)
);
},
{
pos = (571,0);
ref = E;
}
);
width = 1121;
},
{
anchors = (
{
name = bottom;
pos = (609,0);
},
{
name = top;
pos = (609,700);
}
);
background = {
anchors = (
{
name = bottom;
pos = (405,0);
},
{
name = center;
pos = (398,338);
},
{
name = ogonek;
pos = (505,0);
},
{
name = top;
pos = (405,700);
},
{
name = topright;
pos = (615,700);
}
);
hints = (
{
horizontal = 1;
place = (-13,138);
type = Stem;
},
{
horizontal = 1;
place = (713,138);
type = Stem;
},
{
place = (42,143);
type = Stem;
},
{
place = (609,143);
type = Stem;
},
{
horizontal = 1;
place = (0,135);
type = Stem;
},
{
horizontal = 1;
place = (287,135);
type = Stem;
},
{
horizontal = 1;
place = (700,135);
type = Stem;
},
{
place = (598,140);
type = Stem;
},
{
horizontal = 1;
origin = (0,11);
target = (1,11);
type = Stem;
},
{
horizontal = 1;
origin = (0,5);
target = (1,5);
type = Stem;
},
{
origin = (0,8);
target = (1,2);
type = Stem;
},
{
origin = (1,8);
target = (0,2);
type = Stem;
}
);
shapes = (
{
closed = 1;
nodes = (
(600,-13,o),
(752,142,o),
(752,349,cs),
(752,557,o),
(600,713,o),
(397,713,cs),
(194,713,o),
(42,557,o),
(42,349,cs),
(42,142,o),
(194,-13,o),
(397,-13,cs)
);
},
{
closed = 1;
nodes = (
(281,125,o),
(185,202,o),
(185,349,cs),
(185,496,o),
(281,575,o),
(397,575,cs),
(512,575,o),
(609,496,o),
(609,349,cs),
(609,202,o),
(512,125,o),
(397,125,cs)
);
}
);
};
layerId = m006;
shapes = (
{
closed = 1;
nodes = (
(588,69,l),
(612,69,l),
(620,630,l),
(589,630,l),
(655,549,l),
(613,648,o),
(529,713,o),
(392,713,cs),
(194,713,o),
(42,550,o),
(42,349,cs),
(42,149,o),
(194,-13,o),
(392,-13,cs),
(529,-13,o),
(613,52,o),
(655,150,c)
);
},
{
closed = 1;
nodes = (
(281,125,o),
(185,202,o),
(185,349,cs),
(185,496,o),
(281,575,o),
(397,575,cs),
(512,575,o),
(609,496,o),
(609,349,cs),
(609,202,o),
(512,125,o),
(397,125,cs)
);
},
{
pos = (529,0);
ref = E;
}
);
width = 1090;
}
);
metricLeft = O;
metricRight = E;
unicode = 338;
},
{
glyphname = P;
kernLeft = H;
kernRight = P;
lastChange = "2025-10-19 19:25:56 +0000";
layers = (
{
anchors = (
{
name = bottom;
pos = (150,0);
},
{
name = ogonek;
pos = (220,0);
},
{
name = top;
pos = (315,700);
}
);
background = {
shapes = (
{
closed = 1;
nodes = (
(164,0,l),
(164,330,l),
(130,297,l),
(306,297,ls),
(433,297,o),
(534,363,o),
(534,500,cs),
(534,636,o),
(432,702,o),
(306,701,cs),
(82,700,l),
(82,0,l)
);
},
{
closed = 1;
nodes = (
(164,660,l),
(130,625,l),
(298,625,ls),
(388,625,o),
(449,592,o),
(449,500,cs),
(449,406,o),
(388,373,o),
(298,373,cs),
(130,373,l),
(164,339,l)
);
}
);
};
hints = (
{
horizontal = 1;
origin = (0,10);
target = up;
type = BottomGhost;
},
{
horizontal = 1;
origin = (0,2);
target = (1,8);
type = Stem;
},
{
horizontal = 1;
origin = (0,9);
target = (1,1);
type = Stem;
},
{
origin = (0,10);
target = (1,8);
type = Stem;
},
{
origin = (1,4);
target = (0,5);
type = Stem;
}
);
layerId = m006;
shapes = (
{
closed = 1;
nodes = (
(220,0,l),
(220,244,l),
(326,244,ls),
(483,244,o),
(579,323,o),
(579,471,cs),
(579,618,o),
(483,700,o),
(326,700,cs),
(80,700,l),
(80,0,l)
);
},
{
closed = 1;
nodes = (
(220,565,l),
(318,565,ls),
(394,565,o),
(437,536,o),
(437,470,cs),
(437,403,o),
(394,379,o),
(318,379,cs),
(220,379,l)
);
}
);
width = 619;
},
{
anchors = (
{
name = bottom;
pos = (123,0);
},
{
name = ogonek;
pos = (164,0);
},
{
name = top;
pos = (285,700);
}
);
hints = (
{
horizontal = 1;
origin = (0,10);
target = up;
type = BottomGhost;
},
{
horizontal = 1;
origin = (0,2);
target = (1,8);
type = Stem;
},
{
horizontal = 1;
origin = (0,8);
target = (1,1);
type = Stem;
},
{
origin = (0,10);
target = (1,8);
type = Stem;
},
{
origin = (1,4);
target = (0,5);
type = Stem;
}
);
layerId = "610C2E7D-EDB4-4EC2-BEB5-F0DB9FB0A101";
shapes = (
{
closed = 1;
nodes = (
(164,0,l),
(164,297,l),
(306,297,ls),
(433,297,o),
(534,363,o),
(534,500,cs),
(534,636,o),
(432,700,o),
(306,700,cs),
(82,700,l),
(82,0,l)
);
},
{
closed = 1;
nodes = (
(164,624,l),
(298,624,ls),
(388,624,o),
(449,592,o),
(449,500,cs),
(449,406,o),
(388,373,o),
(298,373,cs),
(164,373,l)
);
}
);
width = 576;
}
);
metricLeft = H;
unicode = 80;
},
{
glyphname = Thorn;
kernLeft = H;
kernRight = Thorn;
lastChange = "2025-10-27 01:13:43 +0000";
layers = (
{
anchors = (
{
name = bottom;
pos = (300,0);
},
{
name = top;
pos = (300,700);
}
);
hints = (
{
horizontal = 1;
origin = (0,12);
target = up;
type = BottomGhost;
},
{
horizontal = 1;
origin = (0,2);
target = (1,8);
type = Stem;
},
{
horizontal = 1;
origin = (1,1);
target = (0,9);
type = Stem;
},
{
horizontal = 1;
origin = (0,11);
target = down;
type = TopGhost;
},
{
origin = (0,12);
target = (1,8);
type = Stem;
},
{
origin = (1,4);
target = (0,5);
type = Stem;
}
);
layerId = "610C2E7D-EDB4-4EC2-BEB5-F0DB9FB0A101";
shapes = (
{
closed = 1;
nodes = (
(164,0,l),
(164,150,l),
(306,150,ls),
(433,150,o),
(534,216,o),
(534,353,cs),
(534,489,o),
(432,553,o),
(306,553,cs),
(164,553,l),
(164,700,l),
(82,700,l),
(82,0,l)
);
},
{
closed = 1;
nodes = (
(164,477,l),
(298,477,ls),
(388,477,o),
(449,445,o),
(449,353,cs),
(449,259,o),
(388,226,o),
(298,226,cs),
(164,226,l)
);
}
);
width = 576;
},
{
anchors = (
{
name = bottom;
pos = (300,0);
},
{
name = top;
pos = (300,700);
}
);
background = {
anchors = (
{
name = bottom;
pos = (120,0);
},
{
name = ogonek;
pos = (190,0);
},
{
name = top;
pos = (120,700);
}
);
shapes = (
{
closed = 1;
nodes = (
(190,0,l),
(190,119,l),
(287,119,ls),
(444,119,o),
(540,204,o),
(540,352,cs),
(540,499,o),
(444,582,o),
(287,582,cs),
(188,582,l),
(188,700,l),
(50,700,l),
(50,0,l)
);
},
{
closed = 1;
nodes = (
(190,456,l),
(279,456,ls),
(355,456,o),
(398,422,o),
(398,351,cs),
(398,279,o),
(355,245,o),
(279,245,cs),
(190,245,l)
);
}
);
};
hints = (
{
horizontal = 1;
origin = (0,12);
target = up;
type = BottomGhost;
},
{
horizontal = 1;
origin = (0,2);
target = (1,8);
type = Stem;
},
{
horizontal = 1;
origin = (1,1);
target = (0,9);
type = Stem;
},
{
horizontal = 1;
origin = (0,11);
target = down;
type = TopGhost;
},
{
origin = (0,12);
target = (1,8);
type = Stem;
},
{
origin = (1,4);
target = (0,5);
type = Stem;
}
);
layerId = m006;
shapes = (
{
closed = 1;
nodes = (
(220,0,l),
(220,124,l),
(326,124,ls),
(483,124,o),
(579,203,o),
(579,351,cs),
(579,498,o),
(483,580,o),
(326,580,cs),
(220,580,l),
(220,700,l),
(80,700,l),
(80,0,l)
);
},
{
closed = 1;
nodes = (
(220,445,l),
(318,445,ls),
(394,445,o),
(437,416,o),
(437,350,cs),
(437,283,o),
(394,259,o),
(318,259,cs),
(220,259,l)
);
}
);
width = 619;
}
);
metricLeft = H;
unicode = 222;
},
{
glyphname = Q;
kernLeft = O;
kernRight = O;
lastChange = "2025-10-26 21:13:57 +0000";
layers = (
{
layerId = m006;
shapes = (
{
ref = O;
},
{
closed = 1;
nodes = (
(730,-57,l),
(592,150,l),
(587,172,l),
(529,258,l),
(377,258,l),
(488,91,l),
(491,71,l),
(578,-57,l)
);
}
);
width = 794;
},
{
layerId = "610C2E7D-EDB4-4EC2-BEB5-F0DB9FB0A101";
shapes = (
{
alignment = -1;
ref = O;
},
{
closed = 1;
nodes = (
(706,-58,l),
(598,105,l),
(592,127,l),
(503,257,l),
(416,257,l),
(537,76,l),
(542,56,l),
(619,-58,l)
);
}
);
width = 778;
}
);
metricLeft = O;
unicode = 81;
},
{
glyphname = R;
kernLeft = H;
kernRight = R;
lastChange = "2025-10-17 01:08:24 +0000";
layers = (
{
anchors = (
{
name = bottom;
pos = (333,0);
},
{
name = ogonek;
pos = (442,0);
},
{
name = top;
pos = (308,700);
}
);
background = {
shapes = (
{
closed = 1;
nodes = (
(116,0,l),
(116,293,l),
(293,293,l),
(297,298,l),
(414,298,o),
(519,368,o),
(519,498,cs),
(519,627,o),
(414,702,o),
(266,701,cs),
(60,700,l),
(60,0,l)
);
},
{
closed = 1;
nodes = (
(522,0,l),
(319,317,l),
(250,317,l),
(256,307,l),
(276,275,o),
(288,256,o),
(300,237,cs),
(449,0,l)
);
},
{
closed = 1;
nodes = (
(116,651,l),
(259,651,ls),
(392,651,o),
(461,604,o),
(461,498,cs),
(461,389,o),
(392,343,o),
(259,343,cs),
(116,343,l)
);
},
{
ref = H;
}
);
};
hints = (
{
horizontal = 1;
origin = (0,16);
target = up;
type = BottomGhost;
},
{
horizontal = 1;
origin = (0,2);
target = (1,8);
type = Stem;
},
{
horizontal = 1;
origin = (0,15);
target = (1,1);
type = Stem;
},
{
origin = (0,16);
target = (1,8);
type = Stem;
},
{
origin = (1,4);
target = (0,11);
type = Stem;
},
{
origin = (0,2);
target = (0,7);
type = Stem;
}
);
layerId = m006;
shapes = (
{
closed = 1;
nodes = (
(220,0,l),
(220,281,l),
(264,281,l),
(272,256,o),
(283,237,o),
(293,222,cs),
(442,0,l),
(607,0,l),
(411,295,l),
(514,317,o),
(579,385,o),
(579,490,cs),
(579,617,o),
(483,700,o),
(338,700,cs),
(80,700,l),
(80,0,l)
);
},
{
closed = 1;
nodes = (
(220,565,l),
(317,565,ls),
(399,565,o),
(437,545,o),
(437,489,cs),
(437,432,o),
(399,411,o),
(317,411,cs),
(220,411,l)
);
}
);
width = 631;
},
{
anchors = (
{
name = bottom;
pos = (295,0);
},
{
name = ogonek;
pos = (451,0);
},
{
name = top;
pos = (270,700);
}
);
hints = (
{
horizontal = 1;
origin = (0,16);
target = up;
type = BottomGhost;
},
{
horizontal = 1;
origin = (0,2);
target = (1,8);
type = Stem;
},
{
horizontal = 1;
origin = (0,15);
target = (1,1);
type = Stem;
},
{
origin = (0,16);
target = (1,8);
type = Stem;
},
{
origin = (1,4);
target = (0,11);
type = Stem;
},
{
origin = (0,2);
target = (0,7);
type = Stem;
}
);
layerId = "610C2E7D-EDB4-4EC2-BEB5-F0DB9FB0A101";
shapes = (
{
closed = 1;
nodes = (
(164,0,l),
(164,303,l),
(258,303,l),
(273,276,o),
(285,256,o),
(296,239,cs),
(451,0,l),
(552,0,l),
(351,310,l),
(447,322,o),
(534,387,o),
(534,503,cs),
(534,635,o),
(426,700,o),
(299,700,cs),
(82,700,l),
(82,0,l)
);
},
{
closed = 1;
nodes = (
(164,624,l),
(287,624,ls),
(383,624,o),
(448,592,o),
(448,503,cs),
(448,411,o),
(383,379,o),
(287,379,cs),
(164,379,l)
);
}
);
width = 578;
}
);
metricLeft = H;
unicode = 82;
},
{
glyphname = S;
kernLeft = S;
kernRight = S;
lastChange = "2025-10-26 21:26:14 +0000";
layers = (
{
anchors = (
{
name = bottom;
pos = (308,0);
},
{
name = ogonek;
pos = (408,0);
},
{
name = top;
pos = (328,700);
}
);
hints = (
{
horizontal = 1;
origin = (0,31);
target = (0,24);
type = Stem;
},
{
horizontal = 1;
origin = (0,15);
target = (0,8);
type = Stem;
},
{
origin = (0,18);
target = (0,5);
type = Stem;
},
{
origin = (0,21);
target = (0,2);
type = Stem;
}
);
layerId = m006;
shapes = (
{
closed = 1;
nodes = (
(467,-13,o),
(564,73,o),
(564,200,cs),
(564,451,o),
(235,397,o),
(235,506,cs),
(235,554,o),
(270,579,o),
(330,579,cs),
(380,579,o),
(413,556,o),
(444,504,c),
(560,584,l),
(504,663,o),
(442,712,o),
(333,712,cs),
(185,712,o),
(84,629,o),
(84,503,cs),
(84,254,o),
(413,331,o),
(413,198,cs),
(413,152,o),
(372,121,o),
(311,121,cs),
(253,121,o),
(204,147,o),
(166,214,c),
(45,130,l),
(111,26,o),
(197,-13,o),
(308,-13,cs)
);
}
);
width = 616;
},
{
anchors = (
{
name = bottom;
pos = (292,0);
},
{
name = ogonek;
pos = (381,0);
},
{
name = top;
pos = (307,700);
}
);
background = {
shapes = (
{
closed = 1;
nodes = (
(-713,687,o),
(-626,773,o),
(-626,880,cs),
(-626,1134,o),
(-981,1070,o),
(-981,1232,cs),
(-981,1282,o),
(-936,1337,o),
(-846,1337,cs),
(-784,1337,o),
(-735,1304,o),
(-698,1245,c),
(-631,1291,l),
(-676,1361,o),
(-742,1413,o),
(-843,1413,cs),
(-987,1413,o),
(-1065,1316,o),
(-1065,1230,cs),
(-1065,989,o),
(-711,1059,o),
(-711,874,cs),
(-711,807,o),
(-771,763,o),
(-852,763,cs),
(-931,763,o),
(-990,796,o),
(-1038,869,c),
(-1103,822,l),
(-1049,737,o),
(-963,687,o),
(-858,687,cs)
);
},
{
closed = 1;
nodes = (
(-258,687,o),
(-171,778,o),
(-171,885,cs),
(-171,1128,o),
(-526,1052,o),
(-526,1225,cs),
(-526,1288,o),
(-481,1338,o),
(-391,1338,cs),
(-329,1338,o),
(-280,1311,o),
(-244,1253,c),
(-176,1297,l),
(-221,1367,o),
(-287,1413,o),
(-388,1413,cs),
(-532,1413,o),
(-610,1322,o),
(-610,1221,cs),
(-610,981,o),
(-256,1060,o),
(-256,881,cs),
(-256,810,o),
(-316,763,o),
(-397,763,cs),
(-476,763,o),
(-535,796,o),
(-580,868,c),
(-648,822,l),
(-594,737,o),
(-508,687,o),
(-403,687,cs)
);
},
{
closed = 1;
nodes = (
(373,-13,o),
(461,29,o),
(521,102,c),
(461,151,l),
(410,93,o),
(352,63,o),
(262,63,cs),
(111,63,o),
(-12,182,o),
(-12,349,cs),
(-12,515,o),
(101,637,o),
(259,637,cs),
(335,637,o),
(403,615,o),
(454,551,c),
(515,603,l),
(452,678,o),
(366,713,o),
(259,713,cs),
(55,713,o),
(-99,553,o),
(-99,349,cs),
(-99,145,o),
(57,-13,o),
(259,-13,cs)
);
},
{
closed = 1;
nodes = (
(525,-13,o),
(681,145,o),
(681,349,cs),
(681,553,o),
(527,713,o),
(323,713,cs),
(216,713,o),
(130,678,o),
(67,603,c),
(128,551,l),
(179,615,o),
(247,637,o),
(323,637,cs),
(481,637,o),
(594,515,o),
(594,349,cs),
(594,182,o),
(471,63,o),
(320,63,cs),
(230,63,o),
(172,93,o),
(121,151,c),
(61,102,l),
(121,29,o),
(209,-13,o),
(323,-13,cs)
);
},
{
closed = 1;
nodes = (
(424,-13,o),
(524,63,o),
(524,189,cs),
(524,432,o),
(169,364,o),
(169,530,cs),
(169,592,o),
(217,638,o),
(304,638,cs),
(364,638,o),
(415,608,o),
(451,550,c),
(519,594,l),
(474,664,o),
(406,713,o),
(305,713,cs),
(166,713,o),
(85,619,o),
(85,525,cs),
(85,285,o),
(439,357,o),
(439,184,cs),
(439,102,o),
(372,63,o),
(299,63,cs),
(220,63,o),
(160,96,o),
(115,168,c),
(47,122,l),
(101,37,o),
(188,-13,o),
(293,-13,cs)
);
}
);
};
hints = (
{
horizontal = 1;
origin = (0,31);
target = (0,24);
type = Stem;
},
{
horizontal = 1;
origin = (0,15);
target = (0,8);
type = Stem;
},
{
origin = (0,18);
target = (0,5);
type = Stem;
},
{
origin = (0,21);
target = (0,2);
type = Stem;
}
);
layerId = "610C2E7D-EDB4-4EC2-BEB5-F0DB9FB0A101";
shapes = (
{
closed = 1;
nodes = (
(424,-13,o),
(524,63,o),
(524,189,cs),
(524,432,o),
(169,364,o),
(169,530,cs),
(169,592,o),
(217,638,o),
(304,638,cs),
(364,638,o),
(414,607,o),
(450,549,c),
(519,594,l),
(474,664,o),
(406,713,o),
(305,713,cs),
(166,713,o),
(85,619,o),
(85,525,cs),
(85,285,o),
(439,357,o),
(439,184,cs),
(439,102,o),
(372,63,o),
(299,63,cs),
(220,63,o),
(162,98,o),
(117,170,c),
(47,122,l),
(101,37,o),
(188,-13,o),
(293,-13,cs)
);
}
);
width = 583;
}
);
unicode = 83;
},
{
glyphname = Germandbls;
kernLeft = H;
kernRight = B;
lastChange = "2025-10-19 17:53:32 +0000";
layers = (
{
background = {
shapes = (
{
closed = 1;
nodes = (
(594,-13,o),
(694,63,o),
(694,189,cs),
(694,307,o),
(583,364,o),
(474,406,c),
(474,408,l),
(642,696,l),
(642,700,l),
(82,700,l),
(82,0,l),
(164,0,l),
(164,624,l),
(521,624,l),
(521,621,l),
(512,611,o),
(503,600,o),
(491,580,cs),
(368,370,l),
(368,357,l),
(479,322,o),
(609,295,o),
(609,187,cs),
(609,105,o),
(542,63,o),
(469,63,cs),
(390,63,o),
(330,96,o),
(285,168,c),
(217,122,l),
(271,37,o),
(358,-13,o),
(463,-13,cs)
);
}
);
};
layerId = "610C2E7D-EDB4-4EC2-BEB5-F0DB9FB0A101";
shapes = (
{
closed = 1;
nodes = (
(567,-13,o),
(658,71,o),
(658,206,cs),
(658,315,o),
(587,411,o),
(451,420,c),
(451,422,l),
(602,696,l),
(602,700,l),
(82,700,l),
(82,0,l),
(164,0,l),
(164,624,l),
(472,624,l),
(472,621,l),
(464,611,o),
(456,600,o),
(446,580,cs),
(328,370,l),
(328,357,l),
(487,384,o),
(574,307,o),
(574,204,cs),
(574,116,o),
(519,63,o),
(411,63,cs),
(377,63,o),
(354,66,o),
(320,78,c),
(320,3,l),
(343,-9,o),
(377,-13,o),
(408,-13,cs)
);
}
);
width = 684;
},
{
background = {
shapes = (
{
closed = 1;
nodes = (
(673,-13,o),
(772,73,o),
(772,216,cs),
(772,323,o),
(691,377,o),
(612,402,c),
(612,406,l),
(783,685,l),
(783,700,l),
(80,700,l),
(80,0,l),
(220,0,l),
(220,565,l),
(557,564,l),
(557,562,l),
(545,551,o),
(536,538,o),
(526,522,cs),
(415,349,l),
(415,341,l),
(508,301,o),
(629,294,o),
(629,203,cs),
(629,152,o),
(578,121,o),
(517,121,cs),
(459,121,o),
(401,142,o),
(363,209,c),
(251,130,l),
(317,26,o),
(403,-13,o),
(514,-13,cs)
);
},
{
closed = 1;
nodes = (
(567,-13,o),
(658,71,o),
(658,206,cs),
(658,315,o),
(587,411,o),
(451,420,c),
(451,422,l),
(602,696,l),
(602,700,l),
(82,700,l),
(82,0,l),
(164,0,l),
(164,624,l),
(472,624,l),
(472,621,l),
(464,611,o),
(456,600,o),
(446,580,cs),
(328,370,l),
(328,357,l),
(487,384,o),
(574,307,o),
(574,204,cs),
(574,116,o),
(519,63,o),
(411,63,cs),
(377,63,o),
(354,66,o),
(320,78,c),
(320,3,l),
(343,-9,o),
(377,-13,o),
(408,-13,cs)
);
}
);
};
layerId = m006;
shapes = (
{
closed = 1;
nodes = (
(607,-13,o),
(698,100,o),
(698,212,cs),
(698,284,o),
(665,384,o),
(549,406,c),
(549,410,l),
(707,685,l),
(707,700,l),
(80,700,l),
(80,0,l),
(220,0,l),
(220,565,l),
(491,565,l),
(491,563,l),
(480,552,o),
(472,538,o),
(463,522,cs),
(365,349,l),
(365,341,l),
(511,352,o),
(564,280,o),
(564,215,cs),
(564,140,o),
(509,108,o),
(452,108,cs),
(415,108,o),
(383,116,o),
(358,123,c),
(358,4,l),
(383,-8,o),
(430,-13,o),
(457,-13,cs)
);
}
);
width = 731;
}
);
metricLeft = H;
metricRight = R;
unicode = 7838;
},
{
glyphname = T;
kernLeft = T;
kernRight = T;
lastChange = "2025-10-27 04:08:41 +0000";
layers = (
{
anchors = (
{
name = bottom;
pos = (315,0);
},
{
name = center;
pos = (315,323);
},
{
name = ogonek;
pos = (289,0);
},
{
name = top;
pos = (315,700);
}
);
hints = (
{
horizontal = 1;
origin = (0,3);
target = up;
type = BottomGhost;
},
{
horizontal = 1;
origin = (1,2);
target = (1,0);
type = Stem;
},
{
origin = (0,3);
target = (0,1);
type = Stem;
}
);
layerId = m006;
shapes = (
{
closed = 1;
nodes = (
(385,0,l),
(385,635,l),
(245,635,l),
(245,0,l)
);
},
{
closed = 1;
nodes = (
(585,565,l),
(585,700,l),
(45,700,l),
(45,565,l)
);
}
);
width = 630;
},
{
anchors = (
{
name = bottom;
pos = (296,0);
},
{
name = center;
pos = (296,323);
},
{
name = ogonek;
pos = (337,0);
},
{
name = top;
pos = (296,700);
}
);
hints = (
{
horizontal = 1;
options = 4;
origin = (0,3);
type = TTSnap;
},
{
horizontal = 1;
options = 4;
origin = (1,2);
target = (1,0);
type = TTStem;
},
{
horizontal = 1;
origin = (0,3);
target = up;
type = BottomGhost;
},
{
horizontal = 1;
origin = (1,2);
target = (1,0);
type = Stem;
},
{
origin = (0,3);
target = (0,1);
type = Stem;
}
);
layerId = "610C2E7D-EDB4-4EC2-BEB5-F0DB9FB0A101";
shapes = (
{
closed = 1;
nodes = (
(337,0,l),
(337,661,l),
(255,661,l),
(255,0,l)
);
},
{
closed = 1;
nodes = (
(544,624,l),
(544,700,l),
(47,700,l),
(47,624,l)
);
}
);
width = 591;
}
);
unicode = 84;
},
{
glyphname = U;
kernLeft = U;
kernRight = U;
lastChange = "2025-10-26 21:00:34 +0000";
layers = (
{
anchors = (
{
name = bottom;
pos = (353,0);
},
{
name = ogonek;
pos = (352,0);
},
{
name = top;
pos = (353,684);
},
{
name = top_ring;
pos = (353,647);
},
{
name = topright;
pos = (644,700);
}
);
hints = (
{
horizontal = 1;
origin = (0,17);
target = (0,8);
type = Stem;
},
{
horizontal = 1;
origin = (0,13);
target = down;
type = TopGhost;
},
{
origin = (0,12);
target = (0,14);
type = Stem;
},
{
origin = (0,3);
target = (0,5);
type = Stem;
}
);
layerId = m006;
shapes = (
{
closed = 1;
nodes = (
(524,-13,o),
(636,99,o),
(636,259,cs),
(636,700,l),
(496,700,l),
(496,274,ls),
(496,175,o),
(449,117,o),
(353,117,cs),
(257,117,o),
(210,175,o),
(210,274,cs),
(210,700,l),
(70,700,l),
(70,259,ls),
(70,99,o),
(182,-13,o),
(353,-13,cs)
);
}
);
width = 706;
},
{
anchors = (
{
name = bottom;
pos = (348,0);
},
{
name = ogonek;
pos = (364,0);
},
{
name = top;
pos = (348,684);
},
{
name = top_ring;
pos = (348,647);
},
{
name = topright;
pos = (639,700);
}
);
hints = (
{
horizontal = 1;
origin = (0,17);
target = (0,8);
type = Stem;
},
{
horizontal = 1;
origin = (0,13);
target = down;
type = TopGhost;
},
{
origin = (0,14);
target = (0,11);
type = Stem;
},
{
origin = (0,5);
target = (0,2);
type = Stem;
}
);
layerId = "610C2E7D-EDB4-4EC2-BEB5-F0DB9FB0A101";
shapes = (
{
closed = 1;
nodes = (
(519,-13,o),
(625,100,o),
(625,266,cs),
(625,700,l),
(541,700,l),
(541,264,ls),
(541,136,o),
(471,64,o),
(348,64,cs),
(226,64,o),
(156,138,o),
(156,271,cs),
(156,700,l),
(72,700,l),
(72,259,ls),
(72,100,o),
(177,-13,o),
(348,-13,cs)
);
}
);
width = 697;
}
);
unicode = 85;
},
{
glyphname = V;
kernLeft = V;
kernRight = V;
lastChange = "2025-10-27 05:31:15 +0000";
layers = (
{
anchors = (
{
name = bottom;
pos = (362,0);
},
{
name = ogonek;
pos = (430,0);
},
{
name = top;
pos = (362,700);
}
);
background = {
shapes = (
{
closed = 1;
nodes = (
(524,700,l),
(464,534,l),
(449,493,l),
(367,273,ls),
(350,227,o),
(340,191,o),
(335,171,c),
(327,171,l),
(322,191,o),
(310,227,o),
(293,273,cs),
(211,493,l),
(196,534,l),
(136,700,l),
(-16,700,l),
(269,0,l),
(390,0,l),
(676,700,l)
);
},
{
closed = 1;
nodes = (
(147,561,l),
(147,451,l),
(526,451,l),
(526,561,l)
);
}
);
};
hints = (
{
horizontal = 1;
origin = (0,13);
target = (0,7);
type = Stem;
},
{
horizontal = 1;
origin = (0,12);
target = down;
type = TopGhost;
},
{
origin = (0,12);
target = (0,1);
type = Stem;
}
);
layerId = m006;
shapes = (
{
closed = 1;
nodes = (
(430,0,l),
(707,700,l),
(551,700,l),
(391,255,ls),
(384,236,o),
(370,196,o),
(366,171,c),
(358,171,l),
(354,196,o),
(339,236,o),
(332,255,cs),
(172,700,l),
(13,700,l),
(292,0,l)
);
}
);
width = 720;
},
{
anchors = (
{
name = bottom;
pos = (349,0);
},
{
name = ogonek;
pos = (380,0);
},
{
name = top;
pos = (349,700);
}
);
background = {
shapes = (
{
closed = 1;
nodes = (
(401,0,l),
(677,700,l),
(588,700,l),
(398,196,ls),
(381,153,o),
(374,127,o),
(367,100,c),
(362,100,l),
(355,127,o),
(347,155,o),
(331,196,cs),
(141,700,l),
(51,700,l),
(328,0,l)
);
},
{
closed = 1;
nodes = (
(451,0,l),
(451,289,l),
(681,700,l),
(586,700,l),
(478,493,ls),
(436,414,o),
(418,366,o),
(414,354,c),
(411,354,l),
(408,366,o),
(388,409,o),
(343,492,cs),
(229,700,l),
(134,700,l),
(367,290,l),
(367,0,l)
);
},
{
ref = O;
}
);
};
hints = (
{
horizontal = 1;
origin = (0,13);
target = up;
type = BottomGhost;
},
{
horizontal = 1;
origin = (0,12);
target = down;
type = TopGhost;
},
{
origin = (0,12);
target = (0,1);
type = Stem;
}
);
layerId = "610C2E7D-EDB4-4EC2-BEB5-F0DB9FB0A101";
shapes = (
{
closed = 1;
nodes = (
(380,0,l),
(677,700,l),
(578,700,l),
(382,206,ls),
(365,162,o),
(357,137,o),
(349,110,c),
(344,110,l),
(336,137,o),
(327,165,o),
(311,206,cs),
(115,700,l),
(15,700,l),
(313,0,l)
);
}
);
width = 692;
}
);
metricLeft = "=A+2";
metricRight = "=A+2";
unicode = 86;
},
{
glyphname = W;
kernLeft = W;
kernRight = W;
lastChange = "2025-10-27 03:57:20 +0000";
layers = (
{
anchors = (
{
name = bottom;
pos = (554,0);
},
{
name = top;
pos = (554,700);
}
);
hints = (
{
horizontal = 1;
origin = (0,33);
target = up;
type = BottomGhost;
},
{
horizontal = 1;
origin = (0,32);
target = down;
type = TopGhost;
},
{
horizontal = 1;
origin = (0,32);
target = (0,5);
type = Stem;
},
{
horizontal = 1;
origin = (0,33);
target = (0,27);
type = Stem;
},
{
origin = (0,32);
target = (0,11);
type = Stem;
}
);
layerId = m006;
shapes = (
{
closed = 1;
nodes = (
(383,0,l),
(525,395,ls),
(544,448,o),
(547,475,o),
(551,501,c),
(555,501,l),
(559,475,o),
(564,449,o),
(583,395,cs),
(725,0,l),
(851,0,l),
(1085,700,l),
(925,700,l),
(813,304,ls),
(796,250,o),
(792,224,o),
(787,198,c),
(783,198,l),
(778,224,o),
(775,250,o),
(756,304,cs),
(617,700,l),
(491,700,l),
(352,304,ls),
(335,250,o),
(330,224,o),
(325,198,c),
(321,198,l),
(316,224,o),
(310,249,o),
(295,304,cs),
(183,700,l),
(23,700,l),
(257,0,l)
);
}
);
width = 1108;
},
{
anchors = (
{
name = bottom;
pos = (517,0);
},
{
name = top;
pos = (517,700);
}
);
background = {
shapes = (
{
closed = 1;
nodes = (
(331,0,l),
(331,289,l),
(561,700,l),
(466,700,l),
(358,493,ls),
(316,414,o),
(298,366,o),
(294,354,c),
(291,354,l),
(288,366,o),
(268,409,o),
(223,492,cs),
(109,700,l),
(14,700,l),
(247,290,l),
(247,0,l)
);
},
{
closed = 1;
nodes = (
(781,0,l),
(781,289,l),
(1011,700,l),
(916,700,l),
(808,493,ls),
(766,414,o),
(748,366,o),
(744,354,c),
(741,354,l),
(738,366,o),
(718,409,o),
(673,492,cs),
(559,700,l),
(464,700,l),
(697,290,l),
(697,0,l)
);
},
{
closed = 1;
nodes = (
(323,0,l),
(488,488,ls),
(506,541,o),
(510,564,o),
(515,591,c),
(519,591,l),
(524,564,o),
(527,542,o),
(545,488,cs),
(707,0,l),
(776,0,l),
(1009,700,l),
(929,700,l),
(769,213,ls),
(752,160,o),
(749,135,o),
(744,109,c),
(740,109,l),
(735,135,o),
(732,159,o),
(714,213,cs),
(556,700,l),
(484,700,l),
(320,213,ls),
(302,160,o),
(299,135,o),
(294,109,c),
(290,109,l),
(285,135,o),
(281,159,o),
(264,213,cs),
(109,700,l),
(25,700,l),
(254,0,l)
);
}
);
};
hints = (
{
horizontal = 1;
origin = (0,33);
target = (0,27);
type = Stem;
},
{
horizontal = 1;
origin = (0,32);
target = down;
type = TopGhost;
},
{
horizontal = 1;
origin = (0,32);
target = (0,5);
type = Stem;
},
{
origin = (0,32);
target = (0,11);
type = Stem;
}
);
layerId = "610C2E7D-EDB4-4EC2-BEB5-F0DB9FB0A101";
shapes = (
{
closed = 1;
nodes = (
(330,0,l),
(488,488,ls),
(506,541,o),
(510,564,o),
(515,591,c),
(519,591,l),
(524,564,o),
(527,542,o),
(545,488,cs),
(701,0,l),
(783,0,l),
(1009,700,l),
(919,700,l),
(769,213,ls),
(752,160,o),
(749,135,o),
(744,109,c),
(740,109,l),
(735,135,o),
(732,159,o),
(714,213,cs),
(563,700,l),
(478,700,l),
(320,213,ls),
(302,160,o),
(299,135,o),
(294,109,c),
(290,109,l),
(285,135,o),
(281,159,o),
(264,213,cs),
(119,700,l),
(25,700,l),
(248,0,l)
);
}
);
width = 1034;
}
);
metricLeft = "=V+10";
metricRight = "=V+10";
unicode = 87;
},
{
glyphname = X;
lastChange = "2025-10-27 03:59:03 +0000";
layers = (
{
anchors = (
{
name = bottom;
pos = (334,0);
},
{
name = top;
pos = (334,700);
}
);
background = {
shapes = (
{
closed = 1;
nodes = (
(156,0,l),
(308,236,l),
(304,236,l),
(452,0,l),
(621,0,l),
(356,401,l),
(370,314,l),
(610,700,l),
(447,700,l),
(304,466,l),
(307,466,l),
(168,700,l),
(1,700,l),
(243,314,l),
(253,401,l),
(-10,0,l)
);
}
);
};
hints = (
{
horizontal = 1;
origin = (0,13);
target = up;
type = BottomGhost;
},
{
horizontal = 1;
origin = (0,11);
target = down;
type = TopGhost;
}
);
layerId = m006;
shapes = (
{
closed = 1;
nodes = (
(186,0,l),
(334,235,l),
(338,235,l),
(482,0,l),
(651,0,l),
(421,348,l),
(640,700,l),
(477,700,l),
(338,465,l),
(334,465,l),
(198,700,l),
(31,700,l),
(250,351,l),
(20,0,l)
);
}
);
width = 668;
},
{
anchors = (
{
name = bottom;
pos = (323,0);
},
{
name = top;
pos = (323,700);
}
);
hints = (
{
origin = (0,13);
target = (0,4);
type = Stem;
}
);
layerId = "610C2E7D-EDB4-4EC2-BEB5-F0DB9FB0A101";
shapes = (
{
closed = 1;
nodes = (
(125,0,l),
(323,284,l),
(327,284,l),
(521,0,l),
(626,0,l),
(378,348,l),
(615,700,l),
(516,700,l),
(327,415,l),
(323,415,l),
(137,700,l),
(33,700,l),
(272,351,l),
(22,0,l)
);
}
);
width = 645;
}
);
unicode = 88;
},
{
glyphname = Y;
kernLeft = Y;
kernRight = Y;
lastChange = "2025-10-27 03:58:57 +0000";
layers = (
{
anchors = (
{
name = bottom;
pos = (313,0);
},
{
name = top;
pos = (313,700);
},
{
name = topleft;
pos = (20,700);
}
);
background = {
shapes = (
{
closed = 1;
nodes = (
(351,0,l),
(351,278,l),
(588,700,l),
(435,700,l),
(330,499,ls),
(311,463,o),
(291,424,o),
(283,397,c),
(288,397,l),
(280,424,o),
(257,464,o),
(238,499,cs),
(128,700,l),
(-26,700,l),
(211,281,l),
(211,0,l)
);
}
);
};
hints = (
{
horizontal = 1;
origin = (0,15);
target = up;
type = BottomGhost;
},
{
horizontal = 1;
origin = (0,13);
target = down;
type = TopGhost;
},
{
origin = (0,15);
target = (0,4);
type = Stem;
}
);
layerId = m006;
shapes = (
{
closed = 1;
nodes = (
(381,0,l),
(381,278,l),
(618,700,l),
(465,700,l),
(381,539,ls),
(339,460,o),
(321,407,o),
(317,395,c),
(314,395,l),
(311,407,o),
(292,455,o),
(247,538,cs),
(158,700,l),
(4,700,l),
(241,281,l),
(241,0,l)
);
}
);
width = 622;
},
{
anchors = (
{
name = bottom;
pos = (281,0);
},
{
name = top;
pos = (282,700);
},
{
name = topleft;
pos = (20,700);
}
);
hints = (
{
horizontal = 1;
origin = (0,15);
target = up;
type = BottomGhost;
},
{
horizontal = 1;
origin = (0,13);
target = down;
type = TopGhost;
},
{
origin = (0,15);
target = (0,1);
type = Stem;
}
);
layerId = "610C2E7D-EDB4-4EC2-BEB5-F0DB9FB0A101";
shapes = (
{
closed = 1;
nodes = (
(322,0,l),
(322,289,l),
(553,700,l),
(457,700,l),
(348,493,ls),
(306,413,o),
(288,366,o),
(284,354,c),
(281,354,l),
(278,366,o),
(257,409,o),
(213,492,cs),
(102,700,l),
(6,700,l),
(240,290,l),
(240,0,l)
);
}
);
width = 559;
}
);
unicode = 89;
},
{
glyphname = Z;
kernLeft = Z;
kernRight = Z;
lastChange = "2025-10-27 03:58:52 +0000";
layers = (
{
anchors = (
{
name = bottom;
pos = (324,0);
},
{
name = center;
pos = (324,350);
},
{
name = top;
pos = (324,700);
}
);
background = {
shapes = (
{
closed = 1;
nodes = (
(174,400,l),
(174,523,l),
(-186,523,l),
(-186,502,l),
(-169,519,o),
(-155,537,o),
(-144,555,cs),
(174,1085,l),
(174,1100,l),
(-371,1100,l),
(-371,977,l),
(-30,977,l),
(-30,998,l),
(-47,981,o),
(-61,963,o),
(-72,945,cs),
(-390,415,l),
(-390,400,l)
);
},
{
closed = 1;
nodes = (
(604,0,l),
(604,123,l),
(256,123,l),
(256,125,l),
(273,139,o),
(285,152,o),
(303,181,cs),
(604,685,l),
(604,700,l),
(59,700,l),
(59,577,l),
(388,577,l),
(388,575,l),
(371,561,o),
(359,547,o),
(344,523,cs),
(40,15,l),
(40,0,l)
);
}
);
};
hints = (
{
horizontal = 1;
origin = (0,17);
target = (0,2);
type = Stem;
},
{
horizontal = 1;
origin = (0,9);
target = (0,11);
type = Stem;
}
);
layerId = m006;
shapes = (
{
closed = 1;
nodes = (
(604,0,l),
(604,133,l),
(268,133,l),
(268,135,l),
(282,149,o),
(293,164,o),
(303,181,cs),
(604,685,l),
(604,700,l),
(59,700,l),
(59,565,l),
(375,565,l),
(375,563,l),
(363,552,o),
(354,539,o),
(344,523,cs),
(40,15,l),
(40,0,l)
);
}
);
width = 648;
},
{
anchors = (
{
name = bottom;
pos = (320,0);
},
{
name = center;
pos = (320,350);
},
{
name = top;
pos = (320,700);
}
);
hints = (
{
horizontal = 1;
origin = (0,17);
target = (0,2);
type = Stem;
},
{
horizontal = 1;
origin = (0,9);
target = (0,11);
type = Stem;
}
);
layerId = "610C2E7D-EDB4-4EC2-BEB5-F0DB9FB0A101";
shapes = (
{
closed = 1;
nodes = (
(593,0,l),
(593,76,l),
(168,76,l),
(168,79,l),
(181,88,o),
(194,103,o),
(221,141,cs),
(593,685,l),
(593,700,l),
(61,700,l),
(61,624,l),
(460,624,l),
(460,621,l),
(447,612,o),
(434,597,o),
(409,560,cs),
(42,15,l),
(42,0,l)
);
}
);
width = 639;
}
);
unicode = 90;
},
{
glyphname = Saltillo;
lastChange = "2025-10-15 20:49:32 +0000";
layers = (
{
background = {
shapes = (
{
pos = (10,0);
ref = exclam;
}
);
};
layerId = "610C2E7D-EDB4-4EC2-BEB5-F0DB9FB0A101";
shapes = (
{
closed = 1;
nodes = (
(141,193,l),
(164,577,l),
(164,700,l),
(74,700,l),
(74,577,l),
(97,193,l)
);
}
);
width = 238;
},
{
layerId = m006;
shapes = (
{
closed = 1;
nodes = (
(191,193,l),
(214,577,l),
(214,700,l),
(74,700,l),
(74,577,l),
(97,193,l)
);
}
);
width = 288;
}
);
unicode = 42891;
},
{
glyphname = G.ss02;
kernLeft = O;
kernRight = G.ss02;
lastChange = "2025-10-26 21:30:50 +0000";
layers = (
{
anchors = (
{
name = bottom;
pos = (396,0);
},
{
name = ogonek;
pos = (523,9);
},
{
name = top;
pos = (396,700);
}
);
background = {
shapes = (
{
ref = O;
},
{
ref = C;
},
{
closed = 1;
nodes = (
(492,-13,o),
(583,6,o),
(685,98,c),
(685,367,l),
(363,367,l),
(363,295,l),
(633,296,l),
(609,318,l),
(609,95,l),
(633,152,l),
(551,83,o),
(494,63,o),
(397,63,cs),
(239,63,o),
(128,187,o),
(128,349,cs),
(128,511,o),
(230,637,o),
(397,637,cs),
(480,637,o),
(549,608,o),
(594,550,c),
(655,603,l),
(588,680,o),
(510,713,o),
(396,713,cs),
(187,713,o),
(41,555,o),
(41,349,cs),
(41,144,o),
(191,-13,o),
(396,-13,cs)
);
},
{
closed = 1;
nodes = (
(191,713,o),
(41,556,o),
(41,351,cs),
(41,145,o),
(187,-13,o),
(396,-13,cs),
(478,-13,o),
(561,11,o),
(638,57,c),
(596,127,l),
(535,85,o),
(480,63,o),
(397,63,cs),
(230,63,o),
(128,189,o),
(128,351,cs),
(128,513,o),
(239,637,o),
(397,637,cs),
(468,637,o),
(525,624,o),
(603,587,c),
(579,618,l),
(579,382,l),
(623,404,l),
(363,405,l),
(363,333,l),
(655,333,l),
(655,641,l),
(553,700,o),
(492,713,o),
(396,713,cs)
);
}
);
};
hints = (
{
horizontal = 1;
origin = (0,31);
target = (0,13);
type = Stem;
},
{
horizontal = 1;
origin = (0,6);
target = (0,4);
type = Stem;
},
{
horizontal = 1;
origin = (0,26);
target = (0,18);
type = Stem;
},
{
origin = (0,28);
target = (0,15);
type = Stem;
},
{
origin = (0,8);
target = (0,3);
type = Stem;
}
);
layerId = "610C2E7D-EDB4-4EC2-BEB5-F0DB9FB0A101";
shapes = (
{
closed = 1;
nodes = (
(508,-13,o),
(596,28,o),
(666,98,c),
(666,367,l),
(363,367,l),
(363,293,l),
(623,294,l),
(586,318,l),
(586,82,l),
(609,151,l),
(548,93,o),
(489,63,o),
(397,63,cs),
(239,63,o),
(128,187,o),
(128,349,cs),
(128,511,o),
(230,637,o),
(397,637,cs),
(473,637,o),
(541,615,o),
(592,551,c),
(653,603,l),
(590,678,o),
(504,713,o),
(396,713,cs),
(187,713,o),
(41,555,o),
(41,349,cs),
(41,144,o),
(191,-13,o),
(396,-13,cs)
);
}
);
width = 732;
},
{
anchors = (
{
name = bottom;
pos = (409,0);
},
{
name = ogonek;
pos = (529,9);
},
{
name = top;
pos = (399,700);
}
);
background = {
shapes = (
{
ref = O;
},
{
ref = C;
},
{
closed = 1;
nodes = (
(628,-13,o),
(775,149,o),
(775,349,cs),
(775,550,o),
(628,713,o),
(420,713,cs),
(306,713,o),
(225,682,o),
(151,601,c),
(251,506,l),
(298,555,o),
(341,575,o),
(417,575,cs),
(543,575,o),
(630,477,o),
(630,349,cs),
(630,221,o),
(543,125,o),
(417,125,cs),
(352,125,o),
(297,142,o),
(255,175,c),
(255,285,l),
(236,272,l),
(473,272,l),
(473,390,l),
(113,390,l),
(112,122,l),
(183,33,o),
(288,-13,o),
(420,-13,cs)
);
},
{
ref = G;
},
{
pos = (37,0);
ref = E;
}
);
};
hints = (
{
horizontal = 1;
origin = (0,31);
target = (0,3);
type = Stem;
},
{
horizontal = 1;
origin = (0,6);
target = (0,4);
type = Stem;
},
{
horizontal = 1;
origin = (1,0);
target = (0,18);
type = Stem;
},
{
origin = (0,28);
target = (0,15);
type = Stem;
},
{
origin = (0,8);
target = (0,3);
type = Stem;
}
);
layerId = m006;
shapes = (
{
closed = 1;
nodes = (
(527,-13,o),
(626,35,o),
(679,97,c),
(679,406,l),
(364,406,l),
(364,276,l),
(600,276,l),
(540,295,l),
(540,117,l),
(578,190,l),
(539,147,o),
(469,125,o),
(410,125,cs),
(280,125,o),
(187,221,o),
(187,349,cs),
(187,483,o),
(274,575,o),
(411,575,cs),
(479,575,o),
(524,550,o),
(566,506,c),
(666,601,l),
(600,679,o),
(508,713,o),
(407,713,cs),
(205,713,o),
(42,546,o),
(42,349,cs),
(42,142,o),
(195,-13,o),
(407,-13,cs)
);
}
);
width = 743;
}
);
metricLeft = O;
metricRight = "=H*0.8";
},
{
glyphname = C.ss10;
kernLeft = O;
kernRight = C.ss10;
lastChange = "2025-10-27 04:12:46 +0000";
layers = (
{
anchors = (
{
name = bottom;
pos = (399,0);
},
{
name = ogonek;
pos = (502,0);
},
{
name = top;
pos = (399,700);
}
);
background = {
anchors = (
{
name = bottom;
pos = (399,0);
},
{
name = ogonek;
pos = (502,0);
},
{
name = top;
pos = (399,700);
}
);
shapes = (
{
closed = 1;
nodes = (
(513,-13,o),
(601,29,o),
(661,102,c),
(601,151,l),
(550,93,o),
(492,63,o),
(402,63,cs),
(251,63,o),
(128,182,o),
(128,349,cs),
(128,515,o),
(241,637,o),
(399,637,cs),
(475,637,o),
(543,615,o),
(594,551,c),
(655,603,l),
(592,678,o),
(506,713,o),
(399,713,cs),
(195,713,o),
(41,553,o),
(41,349,cs),
(41,145,o),
(197,-13,o),
(399,-13,cs)
);
},
{
closed = 1;
nodes = (
(460,-13,o),
(508,-5,o),
(554,19,c),
(565,178,l),
(521,142,o),
(469,126,o),
(407,126,cs),
(272,126,o),
(187,221,o),
(187,349,cs),
(187,475,o),
(266,574,o),
(405,574,cs),
(467,574,o),
(521,555,o),
(564,511,c),
(564,673,l),
(524,699,o),
(466,713,o),
(405,713,cs),
(189,713,o),
(42,550,o),
(42,349,cs),
(42,149,o),
(197,-13,o),
(405,-13,cs)
);
}
);
};
hints = (
{
horizontal = 1;
origin = (0,25);
target = (0,6);
type = Stem;
},
{
horizontal = 1;
origin = (0,19);
target = (0,12);
type = Stem;
},
{
origin = (0,22);
target = (0,9);
type = Stem;
}
);
layerId = "610C2E7D-EDB4-4EC2-BEB5-F0DB9FB0A101";
shapes = (
{
closed = 1;
nodes = (
(458,-13,o),
(509,-2,o),
(554,19,c),
(560,116,l),
(518,83,o),
(469,67,o),
(402,67,cs),
(251,67,o),
(128,182,o),
(128,349,cs),
(128,515,o),
(241,633,o),
(399,633,cs),
(461,633,o),
(517,618,o),
(564,578,c),
(564,674,l),
(516,701,o),
(461,713,o),
(399,713,cs),
(195,713,o),
(41,553,o),
(41,349,cs),
(41,145,o),
(197,-13,o),
(399,-13,cs)
);
}
);
width = 585;
},
{
anchors = (
{
name = bottom;
pos = (409,0);
},
{
name = ogonek;
pos = (512,0);
},
{
name = top;
pos = (409,700);
}
);
background = {
shapes = (
{
closed = 1;
nodes = (
(531,-13,o),
(616,36,o),
(669,100,c),
(566,190,l),
(527,147,o),
(471,125,o),
(412,125,cs),
(272,125,o),
(187,221,o),
(187,349,cs),
(187,477,o),
(272,575,o),
(409,575,cs),
(481,575,o),
(526,550,o),
(568,506,c),
(668,601,l),
(602,679,o),
(510,713,o),
(409,713,cs),
(193,713,o),
(44,550,o),
(44,349,cs),
(44,149,o),
(201,-13,o),
(409,-13,cs)
);
}
);
};
hints = (
{
horizontal = 1;
origin = (0,25);
target = (0,6);
type = Stem;
},
{
horizontal = 1;
origin = (0,19);
target = (0,12);
type = Stem;
},
{
origin = (0,22);
target = (0,9);
type = Stem;
}
);
layerId = m006;
shapes = (
{
closed = 1;
nodes = (
(460,-13,o),
(508,-5,o),
(554,19,c),
(565,181,l),
(521,145,o),
(469,129,o),
(407,129,cs),
(272,129,o),
(187,221,o),
(187,349,cs),
(187,475,o),
(266,571,o),
(405,571,cs),
(467,571,o),
(521,552,o),
(564,508,c),
(564,673,l),
(524,699,o),
(466,713,o),
(405,713,cs),
(189,713,o),
(42,550,o),
(42,349,cs),
(42,149,o),
(197,-13,o),
(405,-13,cs)
);
}
);
width = 587;
}
);
metricLeft = O;
metricRight = "=O-20";
},
{
glyphname = Eng.ss10;
kernLeft = H;
kernRight = H;
lastChange = "2025-10-27 04:13:53 +0000";
layers = (
{
hints = (
{
horizontal = 1;
origin = (1,1);
target = up;
type = BottomGhost;
},
{
origin = (1,2);
target = (1,3);
type = Stem;
}
);
layerId = "610C2E7D-EDB4-4EC2-BEB5-F0DB9FB0A101";
shapes = (
{
ref = N;
},
{
closed = 1;
nodes = (
(592,-220,l),
(673,-220,l),
(673,0,l),
(592,65,l)
);
}
);
width = 755;
},
{
hints = (
{
horizontal = 1;
origin = (1,1);
target = up;
type = BottomGhost;
},
{
origin = (1,2);
target = (1,3);
type = Stem;
}
);
layerId = m006;
shapes = (
{
ref = N;
},
{
closed = 1;
nodes = (
(566,-220,l),
(696,-220,l),
(696,0,l),
(566,195,l)
);
}
);
width = 776;
}
);
},
{
glyphname = a;
kernLeft = a;
kernRight = n;
lastChange = "2025-10-27 02:21:43 +0000";
layers = (
{
anchors = (
{
name = bottom;
pos = (267,0);
},
{
name = ogonek;
pos = (368,0);
},
{
name = top;
pos = (271,505);
}
);
background = {
shapes = (
{
closed = 1;
nodes = (
(383,-13,o),
(462,26,o),
(505,75,c),
(416,165,l),
(390,129,o),
(342,107,o),
(292,107,cs),
(205,107,o),
(163,174,o),
(157,239,c),
(156,260,l),
(153,350,o),
(205,409,o),
(280,409,cs),
(360,409,o),
(395,357,o),
(392,265,c),
(432,314,l),
(102,314,l),
(102,224,l),
(524,224,l),
(527,232,o),
(528,250,o),
(528,265,cs),
(528,419,o),
(430,518,o),
(282,518,cs),
(134,518,o),
(21,419,o),
(21,249,cs),
(21,99,o),
(127,-13,o),
(289,-13,cs)
);
}
);
};
hints = (
{
horizontal = 1;
origin = (0,28);
target = (1,11);
type = Stem;
},
{
horizontal = 1;
origin = (1,5);
target = (0,22);
type = Stem;
},
{
horizontal = 1;
origin = (0,9);
target = (0,16);
type = Stem;
},
{
origin = (0,25);
target = (1,2);
type = Stem;
},
{
origin = (1,8);
target = (0,6);
type = Stem;
},
{
horizontal = 1;
options = 4;
origin = (0,28);
target = (1,11);
type = TTStem;
},
{
horizontal = 1;
options = 4;
origin = (0,5);
target = (1,11);
type = TTStem;
}
);
layerId = m006;
shapes = (
{
closed = 1;
nodes = (
(292,-12,o),
(343,27,o),
(362,65,c),
(368,65,l),
(368,0,l),
(499,0,l),
(499,326,ls),
(499,430,o),
(416,518,o),
(267,518,cs),
(172,518,o),
(104,480,o),
(53,422,c),
(142,337,l),
(171,371,o),
(213,395,o),
(271,395,cs),
(335,395,o),
(364,362,o),
(364,332,cs),
(364,285,l),
(396,322,l),
(280,314,ls),
(110,302,o),
(45,237,o),
(45,144,cs),
(45,55,o),
(115,-12,o),
(208,-12,cs)
);
},
{
closed = 1;
nodes = (
(204,102,o),
(174,122,o),
(174,153,cs),
(174,195,o),
(236,207,o),
(293,211,cs),
(396,218,l),
(364,250,l),
(364,212,ls),
(364,151,o),
(323,102,o),
(254,102,cs)
);
}
);
width = 564;
},
{
anchors = (
{
name = bottom;
pos = (252,0);
},
{
name = ogonek;
pos = (383,0);
},
{
name = top;
pos = (256,490);
}
);
background = {
shapes = (
{
pos = (475,0);
ref = s;
scale = (-1,1);
}
);
};
hints = (
{
horizontal = 1;
origin = (0,28);
target = (1,11);
type = Stem;
},
{
horizontal = 1;
origin = (0,9);
target = (0,16);
type = Stem;
},
{
horizontal = 1;
origin = (0,5);
target = up;
type = BottomGhost;
},
{
origin = (0,25);
target = (1,2);
type = Stem;
},
{
origin = (1,8);
target = (0,6);
type = Stem;
},
{
horizontal = 1;
options = 4;
place = (222,66);
type = TTStem;
},
{
horizontal = 1;
options = 4;
origin = (0,5);
type = TTSnap;
},
{
horizontal = 1;
origin = (1,5);
target = (0,22);
type = Stem;
}
);
layerId = "610C2E7D-EDB4-4EC2-BEB5-F0DB9FB0A101";
shapes = (
{
closed = 1;
nodes = (
(314,-13,o),
(357,38,o),
(379,74,c),
(385,74,l),
(385,0,l),
(461,0,l),
(461,321,ls),
(461,440,o),
(357,503,o),
(260,503,cs),
(167,503,o),
(108,475,o),
(50,413,c),
(104,357,l),
(147,405,o),
(194,429,o),
(256,429,cs),
(319,429,o),
(381,395,o),
(381,323,cs),
(381,281,l),
(394,292,l),
(282,285,ls),
(133,276,o),
(47,227,o),
(47,129,cs),
(47,48,o),
(118,-13,o),
(213,-13,cs)
);
},
{
closed = 1;
nodes = (
(161,55,o),
(127,82,o),
(127,133,cs),
(127,187,o),
(180,212,o),
(288,219,cs),
(392,226,l),
(381,241,l),
(381,203,ls),
(381,124,o),
(324,55,o),
(227,55,cs)
);
}
);
width = 528;
}
);
metricRight = n;
unicode = 97;
},
{
glyphname = ae;
kernLeft = a;
kernRight = e;
lastChange = "2025-10-27 01:18:20 +0000";
layers = (
{
anchors = (
{
name = bottom;
pos = (422,0);
},
{
name = ogonek;
pos = (629,0);
},
{
name = top;
pos = (422,490);
}
);
background = {
shapes = (
{
closed = 1;
nodes = (
(314,-13,o),
(357,38,o),
(379,74,c),
(385,74,l),
(385,0,l),
(461,0,l),
(461,321,ls),
(461,440,o),
(357,503,o),
(260,503,cs),
(167,503,o),
(108,475,o),
(50,413,c),
(104,357,l),
(147,405,o),
(194,429,o),
(256,429,cs),
(319,429,o),
(381,395,o),
(381,323,cs),
(381,281,l),
(394,292,l),
(282,285,ls),
(133,276,o),
(47,227,o),
(47,129,cs),
(47,48,o),
(118,-13,o),
(213,-13,cs)
);
},
{
closed = 1;
nodes = (
(161,55,o),
(127,82,o),
(127,133,cs),
(127,187,o),
(180,212,o),
(288,219,cs),
(392,226,l),
(381,241,l),
(381,203,ls),
(381,124,o),
(324,55,o),
(227,55,cs)
);
},
{
closed = 1;
nodes = (
(341,-13,o),
(392,13,o),
(450,70,c),
(396,126,l),
(353,81,o),
(318,59,o),
(263,59,cs),
(205,59,o),
(159,83,o),
(159,132,cs),
(159,173,o),
(194,195,o),
(275,214,cs),
(378,239,o),
(428,285,o),
(428,360,cs),
(428,442,o),
(351,503,o),
(255,503,cs),
(174,503,o),
(122,477,o),
(79,415,c),
(140,370,l),
(168,415,o),
(204,435,o),
(250,435,cs),
(303,435,o),
(347,406,o),
(347,367,cs),
(347,327,o),
(326,305,o),
(242,286,cs),
(127,260,o),
(78,215,o),
(78,139,cs),
(78,43,o),
(163,-13,o),
(259,-13,cs)
);
},
{
closed = 1;
nodes = (
(719,-13,o),
(792,19,o),
(838,80,c),
(781,129,l),
(746,81,o),
(700,61,o),
(632,61,cs),
(538,61,o),
(463,129,o),
(461,233,c),
(461,245,l),
(460,362,o),
(527,429,o),
(628,429,cs),
(734,429,o),
(790,352,o),
(786,245,c),
(814,284,l),
(420,284,l),
(420,214,l),
(864,214,l),
(866,223,o),
(866,236,o),
(866,246,cs),
(866,397,o),
(777,503,o),
(630,503,cs),
(484,503,o),
(381,392,o),
(381,246,cs),
(381,96,o),
(482,-13,o),
(631,-13,cs)
);
}
);
};
hints = (
{
origin = (0,10);
target = (0,30);
type = Stem;
},
{
horizontal = 1;
origin = (0,59);
target = (0,11);
type = Stem;
},
{
horizontal = 1;
origin = (0,40);
target = (0,47);
type = Stem;
},
{
origin = (0,56);
target = (1,2);
type = Stem;
},
{
horizontal = 1;
options = 4;
origin = (0,59);
target = (0,0);
type = TTStem;
},
{
horizontal = 1;
options = 4;
place = (222,66);
type = TTStem;
},
{
horizontal = 1;
options = 4;
origin = (0,40);
target = (0,47);
type = TTStem;
},
{
horizontal = 1;
options = 4;
origin = (0,3);
type = TTSnap;
},
{
origin = (1,7);
target = (0,17);
type = Stem;
},
{
horizontal = 1;
origin = (1,6);
target = (0,52);
type = Stem;
}
);
layerId = "610C2E7D-EDB4-4EC2-BEB5-F0DB9FB0A101";
shapes = (
{
closed = 1;
nodes = (
(313,-13,o),
(384,33,o),
(417,104,c),
(421,104,l),
(464,31,o),
(539,-13,o),
(630,-13,cs),
(718,-13,o),
(791,19,o),
(837,80,c),
(780,129,l),
(745,81,o),
(699,61,o),
(631,61,cs),
(537,61,o),
(462,129,o),
(460,233,c),
(460,245,l),
(459,362,o),
(526,429,o),
(627,429,cs),
(733,429,o),
(789,361,o),
(785,254,c),
(813,293,l),
(432,293,l),
(460,223,l),
(863,223,l),
(865,232,o),
(865,245,o),
(865,255,cs),
(865,406,o),
(776,503,o),
(629,503,cs),
(531,503,o),
(466,453,o),
(438,408,c),
(432,408,l),
(400,468,o),
(336,503,o),
(259,503,cs),
(170,503,o),
(108,476,o),
(50,413,c),
(104,357,l),
(147,405,o),
(184,429,o),
(254,429,cs),
(349,429,o),
(381,362,o),
(381,320,cs),
(381,256,l),
(394,294,l),
(260,286,ls),
(123,278,o),
(47,219,o),
(47,132,cs),
(47,42,o),
(131,-13,o),
(229,-13,cs)
);
},
{
closed = 1;
nodes = (
(170,61,o),
(127,86,o),
(127,136,cs),
(127,181,o),
(168,210,o),
(265,216,cs),
(392,224,l),
(381,241,l),
(381,211,ls),
(381,125,o),
(323,61,o),
(238,61,cs)
);
}
);
width = 893;
},
{
anchors = (
{
name = bottom;
pos = (420,0);
},
{
name = ogonek;
pos = (625,-13);
},
{
name = top;
pos = (432,505);
}
);
background = {
shapes = (
{
closed = 1;
nodes = (
(292,-12,o),
(343,27,o),
(362,65,c),
(368,65,l),
(368,0,l),
(499,0,l),
(499,326,ls),
(499,430,o),
(416,518,o),
(267,518,cs),
(172,518,o),
(104,480,o),
(53,422,c),
(142,337,l),
(171,371,o),
(213,395,o),
(271,395,cs),
(335,395,o),
(364,362,o),
(364,332,cs),
(364,285,l),
(396,322,l),
(280,314,ls),
(110,302,o),
(45,237,o),
(45,144,cs),
(45,55,o),
(115,-12,o),
(208,-12,cs)
);
},
{
closed = 1;
nodes = (
(204,104,o),
(174,122,o),
(174,153,cs),
(174,195,o),
(236,207,o),
(293,211,cs),
(396,218,l),
(364,250,l),
(364,212,ls),
(364,151,o),
(323,104,o),
(254,104,cs)
);
},
{
closed = 1;
nodes = (
(708,-13,o),
(787,26,o),
(830,75,c),
(741,165,l),
(715,129,o),
(667,107,o),
(617,107,cs),
(530,107,o),
(488,174,o),
(482,239,c),
(481,260,l),
(478,357,o),
(530,409,o),
(605,409,cs),
(685,409,o),
(720,357,o),
(717,265,c),
(757,316,l),
(427,316,l),
(427,216,l),
(849,216,l),
(852,225,o),
(853,245,o),
(853,262,cs),
(853,416,o),
(755,518,o),
(607,518,cs),
(459,518,o),
(346,419,o),
(346,249,cs),
(346,99,o),
(452,-13,o),
(614,-13,cs)
);
}
);
};
hints = (
{
horizontal = 1;
options = 4;
origin = (0,59);
target = (0,3);
type = TTStem;
},
{
horizontal = 1;
options = 4;
origin = (0,0);
target = (0,0);
type = TTStem;
},
{
horizontal = 1;
options = 4;
origin = (0,40);
target = (0,47);
type = TTStem;
},
{
horizontal = 1;
options = 4;
origin = (0,3);
type = TTStem;
},
{
horizontal = 1;
origin = (0,59);
target = (1,11);
type = Stem;
},
{
horizontal = 1;
origin = (0,40);
target = (0,47);
type = Stem;
},
{
origin = (0,56);
target = (1,2);
type = Stem;
},
{
origin = (1,7);
target = (0,17);
type = Stem;
},
{
horizontal = 1;
origin = (1,6);
target = (0,52);
type = Stem;
}
);
layerId = m006;
shapes = (
{
closed = 1;
nodes = (
(330,-13,o),
(385,23,o),
(419,76,c),
(424,76,l),
(452,23,o),
(537,-13,o),
(613,-13,cs),
(699,-13,o),
(778,26,o),
(821,75,c),
(732,165,l),
(706,129,o),
(658,107,o),
(608,107,cs),
(531,107,o),
(477,174,o),
(483,239,c),
(482,260,l),
(482,357,o),
(531,395,o),
(596,395,cs),
(676,395,o),
(711,357,o),
(708,265,c),
(748,316,l),
(459,316,l),
(482,216,l),
(840,216,l),
(843,225,o),
(844,245,o),
(844,262,cs),
(844,416,o),
(746,518,o),
(598,518,cs),
(527,518,o),
(469,493,o),
(432,455,c),
(425,455,l),
(389,493,o),
(335,518,o),
(267,518,cs),
(177,518,o),
(113,489,o),
(53,422,c),
(142,337,l),
(176,378,o),
(215,395,o),
(271,395,cs),
(331,395,o),
(363,362,o),
(363,333,cs),
(363,285,l),
(388,318,l),
(318,315,ls),
(120,308,o),
(45,237,o),
(45,144,cs),
(45,55,o),
(119,-13,o),
(240,-13,cs)
);
},
{
closed = 1;
nodes = (
(204,107,o),
(174,124,o),
(174,155,cs),
(174,197,o),
(246,211,o),
(331,214,cs),
(388,216,l),
(363,250,l),
(363,210,ls),
(363,161,o),
(328,107,o),
(248,107,cs)
);
}
);
width = 876;
}
);
metricRight = e;
unicode = 230;
},
{
glyphname = b;
kernLeft = l;
kernRight = o;
lastChange = "2025-10-27 02:19:51 +0000";
layers = (
{
anchors = (
{
name = bottom;
pos = (356,0);
},
{
name = ogonek;
pos = (441,0);
},
{
name = top;
pos = (137,740);
}
);
hints = (
{
horizontal = 1;
origin = (0,18);
target = (1,11);
type = Stem;
},
{
horizontal = 1;
origin = (0,5);
target = (1,5);
type = Stem;
},
{
horizontal = 1;
origin = (0,11);
target = down;
type = TopGhost;
},
{
origin = (0,12);
target = (1,2);
type = Stem;
},
{
origin = (1,8);
target = (0,2);
type = Stem;
}
);
layerId = m006;
shapes = (
{
closed = 1;
nodes = (
(513,-13,o),
(614,112,o),
(614,252,cs),
(614,393,o),
(513,518,o),
(364,518,cs),
(296,518,o),
(230,484,o),
(211,429,c),
(205,429,l),
(205,740,l),
(70,740,l),
(70,0,l),
(201,0,l),
(201,74,l),
(207,74,l),
(226,21,o),
(292,-13,o),
(364,-13,cs)
);
},
{
closed = 1;
nodes = (
(263,110,o),
(205,171,o),
(205,252,cs),
(205,334,o),
(263,395,o),
(342,395,cs),
(421,395,o),
(479,334,o),
(479,253,cs),
(479,171,o),
(421,110,o),
(342,110,cs)
);
}
);
width = 654;
},
{
anchors = (
{
name = bottom;
pos = (326,0);
},
{
name = ogonek;
pos = (412,0);
},
{
name = top;
pos = (326,490);
}
);
hints = (
{
horizontal = 1;
origin = (0,18);
target = (1,11);
type = Stem;
},
{
horizontal = 1;
origin = (0,5);
target = (1,5);
type = Stem;
},
{
horizontal = 1;
origin = (0,11);
target = down;
type = TopGhost;
},
{
horizontal = 1;
origin = (0,13);
target = up;
type = BottomGhost;
},
{
origin = (0,11);
target = (0,9);
type = Stem;
},
{
origin = (1,8);
target = (0,2);
type = Stem;
}
);
layerId = "610C2E7D-EDB4-4EC2-BEB5-F0DB9FB0A101";
shapes = (
{
closed = 1;
nodes = (
(472,-13,o),
(574,92,o),
(574,244,cs),
(574,396,o),
(472,502,o),
(329,502,cs),
(248,502,o),
(186,457,o),
(158,399,c),
(152,399,l),
(152,740,l),
(72,740,l),
(72,0,l),
(148,0,l),
(148,94,l),
(154,94,l),
(182,34,o),
(242,-13,o),
(329,-13,cs)
);
},
{
closed = 1;
nodes = (
(217,61,o),
(151,142,o),
(151,244,cs),
(151,350,o),
(217,428,o),
(321,428,cs),
(431,428,o),
(494,352,o),
(494,245,cs),
(494,140,o),
(431,61,o),
(321,61,cs)
);
}
);
width = 610;
}
);
metricRight = o;
unicode = 98;
},
{
glyphname = c;
kernLeft = o;
kernRight = c;
lastChange = "2025-10-30 05:29:55 +0000";
layers = (
{
anchors = (
{
name = bottom;
pos = (305,0);
},
{
name = ogonek;
pos = (400,0);
},
{
name = top;
pos = (308,505);
}
);
background = {
hints = (
{
horizontal = 1;
origin = (0,11);
target = (1,11);
type = Stem;
},
{
horizontal = 1;
origin = (0,5);
target = (1,5);
type = Stem;
},
{
origin = (0,8);
target = (1,2);
type = Stem;
},
{
origin = (1,8);
target = (0,2);
type = Stem;
}
);
shapes = (
{
closed = 1;
nodes = (
(460,-13,o),
(574,101,o),
(574,252,cs),
(574,404,o),
(460,518,o),
(307,518,cs),
(154,518,o),
(40,404,o),
(40,252,cs),
(40,101,o),
(154,-13,o),
(307,-13,cs)
);
},
{
closed = 1;
nodes = (
(231,110,o),
(175,165,o),
(175,252,cs),
(175,340,o),
(231,395,o),
(307,395,cs),
(383,395,o),
(439,340,o),
(439,252,cs),
(439,165,o),
(383,110,o),
(307,110,cs)
);
},
{
closed = 1;
nodes = (
(-103,487,o),
(-37,517,o),
(18,571,c),
(-79,656,l),
(-101,628,o),
(-135,610,o),
(-184,610,cs),
(-269,610,o),
(-322,666,o),
(-322,754,cs),
(-322,841,o),
(-270,895,o),
(-187,895,cs),
(-137,895,o),
(-99,878,o),
(-77,843,c),
(21,928,l),
(-28,982,o),
(-103,1019,o),
(-189,1018,cs),
(-361,1016,o),
(-457,898,o),
(-457,754,cs),
(-457,611,o),
(-358,487,o),
(-196,487,cs)
);
},
{
closed = 1;
nodes = (
(-125,-13,o),
(-53,24,o),
(-4,87,c),
(-102,172,l),
(-129,136,o),
(-163,110,o),
(-215,110,cs),
(-301,110,o),
(-360,179,o),
(-360,260,cs),
(-360,341,o),
(-304,410,o),
(-218,410,cs),
(-172,410,o),
(-132,387,o),
(-108,351,c),
(-4,436,l),
(-48,497,o),
(-125,534,o),
(-220,533,cs),
(-379,532,o),
(-495,411,o),
(-495,260,cs),
(-495,109,o),
(-376,-13,o),
(-227,-13,cs)
);
}
);
};
hints = (
{
horizontal = 1;
origin = (0,25);
target = (0,6);
type = Stem;
},
{
horizontal = 1;
origin = (0,12);
target = (0,19);
type = Stem;
},
{
origin = (0,22);
target = (0,9);
type = Stem;
}
);
layerId = m006;
shapes = (
{
closed = 1;
nodes = (
(411,-13,o),
(478,25,o),
(527,88,c),
(425,168,l),
(402,137,o),
(365,110,o),
(316,110,cs),
(232,110,o),
(175,167,o),
(175,254,cs),
(175,340,o),
(230,395,o),
(313,395,cs),
(370,395,o),
(409,367,o),
(426,334,c),
(527,414,l),
(479,481,o),
(402,519,o),
(301,518,cs),
(139,516,o),
(40,398,o),
(40,254,cs),
(40,111,o),
(142,-13,o),
(304,-13,cs)
);
}
);
width = 560;
},
{
anchors = (
{
name = bottom;
pos = (292,0);
},
{
name = ogonek;
pos = (369,0);
},
{
name = top;
pos = (292,490);
}
);
background = {
shapes = (
{
closed = 1;
nodes = (
(140,1202,o),
(39,1090,o),
(39,945,cs),
(39,801,o),
(141,691,o),
(289,689,cs),
(375,688,o),
(441,722,o),
(489,787,c),
(430,832,l),
(393,786,o),
(356,763,o),
(289,763,cs),
(189,763,o),
(119,839,o),
(119,945,cs),
(119,1051,o),
(193,1128,o),
(293,1128,cs),
(356,1128,o),
(394,1107,o),
(429,1064,c),
(488,1110,l),
(441,1170,o),
(373,1202,o),
(289,1202,cs)
);
},
{
attr = {
strokePos = 1;
strokeWidth = 74;
};
closed = 0;
nodes = (
(424,130,l),
(396,87,o),
(349,61,o),
(287,61,cs),
(181,61,o),
(119,141,o),
(119,244,cs),
(119,349,o),
(181,427,o),
(287,427,cs),
(350,427,o),
(397,399,o),
(426,355,c)
);
}
);
};
hints = (
{
horizontal = 1;
origin = (0,25);
target = (0,6);
type = Stem;
},
{
horizontal = 1;
origin = (0,19);
target = (0,12);
type = Stem;
},
{
origin = (0,22);
target = (0,9);
type = Stem;
}
);
layerId = "610C2E7D-EDB4-4EC2-BEB5-F0DB9FB0A101";
shapes = (
{
closed = 1;
nodes = (
(370,-13,o),
(438,20,o),
(485,80,c),
(429,128,l),
(395,82,o),
(353,61,o),
(290,61,cs),
(187,61,o),
(116,140,o),
(116,245,cs),
(116,348,o),
(183,428,o),
(286,428,cs),
(348,428,o),
(389,406,o),
(428,359,c),
(486,405,l),
(438,469,o),
(368,503,o),
(283,502,cs),
(139,500,o),
(36,384,o),
(36,245,cs),
(36,105,o),
(141,-13,o),
(286,-13,cs)
);
}
);
width = 515;
}
);
metricRight = "=o-7";
unicode = 99;
},
{
glyphname = d;
kernLeft = o;
kernRight = l;
lastChange = "2025-10-27 02:23:57 +0000";
layers = (
{
anchors = (
{
name = bar;
pos = (486,613);
},
{
name = bottom;
pos = (297,0);
},
{
name = center;
pos = (312,253);
},
{
name = top;
pos = (297,505);
},
{
name = topright;
pos = (652,740);
}
);
background = {
shapes = (
{
closed = 1;
nodes = (
(362,-13,o),
(422,28,o),
(444,74,c),
(449,74,l),
(449,0,l),
(584,0,l),
(584,740,l),
(449,740,l),
(449,414,l),
(444,414,l),
(422,460,o),
(362,501,o),
(290,501,cs),
(147,501,o),
(50,393,o),
(50,243,cs),
(50,93,o),
(147,-13,o),
(290,-13,cs)
);
},
{
closed = 1;
nodes = (
(230,109,o),
(185,165,o),
(185,244,cs),
(185,325,o),
(230,379,o),
(316,379,cs),
(394,379,o),
(443,321,o),
(443,243,cs),
(443,166,o),
(394,109,o),
(316,109,cs)
);
}
);
};
hints = (
{
horizontal = 1;
origin = (0,18);
target = (1,11);
type = Stem;
},
{
horizontal = 1;
origin = (0,12);
target = (1,5);
type = Stem;
},
{
origin = (0,15);
target = (1,2);
type = Stem;
},
{
origin = (0,8);
target = (0,5);
type = Stem;
}
);
layerId = m006;
shapes = (
{
closed = 1;
nodes = (
(362,-13,o),
(428,21,o),
(447,74,c),
(453,74,l),
(453,0,l),
(584,0,l),
(584,740,l),
(449,740,l),
(449,429,l),
(443,429,l),
(424,484,o),
(358,518,o),
(290,518,cs),
(141,518,o),
(40,393,o),
(40,252,cs),
(40,112,o),
(141,-13,o),
(290,-13,cs)
);
},
{
closed = 1;
nodes = (
(233,110,o),
(175,171,o),
(175,253,cs),
(175,334,o),
(233,395,o),
(312,395,cs),
(391,395,o),
(449,334,o),
(449,252,cs),
(449,171,o),
(391,110,o),
(312,110,cs)
);
}
);
width = 654;
},
{
anchors = (
{
name = bar;
pos = (468,626);
},
{
name = bottom;
pos = (274,0);
},
{
name = center;
pos = (279,245);
},
{
name = top;
pos = (275,468);
},
{
name = topright;
pos = (600,740);
}
);
hints = (
{
horizontal = 1;
options = 4;
origin = (0,18);
target = (1,11);
type = TTStem;
},
{
horizontal = 1;
options = 4;
origin = (0,12);
target = (1,5);
type = TTStem;
},
{
horizontal = 1;
options = 4;
origin = (0,7);
type = TTSnap;
},
{
horizontal = 1;
options = 4;
origin = (0,5);
type = TTSnap;
},
{
horizontal = 1;
origin = (0,18);
target = (1,11);
type = Stem;
},
{
horizontal = 1;
origin = (0,12);
target = (1,5);
type = Stem;
},
{
horizontal = 1;
origin = (0,7);
target = down;
type = TopGhost;
},
{
horizontal = 1;
origin = (0,5);
target = up;
type = BottomGhost;
},
{
origin = (0,15);
target = (1,2);
type = Stem;
},
{
origin = (0,6);
target = (0,8);
type = Stem;
}
);
layerId = "610C2E7D-EDB4-4EC2-BEB5-F0DB9FB0A101";
shapes = (
{
closed = 1;
nodes = (
(357,-13,o),
(414,32,o),
(446,94,c),
(452,94,l),
(452,0,l),
(528,0,l),
(528,740,l),
(448,740,l),
(448,399,l),
(441,399,l),
(412,457,o),
(352,503,o),
(271,503,cs),
(128,503,o),
(26,397,o),
(26,244,cs),
(26,92,o),
(128,-13,o),
(271,-13,cs)
);
},
{
closed = 1;
nodes = (
(169,61,o),
(106,140,o),
(106,245,cs),
(106,353,o),
(169,429,o),
(279,429,cs),
(383,429,o),
(449,350,o),
(449,244,cs),
(449,142,o),
(383,61,o),
(279,61,cs)
);
}
);
width = 600;
}
);
metricRight = l;
unicode = 100;
},
{
glyphname = eth;
kernLeft = o;
kernRight = eth;
lastChange = "2025-10-27 02:20:23 +0000";
layers = (
{
background = {
anchors = (
{
name = bottom;
pos = (284,0);
},
{
name = center;
pos = (284,244);
},
{
name = ogonek;
pos = (290,0);
},
{
name = top;
pos = (284,490);
},
{
name = topright;
pos = (451,490);
}
);
hints = (
{
horizontal = 1;
origin = (0,11);
target = (1,11);
type = Stem;
},
{
horizontal = 1;
origin = (0,5);
target = (1,5);
type = Stem;
},
{
origin = (0,8);
target = (1,2);
type = Stem;
},
{
origin = (1,8);
target = (0,2);
type = Stem;
}
);
shapes = (
{
closed = 1;
nodes = (
(-171,587,o),
(-67,695,o),
(-67,846,cs),
(-67,996,o),
(-171,1103,o),
(-316,1103,cs),
(-460,1103,o),
(-564,995,o),
(-564,844,cs),
(-564,694,o),
(-460,587,o),
(-316,587,cs)
);
},
{
closed = 1;
nodes = (
(-419,661,o),
(-484,741,o),
(-484,845,cs),
(-484,951,o),
(-419,1029,o),
(-316,1029,cs),
(-213,1029,o),
(-147,949,o),
(-147,845,cs),
(-147,739,o),
(-213,661,o),
(-316,661,cs)
);
},
{
closed = 1;
nodes = (
(-81,1184,l),
(-111,1279,l),
(-276,1234,l),
(-331,1198,l),
(-457,1176,l),
(-426,1088,l)
);
},
{
closed = 1;
nodes = (
(-411,-338,o),
(-478,-258,o),
(-478,-165,cs),
(-478,-71,o),
(-411,9,o),
(-307,9,cs),
(-204,9,o),
(-137,-71,o),
(-137,-165,cs),
(-137,-258,o),
(-202,-338,o),
(-307,-338,cs)
);
},
{
closed = 1;
nodes = (
(-391,710,o),
(-447,765,o),
(-447,852,cs),
(-447,940,o),
(-391,995,o),
(-315,995,cs),
(-239,995,o),
(-183,940,o),
(-183,852,cs),
(-183,765,o),
(-239,710,o),
(-315,710,cs)
);
},
{
closed = 1;
nodes = (
(-265,1095,l),
(-291,1106,o),
(-319,1111,o),
(-346,1111,cs),
(-463,1111,o),
(-582,1006,o),
(-582,852,cs),
(-582,701,o),
(-472,587,o),
(-325,587,cs),
(-163,587,o),
(-48,701,o),
(-48,852,cs),
(-48,1042,o),
(-183,1262,o),
(-381,1425,c),
(-478,1334,l),
(-379,1256,o),
(-316,1191,o),
(-259,1099,c)
);
},
{
closed = 1;
nodes = (
(-98,1216,l),
(-98,1311,l),
(-259,1282,l),
(-314,1260,l),
(-459,1235,l),
(-459,1144,l)
);
},
{
closed = 1;
nodes = (
(120,438,o),
(80,354,o),
(113,280,cs),
(153,190,o),
(252,181,o),
(391,232,cs),
(497,272,l),
(480,277,l),
(497,239,ls),
(526,173,o),
(483,116,o),
(427,91,cs),
(370,66,o),
(317,68,o),
(258,95,c),
(231,23,l),
(310,-11,o),
(375,-13,o),
(460,26,cs),
(548,64,o),
(618,164,o),
(569,274,cs),
(440,566,l),
(369,535,l),
(400,468,l),
(395,466,l),
(360,489,o),
(299,518,o),
(207,477,cs)
);
},
{
closed = 1;
nodes = (
(336,461,o),
(415,420,o),
(448,348,cs),
(464,313,l),
(468,331,l),
(370,296,ls),
(269,259,o),
(210,260,o),
(188,309,cs),
(167,356,o),
(186,394,o),
(248,421,cs)
);
},
{
closed = 1;
nodes = (
(327,604,o),
(386,674,o),
(501,770,c),
(445,825,l),
(269,687,o),
(126,445,o),
(126,254,cs),
(126,87,o),
(236,-13,o),
(381,-13,cs),
(532,-13,o),
(628,98,o),
(628,235,cs),
(628,388,o),
(525,503,o),
(387,503,cs),
(347,503,o),
(298,493,o),
(257,451,c),
(252,454,l)
);
},
{
ref = o;
}
);
};
hints = (
{
horizontal = 1;
origin = (0,9);
target = (1,11);
type = Stem;
},
{
horizontal = 1;
origin = (0,3);
target = (1,5);
type = Stem;
},
{
origin = (0,6);
target = (1,2);
type = Stem;
},
{
origin = (1,8);
target = (0,12);
type = Stem;
}
);
layerId = "610C2E7D-EDB4-4EC2-BEB5-F0DB9FB0A101";
shapes = (
{
closed = 1;
nodes = (
(407,451,l),
(366,493,o),
(317,503,o),
(277,503,cs),
(139,503,o),
(36,388,o),
(36,235,cs),
(36,98,o),
(132,-13,o),
(283,-13,cs),
(428,-13,o),
(538,87,o),
(538,254,cs),
(538,445,o),
(395,687,o),
(219,825,c),
(163,770,l),
(278,674,o),
(337,604,o),
(412,454,c)
);
},
{
closed = 1;
nodes = (
(181,61,o),
(116,141,o),
(116,245,cs),
(116,350,o),
(188,429,o),
(284,429,cs),
(387,429,o),
(453,349,o),
(453,245,cs),
(453,139,o),
(387,61,o),
(284,61,cs)
);
},
{
closed = 1;
nodes = (
(494,666,l),
(494,735,l),
(331,675,l),
(296,663,l),
(165,615,l),
(165,546,l)
);
}
);
width = 574;
},
{
background = {
anchors = (
{
name = bottom;
pos = (307,0);
},
{
name = center;
pos = (307,260);
},
{
name = ogonek;
pos = (375,-5);
},
{
name = top;
pos = (307,505);
},
{
name = topright;
pos = (472,505);
}
);
hints = (
{
horizontal = 1;
origin = (3,11);
target = (4,11);
type = Stem;
},
{
horizontal = 1;
origin = (3,5);
target = (4,5);
type = Stem;
},
{
origin = (3,8);
target = (4,2);
type = Stem;
},
{
origin = (4,8);
target = (3,2);
type = Stem;
}
);
shapes = (
{
closed = 1;
nodes = (
(1372,-13,o),
(1480,89,o),
(1480,263,cs),
(1480,376,o),
(1421,470,o),
(1356,545,cs),
(1184,743,l),
(1073,657,l),
(1220,509,ls),
(1259,469,o),
(1296,449,o),
(1318,372,c),
(1335,363,l),
(1315,418,o),
(1281,479,o),
(1184,479,cs),
(1083,479,o),
(960,393,o),
(960,241,cs),
(960,101,o),
(1068,-13,o),
(1223,-13,cs)
);
},
{
closed = 1;
nodes = (
(1146,114,o),
(1097,173,o),
(1097,241,cs),
(1097,311,o),
(1146,369,o),
(1223,369,cs),
(1300,369,o),
(1349,311,o),
(1349,241,cs),
(1349,171,o),
(1301,114,o),
(1223,114,cs)
);
},
{
closed = 1;
nodes = (
(420,681,l),
(363,746,l),
(170,578,l),
(228,513,l)
);
},
{
closed = 1;
nodes = (
(460,-13,o),
(574,101,o),
(574,252,cs),
(574,404,o),
(460,518,o),
(307,518,cs),
(154,518,o),
(40,404,o),
(40,252,cs),
(40,101,o),
(154,-13,o),
(307,-13,cs)
);
},
{
closed = 1;
nodes = (
(231,110,o),
(175,165,o),
(175,252,cs),
(175,340,o),
(231,395,o),
(307,395,cs),
(383,395,o),
(439,340,o),
(439,252,cs),
(439,165,o),
(383,110,o),
(307,110,cs)
);
},
{
closed = 1;
nodes = (
(462,261,l),
(577,333,l),
(244,865,l),
(129,793,l)
);
}
);
};
hints = (
{
horizontal = 1;
origin = (0,9);
target = (1,11);
type = Stem;
},
{
horizontal = 1;
place = (395,109);
type = Stem;
},
{
origin = (0,6);
target = (1,2);
type = Stem;
},
{
origin = (1,8);
target = (0,12);
type = Stem;
}
);
layerId = m006;
shapes = (
{
closed = 1;
nodes = (
(357,495,l),
(331,506,o),
(303,511,o),
(276,511,cs),
(159,511,o),
(40,406,o),
(40,252,cs),
(40,101,o),
(150,-13,o),
(297,-13,cs),
(459,-13,o),
(574,101,o),
(574,252,cs),
(574,442,o),
(439,662,o),
(241,825,c),
(144,734,l),
(243,656,o),
(306,591,o),
(363,499,c)
);
},
{
closed = 1;
nodes = (
(231,110,o),
(175,165,o),
(175,252,cs),
(175,340,o),
(231,395,o),
(307,395,cs),
(383,395,o),
(439,340,o),
(439,252,cs),
(439,165,o),
(383,110,o),
(307,110,cs)
);
},
{
closed = 1;
nodes = (
(514,637,l),
(514,754,l),
(353,705,l),
(298,677,l),
(153,637,l),
(153,527,l)
);
}
);
width = 614;
}
);
metricRight = o;
unicode = 240;
},
{
glyphname = e;
kernLeft = o;
kernRight = e;
lastChange = "2025-10-29 23:06:21 +0000";
layers = (
{
anchors = (
{
name = bottom;
pos = (310,0);
},
{
name = ogonek;
pos = (355,26);
},
{
name = top;
pos = (301,505);
}
);
hints = (
{
horizontal = 1;
origin = (0,32);
target = (0,6);
type = Stem;
},
{
horizontal = 1;
origin = (0,20);
target = (0,18);
type = Stem;
},
{
horizontal = 1;
origin = (0,26);
target = (0,13);
type = Stem;
},
{
place = (53,130);
type = Stem;
},
{
origin = (0,16);
target = (0,23);
type = Stem;
}
);
layerId = m006;
shapes = (
{
closed = 1;
nodes = (
(402,-13,o),
(481,26,o),
(524,75,c),
(435,165,l),
(409,129,o),
(361,107,o),
(311,107,cs),
(224,107,o),
(182,174,o),
(176,239,c),
(175,260,l),
(172,357,o),
(224,409,o),
(299,409,cs),
(379,409,o),
(414,357,o),
(411,265,c),
(451,316,l),
(121,316,l),
(121,216,l),
(543,216,l),
(546,225,o),
(547,245,o),
(547,262,cs),
(547,416,o),
(449,518,o),
(301,518,cs),
(153,518,o),
(40,419,o),
(40,249,cs),
(40,99,o),
(146,-13,o),
(308,-13,cs)
);
}
);
width = 587;
},
{
anchors = (
{
name = bottom;
pos = (286,0);
},
{
name = ogonek;
pos = (311,4);
},
{
name = top;
pos = (286,490);
}
);
hints = (
{
horizontal = 1;
origin = (0,32);
target = (0,6);
type = Stem;
},
{
horizontal = 1;
origin = (0,20);
target = (0,18);
type = Stem;
},
{
horizontal = 1;
origin = (0,26);
target = (0,13);
type = Stem;
},
{
origin = (0,29);
target = (0,13,0,18);
type = Stem;
},
{
origin = (0,16);
target = (0,23);
type = Stem;
}
);
layerId = "610C2E7D-EDB4-4EC2-BEB5-F0DB9FB0A101";
shapes = (
{
closed = 1;
nodes = (
(374,-13,o),
(447,19,o),
(493,80,c),
(436,129,l),
(401,81,o),
(355,61,o),
(287,61,cs),
(193,61,o),
(118,129,o),
(116,233,c),
(116,245,l),
(115,362,o),
(182,429,o),
(283,429,cs),
(389,429,o),
(445,352,o),
(441,245,c),
(469,284,l),
(75,284,l),
(75,214,l),
(519,214,l),
(521,223,o),
(521,236,o),
(521,246,cs),
(521,397,o),
(432,503,o),
(285,503,cs),
(139,503,o),
(36,392,o),
(36,246,cs),
(36,96,o),
(137,-13,o),
(286,-13,cs)
);
}
);
width = 557;
}
);
metricRight = "=o";
unicode = 101;
},
{
glyphname = f;
kernLeft = f;
kernRight = f;
lastChange = "2025-10-18 19:58:52 +0000";
layers = (
{
anchors = (
{
name = bottom;
pos = (180,0);
},
{
name = top;
pos = (279,740);
}
);
background = {
shapes = (
{
closed = 1;
nodes = (
(191,750,o),
(113,680,o),
(113,574,cs),
(113,107,l),
(248,93,l),
(248,563,ls),
(248,614,o),
(285,635,o),
(322,635,cs),
(350,635,o),
(374,632,o),
(392,627,c),
(392,741,l),
(363,747,o),
(343,750,o),
(301,750,cs)
);
},
{
closed = 1;
nodes = (
(20,232,l),
(392,232,l),
(392,340,l),
(20,340,l)
);
}
);
};
hints = (
{
horizontal = 1;
origin = (0,15);
target = up;
type = BottomGhost;
},
{
horizontal = 1;
origin = (1,2);
target = (1,3);
type = Stem;
},
{
horizontal = 1;
origin = (0,11);
target = (0,4);
type = Stem;
},
{
horizontal = 1;
origin = (0,8);
target = down;
type = TopGhost;
},
{
origin = (0,15);
target = (0,1);
type = Stem;
}
);
layerId = m006;
shapes = (
{
closed = 1;
nodes = (
(248,0,l),
(248,566,ls),
(248,617,o),
(286,638,o),
(330,638,cs),
(354,638,o),
(373,636,o),
(392,630,c),
(392,745,l),
(363,751,o),
(343,753,o),
(304,753,cs),
(191,753,o),
(113,683,o),
(113,568,cs),
(113,0,l)
);
},
{
closed = 1;
nodes = (
(392,385,l),
(392,505,l),
(20,505,l),
(20,385,l)
);
}
);
width = 412;
},
{
anchors = (
{
name = bottom;
pos = (155,0);
},
{
name = top;
pos = (242,740);
}
);
hints = (
{
horizontal = 1;
origin = (0,15);
target = up;
type = BottomGhost;
},
{
horizontal = 1;
origin = (1,2);
target = (1,3);
type = Stem;
},
{
horizontal = 1;
origin = (0,11);
target = (0,4);
type = Stem;
},
{
origin = (0,15);
target = (0,1);
type = Stem;
}
);
layerId = "610C2E7D-EDB4-4EC2-BEB5-F0DB9FB0A101";
shapes = (
{
closed = 1;
nodes = (
(197,0,l),
(197,584,ls),
(197,641,o),
(228,680,o),
(297,680,cs),
(325,680,o),
(347,679,o),
(369,672,c),
(369,743,l),
(337,751,o),
(320,753,o),
(285,753,cs),
(187,753,o),
(117,687,o),
(117,589,cs),
(117,0,l)
);
},
{
closed = 1;
nodes = (
(369,418,l),
(369,490,l),
(17,490,l),
(17,418,l)
);
}
);
width = 386;
}
);
unicode = 102;
},
{
glyphname = g;
kernLeft = o;
kernRight = g;
lastChange = "2025-10-27 02:24:52 +0000";
layers = (
{
anchors = (
{
name = bottom;
pos = (319,-220);
},
{
name = ogonek;
pos = (406,-220);
},
{
name = top;
pos = (309,505);
}
);
background = {
shapes = (
{
pos = (-10,0);
ref = a.ss01;
}
);
};
hints = (
{
horizontal = 1;
options = 4;
origin = (0,30);
target = (0,23);
type = TTStem;
},
{
horizontal = 1;
options = 4;
origin = (0,15);
target = (1,11);
type = TTStem;
},
{
horizontal = 1;
options = 4;
origin = (0,9);
target = (1,5);
type = TTStem;
},
{
horizontal = 1;
options = 4;
origin = (0,4);
target = (1,5);
type = TTStem;
},
{
horizontal = 1;
origin = (0,30);
target = (0,23);
type = Stem;
},
{
horizontal = 1;
origin = (0,15);
target = (1,11);
type = Stem;
},
{
horizontal = 1;
origin = (0,9);
target = (1,5);
type = Stem;
},
{
origin = (0,12);
target = (1,2);
type = Stem;
},
{
origin = (0,3);
target = (1,8);
type = Stem;
}
);
layerId = m006;
shapes = (
{
closed = 1;
nodes = (
(456,-233,o),
(584,-141,o),
(584,20,cs),
(584,505,l),
(453,505,l),
(453,429,l),
(447,429,l),
(428,484,o),
(362,518,o),
(290,518,cs),
(141,518,o),
(40,393,o),
(40,252,cs),
(40,112,o),
(141,-13,o),
(290,-13,cs),
(358,-13,o),
(424,21,o),
(443,74,c),
(449,74,l),
(449,28,ls),
(449,-56,o),
(385,-108,o),
(313,-108,cs),
(239,-108,o),
(197,-78,o),
(168,-19,c),
(56,-96,l),
(128,-211,o),
(209,-233,o),
(318,-233,cs)
);
},
{
closed = 1;
nodes = (
(233,110,o),
(175,171,o),
(175,253,cs),
(175,334,o),
(233,395,o),
(312,395,cs),
(391,395,o),
(449,334,o),
(449,252,cs),
(449,171,o),
(391,110,o),
(312,110,cs)
);
}
);
width = 654;
},
{
anchors = (
{
name = bottom;
pos = (283,-220);
},
{
name = ogonek;
pos = (374,-220);
},
{
name = top;
pos = (292,490);
}
);
background = {
shapes = (
{
closed = 1;
nodes = (
(159,-140,o),
(104,-81,o),
(96,-45,qs),
(95,-41,l),
(177,-41,l),
(179,-45,ls),
(191,-71,o),
(258,-102,o),
(308,-102,qs),
(373,-102,o),
(443,-35,o),
(443,22,qs),
(443,84,l),
(441,84,l),
(427,57,o),
(381,17,o),
(321,-5,o),
(285,-5,qs),
(224,-5,o),
(130,58,o),
(78,171,o),
(78,248,qs),
(78,248,ls),
(78,324,o),
(131,437,o),
(225,499,o),
(287,499,qs),
(322,499,o),
(381,476,o),
(426,434,o),
(441,407,q),
(443,407,l),
(443,490,l),
(525,490,l),
(525,14,ls),
(525,-43,o),
(472,-128,o),
(375,-174,o),
(309,-174,qs),
(249,-174,o)
);
},
{
closed = 1;
nodes = (
(408,113,o),
(443,194,o),
(443,248,qs),
(443,248,ls),
(443,302,o),
(408,382,o),
(345,427,o),
(303,427,qs),
(260,427,o),
(196,383,o),
(162,303,o),
(162,248,qs),
(162,248,ls),
(162,192,o),
(196,112,o),
(260,68,o),
(303,68,qs),
(345,68,o)
);
},
{
closed = 1;
nodes = (
(-310,490,l),
(-219,490,l),
(-101,306,l),
(-99,306,l),
(17,490,l),
(108,490,l),
(-57,248,l),
(106,0,l),
(15,0,l),
(-102,186,l),
(-104,186,l),
(-222,0,l),
(-313,0,l),
(-146,245,l)
);
}
);
};
hints = (
{
horizontal = 1;
origin = (0,30);
target = (0,23);
type = Stem;
},
{
horizontal = 1;
origin = (0,15);
target = (1,11);
type = Stem;
},
{
horizontal = 1;
origin = (0,9);
target = (1,5);
type = Stem;
},
{
horizontal = 1;
origin = (0,4);
target = down;
type = TopGhost;
},
{
origin = (0,12);
target = (1,2);
type = Stem;
},
{
origin = (0,3);
target = (0,19);
type = Stem;
}
);
layerId = "610C2E7D-EDB4-4EC2-BEB5-F0DB9FB0A101";
shapes = (
{
closed = 1;
nodes = (
(442,-230,o),
(553,-137,o),
(553,29,cs),
(553,490,l),
(477,490,l),
(477,398,l),
(471,398,l),
(438,458,o),
(379,503,o),
(289,503,cs),
(146,503,o),
(36,393,o),
(36,246,cs),
(36,99,o),
(146,-9,o),
(289,-9,cs),
(376,-9,o),
(437,37,o),
(467,97,c),
(473,97,l),
(473,27,ls),
(474,-84,o),
(395,-158,o),
(288,-158,cs),
(211,-158,o),
(158,-136,o),
(105,-78,c),
(45,-128,l),
(111,-210,o),
(198,-234,o),
(283,-233,cs)
);
},
{
closed = 1;
nodes = (
(185,65,o),
(116,147,o),
(116,247,cs),
(116,349,o),
(185,429,o),
(297,429,cs),
(411,429,o),
(472,346,o),
(472,246,cs),
(472,146,o),
(411,65,o),
(297,65,cs)
);
}
);
width = 625;
}
);
unicode = 103;
},
{
glyphname = h;
kernLeft = l;
kernRight = n;
lastChange = "2025-10-26 03:39:22 +0000";
layers = (
{
anchors = (
{
name = bar;
pos = (138,591);
},
{
name = bottom;
pos = (305,0);
},
{
name = ogonek;
pos = (405,0);
},
{
name = top;
pos = (138,740);
}
);
background = {
shapes = (
{
closed = 1;
nodes = (
(217,-15,l),
(217,270,ls),
(217,360,o),
(268,399,o),
(325,399,cs),
(392,399,o),
(437,360,o),
(437,270,cs),
(437,-15,l),
(572,-15,l),
(572,303,ls),
(572,434,o),
(486,517,o),
(375,517,cs),
(301,517,o),
(246,491,o),
(215,440,c),
(215,440,l),
(215,505,l),
(82,505,l),
(82,-15,l)
);
}
);
};
hints = (
{
horizontal = 1;
options = 4;
origin = (0,20);
target = (0,8);
type = TTShift;
},
{
horizontal = 1;
origin = (0,20);
target = up;
type = BottomGhost;
},
{
horizontal = 1;
origin = (0,13);
target = (0,4);
type = Stem;
},
{
horizontal = 1;
origin = (0,19);
target = down;
type = TopGhost;
},
{
origin = (0,20);
target = (0,18);
type = Stem;
},
{
origin = (0,8);
target = (0,10);
type = Stem;
}
);
layerId = m006;
shapes = (
{
closed = 1;
nodes = (
(205,0,l),
(205,291,ls),
(205,358,o),
(243,400,o),
(303,400,cs),
(366,400,o),
(405,358,o),
(405,291,cs),
(405,0,l),
(540,0,l),
(540,324,ls),
(540,435,o),
(454,518,o),
(357,518,cs),
(285,518,o),
(234,478,o),
(211,441,c),
(205,441,l),
(205,740,l),
(70,740,l),
(70,0,l)
);
}
);
width = 605;
},
{
anchors = (
{
name = bar;
pos = (112,586);
},
{
name = bottom;
pos = (290,0);
},
{
name = ogonek;
pos = (412,0);
},
{
name = top;
pos = (112,740);
}
);
background = {
shapes = (
{
attr = {
strokeHeight = 73;
strokeWidth = 80;
};
closed = 1;
nodes = (
(350,1688,o),
(401,1733,o),
(425,1795,c),
(424,1794,l),
(432,1794,l),
(431,1795,l),
(431,1700,l),
(511,1700,l),
(511,2021,ls),
(511,2140,o),
(414,2203,o),
(312,2203,cs),
(224,2203,o),
(165,2175,o),
(107,2113,c),
(161,2058,l),
(204,2106,o),
(251,2130,o),
(308,2130,cs),
(376,2130,o),
(431,2095,o),
(431,2023,cs),
(431,1986,l),
(452,2003,l),
(213,2030,o),
(104,1961,o),
(104,1837,cs),
(104,1752,o),
(174,1688,o),
(261,1688,cs)
);
},
{
attr = {
strokeHeight = 73;
strokeWidth = 80;
};
closed = 1;
nodes = (
(225,1756,o),
(182,1789,o),
(182,1844,cs),
(182,1927,o),
(274,1945,o),
(361,1945,cs),
(395,1945,o),
(431,1942,o),
(450,1937,c),
(431,1966,l),
(431,1923,ls),
(431,1824,o),
(381,1756,o),
(290,1756,cs)
);
},
{
attr = {
strokeHeight = 73;
strokeWidth = 80;
};
closed = 1;
nodes = (
(463,1687,o),
(567,1795,o),
(567,1945,cs),
(567,2094,o),
(463,2201,o),
(318,2201,cs),
(174,2201,o),
(70,2093,o),
(70,1943,cs),
(70,1794,o),
(174,1687,o),
(318,1687,cs)
);
},
{
attr = {
strokeHeight = 73;
strokeWidth = 80;
};
closed = 1;
nodes = (
(212,1761,o),
(150,1841,o),
(150,1944,cs),
(150,2049,o),
(212,2127,o),
(318,2127,cs),
(424,2127,o),
(487,2047,o),
(487,1944,cs),
(487,1839,o),
(424,1761,o),
(318,1761,cs)
);
},
{
attr = {
strokeHeight = 73;
strokeWidth = 80;
};
closed = 1;
nodes = (
(160,1700,l),
(160,1955,ls),
(160,2060,o),
(221,2129,o),
(314,2129,cs),
(407,2129,o),
(463,2062,o),
(463,1955,cs),
(463,1700,l),
(543,1700,l),
(543,1973,ls),
(543,2104,o),
(455,2202,o),
(340,2202,cs),
(259,2202,o),
(185,2152,o),
(165,2095,c),
(167,2096,l),
(158,2096,l),
(159,2095,l),
(159,2450,l),
(80,2450,l),
(80,1700,l)
);
},
{
attr = {
strokeHeight = 73;
strokePos = 1;
strokeWidth = 80;
};
closed = 0;
nodes = (
(160,800,l),
(160,1085,ls),
(160,1170,o),
(221,1229,o),
(314,1229,cs),
(389,1229,o),
(443,1173,o),
(443,1085,cs),
(443,800,l)
);
},
{
closed = 1;
nodes = (
(152,0,l),
(152,296,ls),
(152,378,o),
(207,429,o),
(294,429,cs),
(366,429,o),
(412,378,o),
(412,296,cs),
(412,0,l),
(492,0,l),
(492,314,ls),
(492,431,o),
(416,503,o),
(306,503,cs),
(223,503,o),
(179,463,o),
(152,416,c),
(147,416,l),
(147,490,l),
(72,490,l),
(72,0,l)
);
}
);
};
hints = (
{
horizontal = 1;
options = 4;
origin = (0,20);
target = (0,8);
type = TTShift;
},
{
horizontal = 1;
origin = (0,20);
target = up;
type = BottomGhost;
},
{
horizontal = 1;
origin = (0,13);
target = (0,4);
type = Stem;
},
{
horizontal = 1;
origin = (0,19);
target = down;
type = TopGhost;
},
{
origin = (0,20);
target = (0,18);
type = Stem;
},
{
origin = (0,8);
target = (0,10);
type = Stem;
}
);
layerId = "610C2E7D-EDB4-4EC2-BEB5-F0DB9FB0A101";
shapes = (
{
closed = 1;
nodes = (
(152,0,l),
(152,296,ls),
(152,378,o),
(208,429,o),
(296,429,cs),
(369,429,o),
(412,378,o),
(412,296,cs),
(412,0,l),
(492,0,l),
(492,314,ls),
(492,431,o),
(418,503,o),
(308,503,cs),
(230,503,o),
(185,463,o),
(158,416,c),
(152,416,l),
(152,740,l),
(72,740,l),
(72,0,l)
);
}
);
width = 559;
}
);
metricRight = n;
unicode = 104;
},
{
glyphname = idotless;
kernLeft = n;
kernRight = u;
lastChange = "2025-08-19 00:55:13 +0000";
layers = (
{
anchors = (
{
name = bottom;
pos = (138,0);
},
{
name = ogonek;
pos = (117,0);
},
{
name = top;
pos = (138,505);
}
);
hints = (
{
horizontal = 1;
origin = (0,3);
target = up;
type = BottomGhost;
},
{
horizontal = 1;
origin = (0,2);
target = down;
type = TopGhost;
},
{
origin = (0,3);
target = (0,1);
type = Stem;
}
);
layerId = m006;
shapes = (
{
closed = 1;
nodes = (
(205,0,l),
(205,505,l),
(70,505,l),
(70,0,l)
);
}
);
width = 275;
},
{
anchors = (
{
name = bottom;
pos = (112,0);
},
{
name = ogonek;
pos = (74,0);
},
{
name = top;
pos = (112,490);
}
);
hints = (
{
horizontal = 1;
origin = (0,3);
target = up;
type = BottomGhost;
},
{
horizontal = 1;
origin = (0,2);
target = down;
type = TopGhost;
},
{
origin = (0,3);
target = (0,1);
type = Stem;
}
);
layerId = "610C2E7D-EDB4-4EC2-BEB5-F0DB9FB0A101";
shapes = (
{
closed = 1;
nodes = (
(152,0,l),
(152,490,l),
(72,490,l),
(72,0,l)
);
}
);
width = 224;
}
);
unicode = 305;
},
{
glyphname = jdotless;
kernLeft = n;
kernRight = u;
lastChange = "2025-08-15 01:54:14 +0000";
layers = (
{
anchors = (
{
name = bottom;
pos = (46,-233);
},
{
name = ogonek;
pos = (60,-233);
},
{
name = top;
pos = (137,505);
}
);
hints = (
{
horizontal = 1;
origin = (0,15);
target = (0,8);
type = Stem;
},
{
horizontal = 1;
origin = (0,4);
target = down;
type = TopGhost;
},
{
horizontal = 1;
origin = (0,12);
target = up;
type = BottomGhost;
},
{
origin = (0,3);
target = (0,5);
type = Stem;
}
);
layerId = m006;
shapes = (
{
closed = 1;
nodes = (
(149,-233,o),
(205,-170,o),
(205,-67,cs),
(205,505,l),
(70,505,l),
(70,-60,ls),
(70,-93,o),
(54,-110,o),
(24,-110,cs),
(10,-110,o),
(-3,-108,o),
(-16,-103,c),
(-35,-223,l),
(-10,-230,o),
(16,-233,o),
(46,-233,cs)
);
}
);
width = 275;
},
{
anchors = (
{
name = bottom;
pos = (22,-233);
},
{
name = ogonek;
pos = (36,-233);
},
{
name = top;
pos = (112,490);
}
);
hints = (
{
horizontal = 1;
origin = (0,15);
target = (0,8);
type = Stem;
},
{
horizontal = 1;
origin = (0,4);
target = down;
type = TopGhost;
},
{
origin = (0,3);
target = (0,5);
type = Stem;
}
);
layerId = "610C2E7D-EDB4-4EC2-BEB5-F0DB9FB0A101";
shapes = (
{
closed = 1;
nodes = (
(92,-233,o),
(152,-187,o),
(152,-84,cs),
(152,490,l),
(72,490,l),
(72,-81,ls),
(72,-142,o),
(41,-162,o),
(-1,-162,cs),
(-17,-162,o),
(-28,-160,o),
(-47,-154,c),
(-60,-224,l),
(-36,-230,o),
(-15,-233,o),
(7,-233,cs)
);
}
);
width = 224;
}
);
unicode = 567;
},
{
glyphname = k;
kernLeft = l;
kernRight = k;
lastChange = "2025-10-26 03:39:43 +0000";
layers = (
{
anchors = (
{
name = bottom;
pos = (289,0);
},
{
name = top;
pos = (289,740);
}
);
background = {
shapes = (
{
closed = 1;
nodes = (
(536,0,l),
(247,327,l),
(265,222,l),
(535,490,l),
(354,490,l),
(78,193,l),
(93,324,l),
(367,0,l)
);
},
{
closed = 1;
nodes = (
(533,740,l),
(398,740,l),
(398,310,l),
(393,310,l),
(223,505,l),
(41,505,l),
(249,288,l),
(40,0,l),
(209,0,l),
(393,250,l),
(398,250,l),
(398,0,l),
(533,0,l)
);
}
);
};
hints = (
{
horizontal = 1;
origin = (0,12);
target = up;
type = BottomGhost;
},
{
horizontal = 1;
origin = (0,2);
target = (0,9);
type = Stem;
},
{
horizontal = 1;
origin = (0,7);
target = down;
type = TopGhost;
},
{
horizontal = 1;
origin = (0,11);
target = down;
type = TopGhost;
},
{
origin = (0,12);
target = (0,10);
type = Stem;
}
);
layerId = m006;
shapes = (
{
closed = 1;
nodes = (
(205,0,l),
(205,250,l),
(210,250,l),
(394,0,l),
(553,1,l),
(344,288,l),
(552,505,l),
(380,505,l),
(210,310,l),
(205,310,l),
(205,740,l),
(70,740,l),
(70,0,l)
);
}
);
width = 578;
},
{
anchors = (
{
name = bottom;
pos = (263,0);
},
{
name = top;
pos = (263,740);
}
);
background = {
shapes = (
{
closed = 1;
nodes = (
(154,0,l),
(154,254,l),
(157,254,l),
(387,0,l),
(498,0,l),
(246,273,l),
(484,490,l),
(368,490,l),
(157,284,l),
(154,284,l),
(154,740,l),
(72,740,l),
(72,0,l)
);
}
);
};
hints = (
{
horizontal = 1;
origin = (0,12);
target = up;
type = BottomGhost;
},
{
horizontal = 1;
origin = (0,2);
target = (0,9);
type = Stem;
},
{
horizontal = 1;
origin = (0,7);
target = down;
type = TopGhost;
},
{
horizontal = 1;
origin = (0,11);
target = down;
type = TopGhost;
},
{
origin = (0,12);
target = (0,0);
type = Stem;
}
);
layerId = "610C2E7D-EDB4-4EC2-BEB5-F0DB9FB0A101";
shapes = (
{
closed = 1;
nodes = (
(154,0,l),
(154,254,l),
(157,254,l),
(387,0,l),
(498,0,l),
(246,273,l),
(484,490,l),
(368,490,l),
(157,284,l),
(154,284,l),
(154,740,l),
(72,740,l),
(72,0,l)
);
}
);
width = 525;
}
);
unicode = 107;
},
{
glyphname = kgreenlandic;
kernLeft = n;
kernRight = k;
lastChange = "2025-10-24 01:54:21 +0000";
layers = (
{
layerId = "610C2E7D-EDB4-4EC2-BEB5-F0DB9FB0A101";
shapes = (
{
closed = 1;
nodes = (
(154,0,l),
(154,254,l),
(157,254,l),
(387,0,l),
(498,0,l),
(246,273,l),
(484,490,l),
(368,490,l),
(157,284,l),
(154,284,l),
(154,490,l),
(72,490,l),
(72,0,l)
);
}
);
width = 525;
},
{
background = {
shapes = (
{
closed = 1;
nodes = (
(593,0,l),
(286,344,l),
(305,233,l),
(592,520,l),
(400,520,l),
(107,202,l),
(123,341,l),
(414,0,l)
);
}
);
};
layerId = m006;
shapes = (
{
closed = 1;
nodes = (
(205,0,l),
(205,236,l),
(210,236,l),
(394,0,l),
(553,0,l),
(344,274,l),
(552,505,l),
(380,505,l),
(210,296,l),
(205,296,l),
(205,505,l),
(70,505,l),
(70,0,l)
);
}
);
width = 578;
}
);
metricRight = k;
unicode = 312;
},
{
glyphname = l;
kernLeft = l;
kernRight = l;
lastChange = "2025-10-26 03:39:14 +0000";
layers = (
{
anchors = (
{
name = bottom;
pos = (138,0);
},
{
name = center;
pos = (138,393);
},
{
name = ogonek;
pos = (205,0);
},
{
name = top;
pos = (138,740);
},
{
name = topright;
pos = (255,740);
}
);
hints = (
{
horizontal = 1;
origin = (0,4);
target = up;
type = BottomGhost;
},
{
horizontal = 1;
origin = (0,2);
target = down;
type = TopGhost;
},
{
origin = (0,4);
target = (0,1);
type = Stem;
}
);
layerId = m006;
shapes = (
{
closed = 1;
nodes = (
(205,0,l),
(205,740,l),
(70,740,l),
(70,111,l),
(70,0,l)
);
}
);
width = 275;
},
{
anchors = (
{
name = bottom;
pos = (112,0);
},
{
name = center;
pos = (112,393);
},
{
name = ogonek;
pos = (152,0);
},
{
name = top;
pos = (112,740);
},
{
name = topright;
pos = (202,740);
}
);
hints = (
{
horizontal = 1;
origin = (0,4);
target = up;
type = BottomGhost;
},
{
horizontal = 1;
origin = (0,2);
target = down;
type = TopGhost;
},
{
origin = (0,4);
target = (0,1);
type = Stem;
},
{
horizontal = 1;
options = 4;
origin = (0,4);
type = TTSnap;
},
{
horizontal = 1;
options = 4;
origin = (0,2);
type = TTSnap;
}
);
layerId = "610C2E7D-EDB4-4EC2-BEB5-F0DB9FB0A101";
shapes = (
{
closed = 1;
nodes = (
(152,0,l),
(152,740,l),
(72,740,l),
(72,141,l),
(72,0,l)
);
}
);
width = 224;
}
);
unicode = 108;
},
{
glyphname = lslash;
kernLeft = l;
kernRight = l;
lastChange = "2025-10-26 04:30:56 +0000";
layers = (
{
background = {
shapes = (
{
closed = 1;
nodes = (
(216,0,l),
(216,740,l),
(81,740,l),
(81,111,l),
(81,0,l)
);
},
{
closed = 1;
nodes = (
(142,331,l),
(153,331,l),
(295,421,l),
(295,546,l),
(153,456,l),
(142,456,l),
(4,368,l),
(4,243,l)
);
}
);
};
layerId = "610C2E7D-EDB4-4EC2-BEB5-F0DB9FB0A101";
shapes = (
{
ref = l;
},
{
closed = 1;
nodes = (
(106,343,l),
(116,343,l),
(224,414,l),
(224,490,l),
(116,419,l),
(106,419,l),
(0,349,l),
(0,273,l)
);
}
);
width = 224;
},
{
background = {
shapes = (
{
closed = 1;
nodes = (
(143,283,l),
(153,283,l),
(282,373,l),
(282,499,l),
(153,397,l),
(143,409,l),
(17,321,l),
(17,195,l)
);
},
{
closed = 1;
nodes = (
(216,0,l),
(216,730,l),
(81,730,l),
(81,0,l)
);
}
);
};
layerId = m006;
shapes = (
{
pos = (11,0);
ref = l;
},
{
closed = 1;
nodes = (
(142,331,l),
(153,331,l),
(295,421,l),
(295,546,l),
(153,456,l),
(142,456,l),
(4,368,l),
(4,243,l)
);
}
);
width = 300;
}
);
unicode = 322;
},
{
glyphname = m;
kernLeft = n;
kernRight = n;
lastChange = "2025-10-18 22:35:57 +0000";
layers = (
{
anchors = (
{
name = bottom;
pos = (472,0);
},
{
name = ogonek;
pos = (730,0);
},
{
name = top;
pos = (476,505);
}
);
background = {
shapes = (
{
attr = {
strokeHeight = 123;
strokePos = 1;
strokeWidth = 135;
};
closed = 0;
nodes = (
(205,0,l),
(205,290,ls),
(205,357,o),
(243,399,o),
(303,399,cs),
(366,399,o),
(405,357,o),
(405,290,cs),
(405,0,l),
(540,0,l),
(540,290,ls),
(540,357,o),
(577,399,o),
(636,399,cs),
(694,399,o),
(730,357,o),
(730,290,cs),
(730,0,l)
);
},
{
closed = 1;
nodes = (
(-495,700,l),
(-495,990,ls),
(-495,1057,o),
(-457,1099,o),
(-397,1099,cs),
(-334,1099,o),
(-295,1057,o),
(-295,990,cs),
(-295,700,l),
(-160,700,l),
(-160,990,ls),
(-160,1057,o),
(-123,1099,o),
(-64,1099,cs),
(-6,1099,o),
(30,1057,o),
(30,990,cs),
(30,700,l),
(165,700,l),
(165,1023,ls),
(165,1134,o),
(79,1218,o),
(-23,1218,cs),
(-128,1218,o),
(-162,1171,o),
(-186,1133,c),
(-192,1133,l),
(-213,1171,o),
(-274,1218,o),
(-348,1218,cs),
(-415,1218,o),
(-456,1186,o),
(-489,1137,c),
(-495,1137,l),
(-495,1205,l),
(-630,1205,l),
(-630,700,l)
);
},
{
closed = 1;
nodes = (
(205,0,l),
(205,290,ls),
(205,357,o),
(243,399,o),
(303,399,cs),
(366,399,o),
(405,357,o),
(405,290,cs),
(405,0,l),
(540,0,l),
(540,323,ls),
(540,434,o),
(454,517,o),
(357,517,cs),
(279,517,o),
(228,477,o),
(205,440,c),
(199,440,l),
(199,505,l),
(70,505,l),
(70,0,l)
);
}
);
};
guides = (
{
pos = (202,437);
}
);
hints = (
{
horizontal = 1;
options = 4;
origin = (0,36);
target = (0,8);
type = TTShift;
},
{
horizontal = 1;
options = 4;
origin = (0,8);
target = (0,17);
type = TTShift;
},
{
horizontal = 1;
origin = (0,36);
target = up;
type = BottomGhost;
},
{
horizontal = 1;
origin = (0,35);
target = down;
type = TopGhost;
},
{
origin = (0,36);
target = (0,0);
type = Stem;
},
{
origin = (0,8);
target = (0,9);
type = Stem;
},
{
origin = (0,17);
target = (0,18);
type = Stem;
},
{
horizontal = 1;
origin = (0,29);
target = (0,4);
type = Stem;
},
{
horizontal = 1;
origin = (0,22);
target = (0,13);
type = Stem;
}
);
layerId = m006;
shapes = (
{
closed = 1;
nodes = (
(205,0,l),
(205,290,ls),
(205,357,o),
(243,399,o),
(303,399,cs),
(366,399,o),
(405,357,o),
(405,290,cs),
(405,0,l),
(540,0,l),
(540,290,ls),
(540,357,o),
(577,399,o),
(636,399,cs),
(694,399,o),
(730,357,o),
(730,290,cs),
(730,0,l),
(865,0,l),
(865,323,ls),
(865,434,o),
(784,518,o),
(677,518,cs),
(606,518,o),
(541,485,o),
(508,433,c),
(502,433,l),
(474,485,o),
(416,518,o),
(352,518,cs),
(293,518,o),
(236,487,o),
(207,437,c),
(201,437,l),
(201,505,l),
(70,505,l),
(70,0,l)
);
}
);
width = 930;
},
{
anchors = (
{
name = bottom;
pos = (437,0);
},
{
name = ogonek;
pos = (731,0);
},
{
name = top;
pos = (445,490);
}
);
background = {
hints = (
{
horizontal = 1;
options = 4;
type = TTSnap;
},
{
horizontal = 1;
options = 4;
place = (503,74);
type = TTStem;
},
{
horizontal = 1;
options = 4;
type = TTSnap;
},
{
horizontal = 1;
place = (0,21);
target = up;
type = BottomGhost;
},
{
horizontal = 1;
place = (503,74);
type = Stem;
},
{
horizontal = 1;
place = (490,-20);
target = down;
type = TopGhost;
},
{
place = (72,80);
type = Stem;
},
{
horizontal = 1;
options = 4;
place = (0,0);
type = TTShift;
}
);
shapes = (
{
closed = 1;
nodes = (
(152,600,l),
(152,896,ls),
(152,978,o),
(206,1029,o),
(294,1029,cs),
(367,1029,o),
(412,978,o),
(412,896,cs),
(412,600,l),
(492,600,l),
(492,914,ls),
(492,1031,o),
(416,1103,o),
(306,1103,cs),
(228,1103,o),
(185,1063,o),
(158,1016,c),
(152,1016,l),
(152,1090,l),
(72,1090,l),
(72,600,l)
);
},
{
closed = 1;
nodes = (
(483,600,l),
(483,896,ls),
(483,978,o),
(537,1029,o),
(625,1029,cs),
(698,1029,o),
(743,978,o),
(743,896,cs),
(743,600,l),
(823,600,l),
(823,914,ls),
(823,1031,o),
(747,1103,o),
(637,1103,cs),
(559,1103,o),
(516,1063,o),
(489,1016,c),
(483,1016,l),
(483,1090,l),
(403,1090,l),
(403,600,l)
);
},
{
attr = {
strokeHeight = 74;
strokePos = 1;
strokeWidth = 80;
};
closed = 0;
nodes = (
(152,0,l),
(152,307,ls),
(152,381,o),
(201,429,o),
(278,429,cs),
(355,429,o),
(403,381,o),
(403,307,cs),
(403,0,l),
(483,0,l),
(483,314,ls),
(483,384,o),
(531,429,o),
(607,429,cs),
(683,429,o),
(731,381,o),
(731,307,cs),
(731,0,l)
);
},
{
closed = 1;
nodes = (
(-448,600,l),
(-448,907,ls),
(-448,981,o),
(-399,1029,o),
(-322,1029,cs),
(-245,1029,o),
(-197,981,o),
(-197,907,cs),
(-197,600,l),
(-117,600,l),
(-117,914,ls),
(-117,984,o),
(-69,1029,o),
(7,1029,cs),
(83,1029,o),
(131,981,o),
(131,907,cs),
(131,600,l),
(211,600,l),
(211,926,ls),
(211,1032,o),
(122,1103,o),
(21,1103,cs),
(-62,1103,o),
(-109,1055,o),
(-127,1008,c),
(-133,1008,l),
(-152,1055,o),
(-214,1103,o),
(-300,1103,cs),
(-377,1103,o),
(-423,1055,o),
(-443,1024,c),
(-448,1024,l),
(-448,1090,l),
(-528,1090,l),
(-528,600,l)
);
},
{
closed = 1;
nodes = (
(142,0,l),
(142,296,ls),
(142,378,o),
(196,429,o),
(284,429,cs),
(357,429,o),
(402,378,o),
(402,296,cs),
(402,0,l),
(482,0,l),
(482,314,ls),
(482,431,o),
(406,503,o),
(296,503,cs),
(218,503,o),
(175,463,o),
(148,416,c),
(142,416,l),
(142,490,l),
(62,490,l),
(62,0,l)
);
}
);
};
hints = (
{
horizontal = 1;
origin = (0,36);
target = up;
type = BottomGhost;
},
{
horizontal = 1;
origin = (0,35);
target = down;
type = TopGhost;
},
{
horizontal = 1;
options = 4;
origin = (0,36);
target = (0,8);
type = TTShift;
},
{
horizontal = 1;
options = 4;
origin = (0,8);
target = (0,17);
type = TTShift;
},
{
origin = (0,36);
target = (0,0);
type = Stem;
},
{
origin = (0,8);
target = (0,9);
type = Stem;
},
{
origin = (0,17);
target = (0,18);
type = Stem;
},
{
horizontal = 1;
origin = (0,29);
target = (0,4);
type = Stem;
},
{
horizontal = 1;
origin = (0,22);
target = (0,13);
type = Stem;
}
);
layerId = "610C2E7D-EDB4-4EC2-BEB5-F0DB9FB0A101";
shapes = (
{
closed = 1;
nodes = (
(152,0,l),
(152,307,ls),
(152,381,o),
(201,429,o),
(278,429,cs),
(364,429,o),
(403,381,o),
(403,307,cs),
(403,0,l),
(483,0,l),
(483,314,ls),
(483,384,o),
(531,429,o),
(607,429,cs),
(683,429,o),
(731,381,o),
(731,307,cs),
(731,0,l),
(811,0,l),
(811,326,ls),
(811,427,o),
(730,503,o),
(621,503,cs),
(543,503,o),
(479,469,o),
(458,416,c),
(452,416,l),
(429,469,o),
(372,503,o),
(300,503,cs),
(237,503,o),
(180,473,o),
(154,424,c),
(148,424,l),
(148,490,l),
(72,490,l),
(72,0,l)
);
}
);
width = 878;
}
);
metricRight = n;
unicode = 109;
},
{
glyphname = n;
kernLeft = n;
kernRight = n;
lastChange = "2025-10-27 01:18:11 +0000";
layers = (
{
anchors = (
{
name = bottom;
pos = (303,0);
},
{
name = ogonek;
pos = (405,0);
},
{
name = top;
pos = (325,505);
}
);
background = {
shapes = (
{
closed = 1;
nodes = (
(217,-15,l),
(217,270,ls),
(217,360,o),
(268,399,o),
(325,399,cs),
(392,399,o),
(437,360,o),
(437,270,cs),
(437,-15,l),
(572,-15,l),
(572,303,ls),
(572,434,o),
(486,517,o),
(375,517,cs),
(301,517,o),
(246,491,o),
(215,440,c),
(215,440,l),
(215,505,l),
(82,505,l),
(82,-15,l)
);
}
);
};
hints = (
{
horizontal = 1;
options = 4;
origin = (0,20);
target = (0,8);
type = TTShift;
},
{
horizontal = 1;
origin = (0,20);
target = up;
type = BottomGhost;
},
{
horizontal = 1;
origin = (0,13);
target = (0,4);
type = Stem;
},
{
origin = (0,8);
target = (0,10);
type = Stem;
},
{
horizontal = 1;
origin = (0,19);
target = down;
type = TopGhost;
},
{
origin = (0,20);
target = (0,0);
type = Stem;
}
);
layerId = m006;
shapes = (
{
closed = 1;
nodes = (
(205,0,l),
(205,290,ls),
(205,357,o),
(243,399,o),
(303,399,cs),
(366,399,o),
(405,357,o),
(405,290,cs),
(405,0,l),
(540,0,l),
(540,323,ls),
(540,434,o),
(454,517,o),
(357,517,cs),
(281,517,o),
(230,477,o),
(207,440,c),
(201,440,l),
(201,505,l),
(70,505,l),
(70,0,l)
);
}
);
width = 605;
},
{
anchors = (
{
name = bottom;
pos = (288,0);
},
{
name = ogonek;
pos = (412,0);
},
{
name = top;
pos = (299,490);
}
);
background = {
shapes = (
{
closed = 1;
nodes = (
(152,0,l),
(152,296,ls),
(152,378,o),
(206,429,o),
(294,429,cs),
(367,429,o),
(412,378,o),
(412,296,cs),
(412,0,l),
(492,0,l),
(492,314,ls),
(492,431,o),
(416,503,o),
(306,503,cs),
(228,503,o),
(185,463,o),
(158,416,c),
(152,416,l),
(152,740,l),
(72,740,l),
(72,0,l)
);
}
);
};
hints = (
{
horizontal = 1;
options = 4;
type = TTSnap;
},
{
horizontal = 1;
options = 4;
place = (503,-74);
type = TTStem;
},
{
horizontal = 1;
options = 4;
type = TTSnap;
},
{
horizontal = 1;
place = (0,21);
target = up;
type = BottomGhost;
},
{
horizontal = 1;
place = (503,-74);
type = Stem;
},
{
horizontal = 1;
place = (490,-20);
target = down;
type = TopGhost;
},
{
place = (72,80);
type = Stem;
},
{
place = (411,80);
type = Stem;
},
{
horizontal = 1;
options = 4;
place = (0,0);
type = TTShift;
}
);
layerId = "610C2E7D-EDB4-4EC2-BEB5-F0DB9FB0A101";
shapes = (
{
closed = 1;
nodes = (
(152,0,l),
(152,296,ls),
(152,378,o),
(207,429,o),
(294,429,cs),
(366,429,o),
(412,378,o),
(412,296,cs),
(412,0,l),
(492,0,l),
(492,314,ls),
(492,431,o),
(416,503,o),
(306,503,cs),
(225,503,o),
(181,463,o),
(154,416,c),
(148,416,l),
(148,490,l),
(72,490,l),
(72,0,l)
);
}
);
width = 559;
}
);
unicode = 110;
},
{
glyphname = eng;
kernLeft = n;
kernRight = j;
lastChange = "2025-10-26 03:46:19 +0000";
layers = (
{
hints = (
{
horizontal = 1;
options = 4;
type = TTSnap;
},
{
horizontal = 1;
options = 4;
place = (503,-74);
type = TTStem;
},
{
horizontal = 1;
options = 4;
type = TTSnap;
},
{
horizontal = 1;
place = (0,21);
target = up;
type = BottomGhost;
},
{
horizontal = 1;
place = (503,-74);
type = Stem;
},
{
horizontal = 1;
place = (490,-20);
target = down;
type = TopGhost;
},
{
place = (72,80);
type = Stem;
},
{
place = (411,80);
type = Stem;
},
{
horizontal = 1;
options = 4;
place = (0,0);
type = TTShift;
}
);
layerId = "610C2E7D-EDB4-4EC2-BEB5-F0DB9FB0A101";
shapes = (
{
closed = 1;
nodes = (
(152,0,l),
(152,296,ls),
(152,378,o),
(207,429,o),
(294,429,cs),
(366,429,o),
(412,378,o),
(412,296,cs),
(412,-81,ls),
(412,-142,o),
(381,-162,o),
(339,-162,cs),
(323,-162,o),
(312,-160,o),
(293,-154,c),
(280,-224,l),
(304,-230,o),
(325,-233,o),
(347,-233,cs),
(432,-233,o),
(492,-187,o),
(492,-84,cs),
(492,314,ls),
(492,431,o),
(416,503,o),
(306,503,cs),
(225,503,o),
(181,463,o),
(154,416,c),
(148,416,l),
(148,490,l),
(72,490,l),
(72,0,l)
);
}
);
width = 559;
},
{
hints = (
{
horizontal = 1;
options = 4;
origin = (0,32);
target = (0,0);
type = TTShift;
},
{
horizontal = 1;
origin = (0,32);
target = up;
type = BottomGhost;
},
{
horizontal = 1;
origin = (0,25);
target = (0,4);
type = Stem;
},
{
origin = (0,8);
target = (0,22);
type = Stem;
},
{
horizontal = 1;
origin = (0,31);
target = down;
type = TopGhost;
},
{
origin = (0,32);
target = (0,0);
type = Stem;
}
);
layerId = m006;
shapes = (
{
closed = 1;
nodes = (
(205,0,l),
(205,290,ls),
(205,357,o),
(243,399,o),
(303,399,cs),
(366,399,o),
(405,357,o),
(405,290,cs),
(405,-60,ls),
(405,-93,o),
(389,-110,o),
(359,-110,cs),
(345,-110,o),
(332,-108,o),
(319,-103,c),
(300,-223,l),
(325,-230,o),
(351,-233,o),
(381,-233,cs),
(484,-233,o),
(540,-170,o),
(540,-67,cs),
(540,323,ls),
(540,434,o),
(454,517,o),
(357,517,cs),
(281,517,o),
(230,477,o),
(207,440,c),
(201,440,l),
(201,505,l),
(70,505,l),
(70,0,l)
);
}
);
width = 605;
}
);
metricRight = n;
unicode = 331;
},
{
glyphname = o;
kernLeft = o;
kernRight = o;
lastChange = "2025-10-27 04:22:43 +0000";
layers = (
{
anchors = (
{
name = bottom;
pos = (307,0);
},
{
name = center;
pos = (307,260);
},
{
name = ogonek;
pos = (375,-5);
},
{
name = top;
pos = (307,505);
},
{
name = topright;
pos = (472,505);
}
);
background = {
shapes = (
{
closed = 1;
nodes = (
(470,-13,o),
(574,99,o),
(574,242,cs),
(574,385,o),
(470,498,o),
(317,498,cs),
(164,498,o),
(60,385,o),
(60,242,cs),
(60,99,o),
(164,-13,o),
(317,-13,cs)
);
},
{
closed = 1;
nodes = (
(239,110,o),
(195,168,o),
(195,242,cs),
(195,316,o),
(239,375,o),
(317,375,cs),
(395,375,o),
(439,316,o),
(439,242,cs),
(439,168,o),
(395,110,o),
(317,110,cs)
);
}
);
};
hints = (
{
horizontal = 1;
origin = (0,11);
target = (1,11);
type = Stem;
},
{
horizontal = 1;
origin = (0,5);
target = (1,5);
type = Stem;
},
{
origin = (0,8);
target = (1,2);
type = Stem;
},
{
origin = (1,8);
target = (0,2);
type = Stem;
}
);
layerId = m006;
shapes = (
{
closed = 1;
nodes = (
(460,-13,o),
(574,101,o),
(574,252,cs),
(574,404,o),
(460,518,o),
(307,518,cs),
(154,518,o),
(40,404,o),
(40,252,cs),
(40,101,o),
(154,-13,o),
(307,-13,cs)
);
},
{
closed = 1;
nodes = (
(231,110,o),
(175,165,o),
(175,252,cs),
(175,340,o),
(231,395,o),
(307,395,cs),
(383,395,o),
(439,340,o),
(439,252,cs),
(439,165,o),
(383,110,o),
(307,110,cs)
);
}
);
width = 614;
},
{
anchors = (
{
name = bottom;
pos = (284,0);
},
{
name = center;
pos = (284,244);
},
{
name = ogonek;
pos = (290,0);
},
{
name = top;
pos = (284,490);
},
{
name = topright;
pos = (451,490);
}
);
background = {
shapes = (
{
pos = (-16,0);
ref = n;
}
);
};
hints = (
{
horizontal = 1;
origin = (0,11);
target = (1,11);
type = Stem;
},
{
horizontal = 1;
origin = (0,5);
target = (1,5);
type = Stem;
},
{
origin = (0,8);
target = (1,2);
type = Stem;
},
{
origin = (1,8);
target = (0,2);
type = Stem;
}
);
layerId = "610C2E7D-EDB4-4EC2-BEB5-F0DB9FB0A101";
shapes = (
{
closed = 1;
nodes = (
(429,-13,o),
(533,95,o),
(533,246,cs),
(533,396,o),
(429,503,o),
(284,503,cs),
(140,503,o),
(36,395,o),
(36,244,cs),
(36,94,o),
(140,-13,o),
(284,-13,cs)
);
},
{
closed = 1;
nodes = (
(181,61,o),
(116,141,o),
(116,245,cs),
(116,351,o),
(181,429,o),
(284,429,cs),
(387,429,o),
(453,349,o),
(453,245,cs),
(453,139,o),
(387,61,o),
(284,61,cs)
);
}
);
width = 569;
}
);
unicode = 111;
},
{
glyphname = oe;
kernLeft = o;
kernRight = e;
lastChange = "2025-10-18 16:13:20 +0000";
layers = (
{
anchors = (
{
name = bottom;
pos = (492,0);
},
{
name = top;
pos = (492,490);
}
);
hints = (
{
horizontal = 1;
origin = (0,11);
target = (1,11);
type = Stem;
},
{
horizontal = 1;
origin = (0,5);
target = (1,5);
type = Stem;
},
{
origin = (0,8);
target = (1,2);
type = Stem;
},
{
horizontal = 1;
origin = (2,32);
target = (2,6);
type = Stem;
},
{
horizontal = 1;
origin = (2,20);
target = (2,18);
type = Stem;
},
{
horizontal = 1;
origin = (2,26);
target = (2,13);
type = Stem;
},
{
origin = (2,29);
target = (2,13,2,18);
type = Stem;
},
{
origin = (2,16);
target = (2,23);
type = Stem;
}
);
layerId = "610C2E7D-EDB4-4EC2-BEB5-F0DB9FB0A101";
shapes = (
{
closed = 1;
nodes = (
(429,-13,o),
(530,95,o),
(530,246,cs),
(530,396,o),
(429,503,o),
(284,503,cs),
(140,503,o),
(36,395,o),
(36,244,cs),
(36,94,o),
(140,-13,o),
(284,-13,cs)
);
},
{
closed = 1;
nodes = (
(181,61,o),
(116,141,o),
(116,245,cs),
(116,351,o),
(181,429,o),
(284,429,cs),
(387,429,o),
(453,349,o),
(453,245,cs),
(453,139,o),
(387,61,o),
(284,61,cs)
);
},
{
closed = 1;
nodes = (
(788,-13,o),
(861,19,o),
(907,80,c),
(850,129,l),
(815,81,o),
(769,61,o),
(701,61,cs),
(607,61,o),
(532,129,o),
(530,233,c),
(530,245,l),
(529,362,o),
(596,429,o),
(697,429,cs),
(803,429,o),
(859,352,o),
(855,245,c),
(883,284,l),
(489,284,l),
(489,214,l),
(933,214,l),
(935,223,o),
(935,236,o),
(935,246,cs),
(935,397,o),
(846,503,o),
(699,503,cs),
(553,503,o),
(453,392,o),
(453,246,cs),
(453,96,o),
(551,-13,o),
(700,-13,cs)
);
},
{
closed = 1;
nodes = (
(475,95,l),
(508,95,l),
(508,395,l),
(475,395,l)
);
}
);
width = 963;
},
{
anchors = (
{
name = bottom;
pos = (504,0);
},
{
name = top;
pos = (504,505);
}
);
hints = (
{
horizontal = 1;
origin = (0,5);
target = (1,5);
type = Stem;
},
{
origin = (0,8);
target = (1,2);
type = Stem;
},
{
horizontal = 1;
origin = (2,32);
target = (2,6);
type = Stem;
},
{
horizontal = 1;
origin = (2,20);
target = (2,18);
type = Stem;
},
{
horizontal = 1;
origin = (2,26);
target = (2,13);
type = Stem;
},
{
origin = (2,29);
place = (452,135);
type = Stem;
},
{
origin = (2,16);
target = (2,23);
type = Stem;
}
);
layerId = m006;
shapes = (
{
closed = 1;
nodes = (
(460,-13,o),
(560,101,o),
(560,252,cs),
(560,404,o),
(460,518,o),
(307,518,cs),
(154,518,o),
(40,404,o),
(40,252,cs),
(40,101,o),
(154,-13,o),
(307,-13,cs)
);
},
{
closed = 1;
nodes = (
(231,110,o),
(175,165,o),
(175,252,cs),
(175,340,o),
(231,395,o),
(307,395,cs),
(383,395,o),
(439,340,o),
(439,252,cs),
(439,165,o),
(383,110,o),
(307,110,cs)
);
},
{
closed = 1;
nodes = (
(800,-13,o),
(879,26,o),
(922,75,c),
(833,165,l),
(807,129,o),
(759,107,o),
(709,107,cs),
(622,107,o),
(580,174,o),
(574,239,c),
(573,260,l),
(573,357,o),
(622,409,o),
(697,409,cs),
(777,409,o),
(812,357,o),
(809,265,c),
(849,316,l),
(519,316,l),
(519,216,l),
(941,216,l),
(944,225,o),
(945,245,o),
(945,262,cs),
(945,416,o),
(847,518,o),
(699,518,cs),
(551,518,o),
(452,419,o),
(452,249,cs),
(452,99,o),
(544,-13,o),
(706,-13,cs)
);
},
{
closed = 1;
nodes = (
(475,75,l),
(529,75,l),
(529,431,l),
(475,431,l)
);
}
);
width = 977;
}
);
metricRight = e;
unicode = 339;
},
{
glyphname = p;
kernLeft = p;
kernRight = o;
lastChange = "2025-10-27 02:20:35 +0000";
layers = (
{
anchors = (
{
name = bottom;
pos = (373,0);
},
{
name = ogonek;
pos = (444,0);
},
{
name = top;
pos = (355,505);
}
);
hints = (
{
horizontal = 1;
origin = (0,13);
target = up;
type = BottomGhost;
},
{
horizontal = 1;
origin = (0,18);
target = (1,11);
type = Stem;
},
{
horizontal = 1;
origin = (0,5);
target = (1,5);
type = Stem;
},
{
origin = (0,12);
target = (1,2);
type = Stem;
},
{
origin = (1,8);
target = (0,2);
type = Stem;
},
{
horizontal = 1;
origin = (0,11);
target = down;
type = TopGhost;
}
);
layerId = m006;
shapes = (
{
closed = 1;
nodes = (
(513,-13,o),
(614,112,o),
(614,252,cs),
(614,393,o),
(513,518,o),
(364,518,cs),
(292,518,o),
(226,484,o),
(207,429,c),
(201,429,l),
(201,505,l),
(70,505,l),
(70,-220,l),
(205,-220,l),
(205,74,l),
(211,74,l),
(230,21,o),
(296,-13,o),
(364,-13,cs)
);
},
{
closed = 1;
nodes = (
(263,110,o),
(205,171,o),
(205,252,cs),
(205,334,o),
(263,395,o),
(342,395,cs),
(421,395,o),
(479,334,o),
(479,253,cs),
(479,171,o),
(421,110,o),
(342,110,cs)
);
}
);
width = 654;
},
{
anchors = (
{
name = bottom;
pos = (329,0);
},
{
name = ogonek;
pos = (412,0);
},
{
name = top;
pos = (329,490);
}
);
hints = (
{
horizontal = 1;
origin = (0,13);
target = up;
type = BottomGhost;
},
{
horizontal = 1;
origin = (0,18);
target = (1,11);
type = Stem;
},
{
horizontal = 1;
origin = (0,5);
target = (1,5);
type = Stem;
},
{
horizontal = 1;
origin = (0,11);
target = down;
type = TopGhost;
},
{
origin = (0,12);
target = (0,14);
type = Stem;
},
{
origin = (1,8);
target = (0,2);
type = Stem;
}
);
layerId = "610C2E7D-EDB4-4EC2-BEB5-F0DB9FB0A101";
shapes = (
{
closed = 1;
nodes = (
(472,-13,o),
(574,92,o),
(574,244,cs),
(574,396,o),
(472,502,o),
(329,502,cs),
(244,502,o),
(182,457,o),
(154,399,c),
(148,399,l),
(148,490,l),
(72,490,l),
(72,-220,l),
(152,-220,l),
(152,94,l),
(158,94,l),
(186,34,o),
(246,-13,o),
(329,-13,cs)
);
},
{
closed = 1;
nodes = (
(217,61,o),
(150,142,o),
(150,244,cs),
(150,350,o),
(217,428,o),
(321,428,cs),
(431,428,o),
(494,352,o),
(494,245,cs),
(494,140,o),
(431,61,o),
(321,61,cs)
);
}
);
width = 610;
}
);
metricRight = o;
unicode = 112;
},
{
glyphname = thorn;
kernLeft = p;
kernRight = o;
lastChange = "2025-10-26 03:40:20 +0000";
layers = (
{
anchors = (
{
name = bottom;
pos = (305,0);
},
{
name = top;
pos = (305,740);
}
);
hints = (
{
horizontal = 1;
origin = (0,13);
target = up;
type = BottomGhost;
},
{
horizontal = 1;
origin = (0,18);
target = (1,11);
type = Stem;
},
{
horizontal = 1;
origin = (0,5);
target = (1,5);
type = Stem;
},
{
horizontal = 1;
origin = (0,11);
target = down;
type = TopGhost;
},
{
origin = (0,12);
target = (0,14);
type = Stem;
},
{
origin = (1,8);
target = (0,2);
type = Stem;
}
);
layerId = "610C2E7D-EDB4-4EC2-BEB5-F0DB9FB0A101";
shapes = (
{
closed = 1;
nodes = (
(472,-13,o),
(574,92,o),
(574,244,cs),
(574,396,o),
(472,502,o),
(329,502,cs),
(244,502,o),
(186,457,o),
(158,399,c),
(152,399,l),
(152,740,l),
(72,740,l),
(72,-220,l),
(152,-220,l),
(152,94,l),
(158,94,l),
(186,34,o),
(246,-13,o),
(329,-13,cs)
);
},
{
closed = 1;
nodes = (
(217,61,o),
(150,142,o),
(150,244,cs),
(150,350,o),
(217,428,o),
(321,428,cs),
(431,428,o),
(494,352,o),
(494,245,cs),
(494,140,o),
(431,61,o),
(321,61,cs)
);
}
);
width = 610;
},
{
anchors = (
{
name = bottom;
pos = (327,0);
},
{
name = top;
pos = (327,740);
}
);
hints = (
{
horizontal = 1;
origin = (0,13);
target = up;
type = BottomGhost;
},
{
horizontal = 1;
origin = (0,18);
target = (1,11);
type = Stem;
},
{
horizontal = 1;
origin = (0,5);
target = (1,5);
type = Stem;
},
{
horizontal = 1;
origin = (0,11);
target = down;
type = TopGhost;
},
{
origin = (0,12);
target = (1,2);
type = Stem;
},
{
origin = (1,8);
target = (0,2);
type = Stem;
}
);
layerId = m006;
shapes = (
{
closed = 1;
nodes = (
(513,-13,o),
(614,112,o),
(614,252,cs),
(614,393,o),
(513,518,o),
(364,518,cs),
(292,518,o),
(230,484,o),
(211,429,c),
(205,429,l),
(205,740,l),
(70,740,l),
(70,-220,l),
(205,-220,l),
(205,74,l),
(211,74,l),
(230,21,o),
(296,-13,o),
(364,-13,cs)
);
},
{
closed = 1;
nodes = (
(263,110,o),
(205,171,o),
(205,252,cs),
(205,334,o),
(263,395,o),
(342,395,cs),
(421,395,o),
(479,334,o),
(479,253,cs),
(479,171,o),
(421,110,o),
(342,110,cs)
);
}
);
width = 654;
}
);
metricLeft = l;
metricRight = o;
unicode = 254;
},
{
glyphname = q;
kernLeft = o;
kernRight = q;
lastChange = "2025-10-27 02:20:38 +0000";
layers = (
{
anchors = (
{
name = bottom;
pos = (296,0);
},
{
name = ogonek;
pos = (362,0);
},
{
name = top;
pos = (296,505);
}
);
hints = (
{
horizontal = 1;
origin = (0,5);
target = up;
type = BottomGhost;
},
{
horizontal = 1;
origin = (0,18);
target = (1,11);
type = Stem;
},
{
horizontal = 1;
origin = (0,12);
target = (1,5);
type = Stem;
},
{
origin = (0,15);
target = (1,2);
type = Stem;
},
{
origin = (0,6);
target = (1,8);
type = Stem;
},
{
horizontal = 1;
origin = (0,7);
target = down;
type = TopGhost;
}
);
layerId = m006;
shapes = (
{
closed = 1;
nodes = (
(358,-13,o),
(424,21,o),
(443,74,c),
(449,74,l),
(449,-220,l),
(584,-220,l),
(584,505,l),
(454,505,l),
(454,429,l),
(448,429,l),
(429,484,o),
(363,518,o),
(290,518,cs),
(141,518,o),
(40,393,o),
(40,252,cs),
(40,112,o),
(141,-13,o),
(290,-13,cs)
);
},
{
closed = 1;
nodes = (
(233,110,o),
(175,171,o),
(175,253,cs),
(175,334,o),
(233,395,o),
(312,395,cs),
(391,395,o),
(449,334,o),
(449,252,cs),
(449,171,o),
(391,110,o),
(312,110,cs)
);
}
);
width = 644;
},
{
anchors = (
{
name = bottom;
pos = (498,-220);
},
{
name = ogonek;
pos = (350,0);
},
{
name = top;
pos = (282,490);
}
);
hints = (
{
horizontal = 1;
origin = (0,5);
target = up;
type = BottomGhost;
},
{
horizontal = 1;
origin = (0,18);
target = (1,11);
type = Stem;
},
{
horizontal = 1;
origin = (0,12);
target = (1,5);
type = Stem;
},
{
horizontal = 1;
origin = (0,7);
target = down;
type = TopGhost;
},
{
origin = (0,15);
target = (1,2);
type = Stem;
},
{
origin = (0,6);
target = (0,3);
type = Stem;
}
);
layerId = "610C2E7D-EDB4-4EC2-BEB5-F0DB9FB0A101";
shapes = (
{
closed = 1;
nodes = (
(364,-13,o),
(424,34,o),
(452,94,c),
(458,94,l),
(458,-220,l),
(538,-220,l),
(538,490,l),
(462,490,l),
(462,399,l),
(456,399,l),
(428,457,o),
(366,503,o),
(281,503,cs),
(141,503,o),
(36,396,o),
(36,244,cs),
(36,92,o),
(141,-13,o),
(281,-13,cs)
);
},
{
closed = 1;
nodes = (
(182,61,o),
(116,140,o),
(116,245,cs),
(116,352,o),
(182,429,o),
(289,429,cs),
(393,429,o),
(459,350,o),
(459,244,cs),
(459,142,o),
(393,61,o),
(289,61,cs)
);
}
);
width = 610;
}
);
unicode = 113;
},
{
glyphname = r;
kernLeft = n;
kernRight = r;
lastChange = "2025-10-29 23:06:06 +0000";
layers = (
{
anchors = (
{
name = bottom;
pos = (138,0);
},
{
name = top;
pos = (235,505);
}
);
background = {
shapes = (
{
closed = 1;
nodes = (
(281,518,o),
(230,479,o),
(211,441,c),
(205,441,l),
(205,506,l),
(70,506,l),
(70,180,ls),
(70,76,o),
(153,-12,o),
(302,-12,cs),
(400,-12,o),
(468,26,o),
(519,84,c),
(430,169,l),
(401,132,o),
(359,106,o),
(298,106,cs),
(227,106,o),
(205,138,o),
(205,174,cs),
(205,221,l),
(173,185,l),
(197,187,o),
(228,189,o),
(289,193,cs),
(459,204,o),
(524,269,o),
(524,362,cs),
(524,451,o),
(454,518,o),
(361,518,cs)
);
},
{
closed = 1;
nodes = (
(365,409,o),
(395,388,o),
(395,355,cs),
(395,309,o),
(333,296,o),
(276,293,cs),
(214,289,o),
(184,287,o),
(173,286,c),
(205,256,l),
(205,294,ls),
(205,357,o),
(246,409,o),
(315,409,cs)
);
}
);
};
hints = (
{
horizontal = 1;
origin = (0,16);
target = up;
type = BottomGhost;
},
{
horizontal = 1;
origin = (0,6);
target = down;
type = TopGhost;
},
{
horizontal = 1;
origin = (0,15);
target = (0,5);
type = Stem;
},
{
horizontal = 1;
origin = (0,15);
target = down;
type = TopGhost;
},
{
origin = (0,16);
target = (0,1);
type = Stem;
},
{
origin = (0,16);
target = (0,14);
type = Stem;
}
);
layerId = m006;
shapes = (
{
closed = 1;
nodes = (
(205,0,l),
(205,251,ls),
(205,338,o),
(270,385,o),
(368,385,cs),
(396,385,l),
(398,511,l),
(389,511,o),
(381,512,o),
(372,512,cs),
(278,512,o),
(223,483,o),
(206,423,c),
(201,423,l),
(201,505,l),
(70,505,l),
(70,0,l)
);
}
);
width = 407;
},
{
anchors = (
{
name = bottom;
pos = (112,0);
},
{
name = top;
pos = (205,490);
}
);
background = {
shapes = (
{
closed = 1;
nodes = (
(223,503,o),
(180,452,o),
(158,416,c),
(152,416,l),
(152,490,l),
(72,490,l),
(72,169,ls),
(72,50,o),
(176,-13,o),
(273,-13,cs),
(366,-13,o),
(425,15,o),
(483,77,c),
(429,133,l),
(386,85,o),
(339,61,o),
(277,61,cs),
(214,61,o),
(152,95,o),
(152,167,cs),
(152,209,l),
(139,198,l),
(148,199,o),
(203,202,o),
(251,205,cs),
(400,215,o),
(486,263,o),
(486,362,cs),
(486,438,o),
(416,503,o),
(320,503,cs)
);
},
{
closed = 1;
nodes = (
(365,435,o),
(406,401,o),
(406,355,cs),
(406,306,o),
(353,278,o),
(245,271,cs),
(195,268,o),
(155,265,o),
(141,264,c),
(152,249,l),
(152,287,ls),
(152,366,o),
(209,435,o),
(300,435,cs)
);
}
);
};
hints = (
{
horizontal = 1;
origin = (0,16);
target = up;
type = BottomGhost;
},
{
horizontal = 1;
origin = (0,6);
target = (0,5);
type = Stem;
},
{
horizontal = 1;
origin = (0,15);
target = down;
type = TopGhost;
},
{
origin = (0,16);
target = (0,0);
type = Stem;
}
);
layerId = "610C2E7D-EDB4-4EC2-BEB5-F0DB9FB0A101";
shapes = (
{
closed = 1;
nodes = (
(152,0,l),
(152,287,ls),
(152,374,o),
(213,416,o),
(307,416,cs),
(332,416,l),
(334,496,l),
(326,497,o),
(318,497,o),
(311,497,cs),
(224,497,o),
(175,463,o),
(154,415,c),
(148,415,l),
(148,490,l),
(72,490,l),
(72,0,l)
);
}
);
width = 344;
}
);
unicode = 114;
},
{
glyphname = s;
kernLeft = s;
kernRight = s;
lastChange = "2025-10-27 00:45:45 +0000";
layers = (
{
anchors = (
{
name = bottom;
pos = (254,0);
},
{
name = ogonek;
pos = (337,0);
},
{
name = top;
pos = (259,505);
}
);
background = {
shapes = (
{
closed = 1;
nodes = (
(374,-13,o),
(461,59,o),
(461,155,cs),
(461,233,o),
(426,289,o),
(275,328,cs),
(213,344,o),
(205,360,o),
(205,383,cs),
(205,406,o),
(232,424,o),
(267,424,cs),
(305,424,o),
(337,408,o),
(362,368,c),
(460,443,l),
(407,512,o),
(351,533,o),
(264,533,cs),
(155,533,o),
(73,465,o),
(73,374,cs),
(73,308,o),
(93,244,o),
(233,212,cs),
(315,193,o),
(328,178,o),
(328,151,cs),
(328,122,o),
(302,99,o),
(252,99,cs),
(208,99,o),
(168,120,o),
(134,161,c),
(43,78,l),
(100,17,o),
(171,-13,o),
(259,-13,cs)
);
}
);
};
hints = (
{
horizontal = 1;
origin = (0,37);
target = (0,30);
type = Stem;
},
{
horizontal = 1;
origin = (0,18);
target = (0,11);
type = Stem;
},
{
origin = (0,21);
target = (0,8);
type = Stem;
},
{
origin = (0,27);
target = (0,2);
type = Stem;
},
{
horizontal = 1;
origin = (0,24);
target = (0,5);
type = Stem;
}
);
layerId = m006;
shapes = (
{
closed = 1;
nodes = (
(370,-13,o),
(453,53,o),
(453,153,cs),
(453,249,o),
(397,286,o),
(269,314,cs),
(220,326,o),
(194,338,o),
(194,364,cs),
(194,387,o),
(219,409,o),
(258,409,cs),
(298,409,o),
(326,392,o),
(354,350,c),
(451,426,l),
(405,483,o),
(361,518,o),
(258,518,cs),
(131,518,o),
(62,441,o),
(62,359,cs),
(62,263,o),
(121,218,o),
(231,197,cs),
(297,184,o),
(320,170,o),
(320,143,cs),
(320,115,o),
(293,98,o),
(249,98,cs),
(197,98,o),
(159,122,o),
(119,163,c),
(34,75,l),
(94,17,o),
(157,-13,o),
(253,-13,cs)
);
}
);
width = 497;
},
{
anchors = (
{
name = bottom;
pos = (231,0);
},
{
name = ogonek;
pos = (306,0);
},
{
name = top;
pos = (240,490);
}
);
background = {
shapes = (
{
closed = 1;
nodes = (
(-1216,587,o),
(-1133,653,o),
(-1133,753,cs),
(-1133,849,o),
(-1189,886,o),
(-1317,914,cs),
(-1366,926,o),
(-1392,938,o),
(-1392,964,cs),
(-1392,987,o),
(-1367,1009,o),
(-1328,1009,cs),
(-1288,1009,o),
(-1260,992,o),
(-1232,950,c),
(-1135,1026,l),
(-1181,1083,o),
(-1225,1118,o),
(-1328,1118,cs),
(-1455,1118,o),
(-1524,1041,o),
(-1524,959,cs),
(-1524,863,o),
(-1465,818,o),
(-1355,797,cs),
(-1289,784,o),
(-1266,770,o),
(-1266,743,cs),
(-1266,715,o),
(-1293,698,o),
(-1337,698,cs),
(-1389,698,o),
(-1427,722,o),
(-1467,763,c),
(-1552,675,l),
(-1492,617,o),
(-1429,587,o),
(-1333,587,cs)
);
},
{
closed = 1;
nodes = (
(-1215,587,o),
(-1113,692,o),
(-1113,844,cs),
(-1113,996,o),
(-1215,1102,o),
(-1358,1102,cs),
(-1439,1102,o),
(-1501,1057,o),
(-1529,999,c),
(-1535,999,l),
(-1535,1090,l),
(-1615,1090,l),
(-1615,390,l),
(-1537,390,l),
(-1537,694,l),
(-1531,694,l),
(-1503,634,o),
(-1441,587,o),
(-1358,587,cs)
);
},
{
closed = 1;
nodes = (
(-1466,661,o),
(-1531,742,o),
(-1531,844,cs),
(-1531,950,o),
(-1466,1028,o),
(-1362,1028,cs),
(-1252,1028,o),
(-1189,952,o),
(-1189,845,cs),
(-1189,740,o),
(-1252,661,o),
(-1362,661,cs)
);
},
{
closed = 1;
nodes = (
(-291,588,o),
(-223,620,o),
(-176,680,c),
(-232,728,l),
(-266,682,o),
(-308,662,o),
(-371,662,cs),
(-474,662,o),
(-545,740,o),
(-545,845,cs),
(-545,948,o),
(-478,1027,o),
(-375,1027,cs),
(-313,1027,o),
(-272,1006,o),
(-233,959,c),
(-175,1005,l),
(-223,1069,o),
(-293,1102,o),
(-378,1101,cs),
(-522,1099,o),
(-625,984,o),
(-625,845,cs),
(-625,705,o),
(-520,588,o),
(-375,588,cs)
);
},
{
closed = 1;
nodes = (
(292,-13,o),
(337,27,o),
(364,74,c),
(370,74,l),
(370,0,l),
(450,0,l),
(450,490,l),
(370,490,l),
(370,194,ls),
(370,112,o),
(314,61,o),
(226,61,cs),
(153,61,o),
(107,112,o),
(107,194,cs),
(107,490,l),
(27,490,l),
(27,176,ls),
(27,59,o),
(104,-13,o),
(214,-13,cs)
);
}
);
};
hints = (
{
horizontal = 1;
options = 4;
origin = (0,37);
target = (0,30);
type = TTStem;
},
{
horizontal = 1;
options = 4;
origin = (0,18);
target = (0,11);
type = TTStem;
},
{
horizontal = 1;
origin = (0,37);
target = (0,30);
type = Stem;
},
{
horizontal = 1;
origin = (0,18);
target = (0,11);
type = Stem;
},
{
origin = (0,21);
target = (0,8);
type = Stem;
},
{
origin = (0,27);
target = (0,2);
type = Stem;
},
{
horizontal = 1;
origin = (0,24);
target = (0,5);
type = Stem;
}
);
layerId = "610C2E7D-EDB4-4EC2-BEB5-F0DB9FB0A101";
shapes = (
{
closed = 1;
nodes = (
(327,-13,o),
(412,43,o),
(412,139,cs),
(412,215,o),
(363,260,o),
(248,286,cs),
(164,305,o),
(143,327,o),
(143,367,cs),
(143,406,o),
(187,435,o),
(240,435,cs),
(286,435,o),
(322,415,o),
(350,370,c),
(411,415,l),
(368,477,o),
(316,503,o),
(235,503,cs),
(139,503,o),
(62,442,o),
(62,360,cs),
(62,285,o),
(112,239,o),
(215,214,cs),
(296,195,o),
(331,173,o),
(331,132,cs),
(331,83,o),
(285,59,o),
(227,59,cs),
(172,59,o),
(137,81,o),
(94,126,c),
(40,70,l),
(98,13,o),
(149,-13,o),
(231,-13,cs)
);
}
);
width = 463;
}
);
unicode = 115;
},
{
glyphname = germandbls;
kernLeft = l;
kernRight = B;
lastChange = "2025-10-18 22:38:34 +0000";
layers = (
{
background = {
shapes = (
{
closed = 1;
nodes = (
(326,20,ls),
(478,20,o),
(574,96,o),
(574,213,cs),
(574,331,o),
(472,385,o),
(418,391,c),
(418,397,l),
(471,408,o),
(535,441,o),
(535,536,cs),
(535,645,o),
(453,720,o),
(301,720,cs),
(65,720,l),
(65,20,l)
);
},
{
closed = 1;
nodes = (
(205,309,l),
(323,309,ls),
(389,309,o),
(432,286,o),
(432,231,cs),
(432,174,o),
(389,155,o),
(323,155,cs),
(205,155,l)
);
},
{
closed = 1;
nodes = (
(205,585,l),
(298,585,ls),
(364,585,o),
(393,565,o),
(393,513,cs),
(393,461,o),
(364,439,o),
(298,439,cs),
(205,439,l)
);
}
);
};
layerId = m006;
shapes = (
{
closed = 1;
nodes = (
(512,-13,o),
(593,100,o),
(593,212,cs),
(593,284,o),
(560,384,o),
(442,409,c),
(442,413,l),
(501,437,o),
(532,498,o),
(532,559,cs),
(532,659,o),
(442,753,o),
(308,753,cs),
(166,753,o),
(70,651,o),
(70,524,cs),
(70,0,l),
(205,0,l),
(205,524,ls),
(205,594,o),
(251,630,o),
(304,630,cs),
(356,630,o),
(398,592,o),
(398,544,cs),
(398,471,o),
(347,435,o),
(287,435,c),
(287,327,l),
(412,346,o),
(459,280,o),
(459,215,cs),
(459,140,o),
(404,108,o),
(358,108,cs),
(329,108,o),
(304,116,o),
(285,123,c),
(285,4,l),
(304,-8,o),
(341,-13,o),
(362,-13,cs)
);
}
);
width = 642;
},
{
background = {
shapes = (
{
closed = 1;
nodes = (
(-274,600,ls),
(-135,600,o),
(-39,672,o),
(-39,791,cs),
(-39,894,o),
(-102,943,o),
(-207,962,c),
(-207,967,l),
(-110,990,o),
(-78,1048,o),
(-78,1116,cs),
(-78,1232,o),
(-160,1300,o),
(-299,1300,cs),
(-528,1300,l),
(-528,600,l)
);
},
{
closed = 1;
nodes = (
(-444,918,l),
(-283,918,ls),
(-191,918,o),
(-124,880,o),
(-124,798,cs),
(-124,715,o),
(-191,676,o),
(-283,676,cs),
(-444,676,l)
);
},
{
closed = 1;
nodes = (
(-444,1224,l),
(-308,1224,ls),
(-216,1224,o),
(-163,1188,o),
(-163,1107,cs),
(-163,1022,o),
(-216,990,o),
(-308,990,cs),
(-444,990,l)
);
},
{
closed = 1;
nodes = (
(-106,587,o),
(-35,700,o),
(-35,812,cs),
(-35,884,o),
(-70,980,o),
(-208,1005,c),
(-208,1009,l),
(-129,1033,o),
(-96,1098,o),
(-96,1169,cs),
(-96,1259,o),
(-171,1353,o),
(-305,1353,cs),
(-447,1353,o),
(-528,1251,o),
(-528,1134,cs),
(-528,600,l),
(-443,600,l),
(-443,1134,ls),
(-443,1229,o),
(-401,1277,o),
(-309,1277,cs),
(-257,1277,o),
(-180,1253,o),
(-180,1154,cs),
(-180,1071,o),
(-241,1035,o),
(-301,1035,c),
(-301,946,l),
(-198,962,o),
(-117,927,o),
(-117,794,cs),
(-117,693,o),
(-172,649,o),
(-234,649,cs),
(-273,649,o),
(-307,660,o),
(-333,670,c),
(-333,604,l),
(-314,592,o),
(-277,587,o),
(-256,587,cs)
);
},
{
closed = 1;
nodes = (
(-103,587,o),
(-22,700,o),
(-22,812,cs),
(-22,884,o),
(-55,984,o),
(-173,1009,c),
(-173,1013,l),
(-114,1037,o),
(-83,1098,o),
(-83,1159,cs),
(-83,1259,o),
(-168,1353,o),
(-302,1353,cs),
(-444,1353,o),
(-535,1251,o),
(-535,1124,cs),
(-535,600,l),
(-400,600,l),
(-400,1124,ls),
(-400,1194,o),
(-359,1230,o),
(-306,1230,cs),
(-254,1230,o),
(-217,1192,o),
(-217,1144,cs),
(-217,1071,o),
(-268,1035,o),
(-328,1035,c),
(-328,927,l),
(-203,946,o),
(-156,880,o),
(-156,815,cs),
(-156,740,o),
(-211,708,o),
(-257,708,cs),
(-286,708,o),
(-311,716,o),
(-330,723,c),
(-330,604,l),
(-311,592,o),
(-274,587,o),
(-253,587,cs)
);
},
{
closed = 1;
nodes = (
(154,0,l),
(154,556,ls),
(154,635,o),
(196,685,o),
(272,685,cs),
(354,685,o),
(390,635,o),
(390,556,c),
(470,556,l),
(470,669,o),
(394,753,o),
(272,753,cs),
(157,753,o),
(75,670,o),
(75,560,cs),
(75,0,l)
);
},
{
pos = (321,0);
ref = idotless;
},
{
closed = 1;
nodes = (
(487,-13,o),
(572,43,o),
(572,139,cs),
(572,215,o),
(523,260,o),
(408,286,cs),
(324,305,o),
(303,327,o),
(303,367,cs),
(303,406,o),
(347,435,o),
(400,435,cs),
(446,435,o),
(482,415,o),
(510,370,c),
(571,415,l),
(528,477,o),
(476,503,o),
(395,503,cs),
(299,503,o),
(222,442,o),
(222,360,cs),
(222,285,o),
(272,239,o),
(375,214,cs),
(456,195,o),
(491,173,o),
(491,132,cs),
(491,83,o),
(445,59,o),
(387,59,cs),
(332,59,o),
(297,81,o),
(254,126,c),
(200,70,l),
(258,13,o),
(309,-13,o),
(391,-13,cs)
);
}
);
};
layerId = "610C2E7D-EDB4-4EC2-BEB5-F0DB9FB0A101";
shapes = (
{
closed = 1;
nodes = (
(494,-13,o),
(565,90,o),
(565,205,cs),
(565,319,o),
(480,404,o),
(366,404,c),
(366,408,l),
(445,428,o),
(504,494,o),
(504,569,cs),
(504,664,o),
(414,753,o),
(295,753,cs),
(168,753,o),
(72,659,o),
(72,534,cs),
(72,0,l),
(152,0,l),
(152,534,ls),
(152,622,o),
(209,677,o),
(291,677,cs),
(370,677,o),
(422,630,o),
(422,554,cs),
(422,476,o),
(354,434,o),
(250,423,c),
(250,357,l),
(384,380,o),
(485,319,o),
(485,196,cs),
(485,114,o),
(431,61,o),
(341,61,cs),
(307,61,o),
(284,64,o),
(250,76,c),
(250,3,l),
(273,-9,o),
(307,-13,o),
(338,-13,cs)
);
}
);
width = 612;
}
);
metricRight = B;
unicode = 223;
},
{
glyphname = t;
kernLeft = t;
kernRight = t;
lastChange = "2025-10-24 01:30:25 +0000";
layers = (
{
anchors = (
{
name = bar;
pos = (207,293);
},
{
name = bottom;
pos = (252,0);
},
{
name = center;
pos = (181,276);
},
{
name = top;
pos = (181,637);
},
{
name = topright;
pos = (310,740);
}
);
background = {
shapes = (
{
closed = 1;
nodes = (
(343,-9,o),
(375,-1,o),
(405,18,c),
(361,122,l),
(346,111,o),
(328,106,o),
(306,106,cs),
(272,106,o),
(248,124,o),
(248,165,cs),
(248,644,l),
(113,630,l),
(113,163,ls),
(113,41,o),
(185,-9,o),
(289,-9,cs)
);
}
);
};
hints = (
{
horizontal = 1;
place = (-9,172);
target = (0,12);
type = Stem;
},
{
horizontal = 1;
origin = (1,2);
target = (1,3);
type = Stem;
},
{
origin = (0,12);
target = (0,10);
type = Stem;
}
);
layerId = m006;
shapes = (
{
closed = 1;
nodes = (
(343,-13,o),
(363,-10,o),
(392,-4,c),
(392,110,l),
(374,105,o),
(350,102,o),
(322,102,cs),
(285,102,o),
(248,123,o),
(248,174,cs),
(248,644,l),
(113,630,l),
(113,163,ls),
(113,57,o),
(191,-13,o),
(301,-13,cs)
);
},
{
closed = 1;
nodes = (
(392,385,l),
(392,505,l),
(20,505,l),
(20,385,l)
);
}
);
width = 412;
},
{
anchors = (
{
name = bar;
pos = (181,331);
},
{
name = bottom;
pos = (248,0);
},
{
name = center;
pos = (175,276);
},
{
name = top;
pos = (175,615);
},
{
name = topright;
pos = (303,740);
}
);
background = {
shapes = (
{
closed = 1;
nodes = (
(-173,488,o),
(-142,501,o),
(-105,527,c),
(-145,586,l),
(-164,568,o),
(-186,562,o),
(-216,562,cs),
(-260,562,o),
(-289,594,o),
(-289,650,cs),
(-289,1122,l),
(-369,1108,l),
(-369,645,ls),
(-369,543,o),
(-311,488,o),
(-221,488,cs)
);
},
{
closed = 1;
nodes = (
(329,60,o),
(363,94,o),
(363,136,cs),
(363,178,o),
(329,211,o),
(288,211,cs),
(245,211,o),
(212,178,o),
(212,136,cs),
(212,94,o),
(245,60,o),
(288,60,cs)
);
}
);
};
hints = (
{
horizontal = 1;
place = (-12,74);
type = Stem;
},
{
horizontal = 1;
origin = (1,2);
target = (1,3);
type = Stem;
},
{
origin = (0,12);
target = (0,10);
type = Stem;
}
);
layerId = "610C2E7D-EDB4-4EC2-BEB5-F0DB9FB0A101";
shapes = (
{
closed = 1;
nodes = (
(313,-14,o),
(333,-11,o),
(372,-3,c),
(372,68,l),
(345,61,o),
(321,60,o),
(301,60,cs),
(240,60,o),
(212,89,o),
(212,146,cs),
(212,622,l),
(132,608,l),
(132,141,ls),
(132,43,o),
(186,-10,o),
(283,-13,cs)
);
},
{
closed = 1;
nodes = (
(372,418,l),
(372,490,l),
(17,490,l),
(17,418,l)
);
}
);
width = 389;
}
);
unicode = 116;
},
{
glyphname = u;
kernLeft = u;
kernRight = u;
lastChange = "2025-10-27 00:52:01 +0000";
layers = (
{
anchors = (
{
name = bottom;
pos = (296,0);
},
{
name = ogonek;
pos = (395,0);
},
{
name = top;
pos = (295,505);
},
{
name = topright;
pos = (506,505);
}
);
background = {
shapes = (
{
closed = 1;
nodes = (
(995,-80,l),
(995,-365,ls),
(995,-455,o),
(944,-494,o),
(887,-494,cs),
(820,-494,o),
(775,-455,o),
(775,-365,cs),
(775,-80,l),
(640,-80,l),
(640,-398,ls),
(640,-529,o),
(726,-612,o),
(837,-612,cs),
(911,-612,o),
(966,-586,o),
(997,-535,c),
(997,-535,l),
(997,-600,l),
(1130,-600,l),
(1130,-80,l)
);
},
{
closed = 1;
nodes = (
(395,505,l),
(395,215,ls),
(395,148,o),
(357,106,o),
(297,106,cs),
(234,106,o),
(195,148,o),
(195,215,cs),
(195,505,l),
(60,505,l),
(60,182,ls),
(60,71,o),
(146,-12,o),
(243,-12,cs),
(321,-12,o),
(372,28,o),
(395,65,c),
(401,65,l),
(401,0,l),
(530,0,l),
(530,505,l)
);
}
);
};
hints = (
{
horizontal = 1;
options = 4;
origin = (0,16);
target = (0,7);
type = TTShift;
},
{
horizontal = 1;
origin = (0,20);
target = (0,11);
type = Stem;
},
{
horizontal = 1;
origin = (0,16);
target = down;
type = TopGhost;
},
{
horizontal = 1;
origin = (0,5);
target = (0,11);
type = Stem;
},
{
origin = (0,15);
target = (0,17);
type = Stem;
},
{
origin = (0,6);
target = (0,8);
type = Stem;
}
);
layerId = m006;
shapes = (
{
closed = 1;
nodes = (
(315,-12,o),
(366,28,o),
(389,65,c),
(395,65,l),
(395,0,l),
(526,0,l),
(526,505,l),
(391,505,l),
(391,215,ls),
(391,148,o),
(353,106,o),
(297,106,cs),
(239,106,o),
(200,148,o),
(200,215,cs),
(200,505,l),
(65,505,l),
(65,182,ls),
(65,71,o),
(151,-12,o),
(243,-12,cs)
);
}
);
width = 596;
},
{
anchors = (
{
name = bottom;
pos = (262,0);
},
{
name = ogonek;
pos = (400,0);
},
{
name = top;
pos = (272,490);
},
{
name = topright;
pos = (478,490);
}
);
background = {
shapes = (
{
closed = 1;
nodes = (
(368,490,l),
(368,202,ls),
(368,124,o),
(314,61,o),
(221,61,cs),
(127,61,o),
(88,121,o),
(88,202,cs),
(88,490,l),
(9,490,l),
(9,184,ls),
(9,80,o),
(89,-12,o),
(205,-12,cs),
(286,-12,o),
(343,38,o),
(363,95,c),
(361,94,l),
(370,94,l),
(369,95,l),
(369,0,l),
(448,0,l),
(448,490,l)
);
}
);
};
hints = (
{
horizontal = 1;
options = 4;
place = (490,0);
type = TTShift;
},
{
horizontal = 1;
origin = (0,20);
target = (0,11);
type = Stem;
},
{
horizontal = 1;
origin = (0,6);
target = down;
type = TopGhost;
},
{
horizontal = 1;
origin = (0,5);
target = up;
type = BottomGhost;
},
{
origin = (0,15);
target = (0,17);
type = Stem;
},
{
origin = (0,8);
target = (0,6);
type = Stem;
}
);
layerId = "610C2E7D-EDB4-4EC2-BEB5-F0DB9FB0A101";
shapes = (
{
closed = 1;
nodes = (
(324,-13,o),
(369,27,o),
(396,74,c),
(402,74,l),
(402,0,l),
(478,0,l),
(478,490,l),
(398,490,l),
(398,194,ls),
(398,112,o),
(342,61,o),
(260,61,cs),
(193,61,o),
(147,112,o),
(147,194,cs),
(147,490,l),
(67,490,l),
(67,176,ls),
(67,59,o),
(144,-13,o),
(248,-13,cs)
);
}
);
width = 550;
}
);
metricRight = "=|n";
unicode = 117;
},
{
glyphname = v;
kernLeft = v;
kernRight = v;
lastChange = "2025-10-27 00:49:33 +0000";
layers = (
{
anchors = (
{
name = bottom;
pos = (296,0);
},
{
name = top;
pos = (296,505);
}
);
background = {
shapes = (
{
closed = 1;
nodes = (
(337,0,l),
(553,520,l),
(396,520,l),
(292,223,ls),
(282,194,o),
(273,159,o),
(268,129,c),
(263,129,l),
(258,159,o),
(249,194,o),
(239,223,cs),
(135,520,l),
(-25,520,l),
(192,0,l)
);
}
);
};
hints = (
{
horizontal = 1;
origin = (0,13);
target = (0,7);
type = Stem;
},
{
horizontal = 1;
origin = (0,12);
target = down;
type = TopGhost;
},
{
origin = (0,12);
target = (0,1);
type = Stem;
}
);
layerId = m006;
shapes = (
{
closed = 1;
nodes = (
(367,0,l),
(573,505,l),
(416,505,l),
(322,217,ls),
(315,197,o),
(305,162,o),
(300,131,c),
(292,131,l),
(287,162,o),
(276,197,o),
(269,217,cs),
(175,505,l),
(15,505,l),
(222,0,l)
);
}
);
width = 588;
},
{
anchors = (
{
name = bottom;
pos = (254,0);
},
{
name = top;
pos = (254,490);
}
);
hints = (
{
horizontal = 1;
origin = (0,12);
target = down;
type = TopGhost;
},
{
origin = (0,12);
target = (0,1);
type = Stem;
},
{
horizontal = 1;
origin = (0,13);
target = up;
type = BottomGhost;
}
);
layerId = "610C2E7D-EDB4-4EC2-BEB5-F0DB9FB0A101";
shapes = (
{
closed = 1;
nodes = (
(300,0,l),
(491,490,l),
(400,490,l),
(293,174,ls),
(283,146,o),
(268,103,o),
(260,68,c),
(252,68,l),
(244,103,o),
(227,145,o),
(217,174,cs),
(108,490,l),
(17,490,l),
(207,0,l)
);
}
);
width = 508;
}
);
unicode = 118;
},
{
glyphname = w;
kernLeft = w;
kernRight = w;
lastChange = "2025-10-27 00:49:38 +0000";
layers = (
{
anchors = (
{
name = bottom;
pos = (442,0);
},
{
name = top;
pos = (442,505);
}
);
background = {
shapes = (
{
closed = 1;
nodes = (
(302,0,l),
(508,490,l),
(351,490,l),
(257,211,ls),
(250,191,o),
(240,157,o),
(235,127,c),
(227,127,l),
(222,157,o),
(211,191,o),
(204,211,cs),
(110,490,l),
(-50,490,l),
(157,0,l)
);
},
{
closed = 1;
nodes = (
(340,490,l),
(134,0,l),
(291,0,l),
(385,279,ls),
(392,299,o),
(402,333,o),
(407,363,c),
(415,363,l),
(420,333,o),
(431,299,o),
(438,279,cs),
(532,0,l),
(692,0,l),
(485,490,l)
);
},
{
closed = 1;
nodes = (
(663,0,l),
(869,490,l),
(712,490,l),
(618,211,ls),
(611,191,o),
(601,157,o),
(596,127,c),
(588,127,l),
(583,157,o),
(572,191,o),
(565,211,cs),
(471,490,l),
(311,490,l),
(518,0,l)
);
}
);
};
hints = (
{
horizontal = 1;
origin = (0,33);
target = (0,27);
type = Stem;
},
{
horizontal = 1;
origin = (0,32);
target = (0,5);
type = Stem;
}
);
layerId = m006;
shapes = (
{
closed = 1;
nodes = (
(337,0,l),
(417,274,ls),
(426,306,o),
(432,338,o),
(437,374,c),
(445,374,l),
(450,338,o),
(457,306,o),
(467,274,cs),
(549,0,l),
(695,0,l),
(861,505,l),
(714,505,l),
(647,232,ls),
(639,201,o),
(630,167,o),
(626,131,c),
(618,131,l),
(614,167,o),
(606,202,o),
(597,233,cs),
(519,505,l),
(364,505,l),
(286,233,ls),
(277,201,o),
(270,167,o),
(265,131,c),
(257,131,l),
(252,167,o),
(244,201,o),
(237,232,cs),
(173,505,l),
(15,505,l),
(182,0,l)
);
}
);
width = 876;
},
{
anchors = (
{
name = bottom;
pos = (393,0);
},
{
name = top;
pos = (393,490);
}
);
hints = (
{
origin = (0,32);
target = (0,11);
type = Stem;
},
{
horizontal = 1;
origin = (0,33);
target = up;
type = BottomGhost;
},
{
horizontal = 1;
origin = (0,32);
target = down;
type = TopGhost;
}
);
layerId = "610C2E7D-EDB4-4EC2-BEB5-F0DB9FB0A101";
shapes = (
{
closed = 1;
nodes = (
(272,0,l),
(366,306,ls),
(382,357,o),
(387,391,o),
(390,422,c),
(396,422,l),
(399,392,o),
(404,356,o),
(420,306,cs),
(516,0,l),
(609,0,l),
(768,490,l),
(681,490,l),
(590,184,ls),
(579,147,o),
(568,97,o),
(567,68,c),
(561,68,l),
(559,97,o),
(548,146,o),
(536,185,cs),
(441,490,l),
(346,490,l),
(252,185,ls),
(240,146,o),
(231,98,o),
(230,68,c),
(224,68,l),
(221,99,o),
(210,145,o),
(198,184,cs),
(108,490,l),
(17,490,l),
(176,0,l)
);
}
);
width = 785;
}
);
unicode = 119;
},
{
glyphname = x;
lastChange = "2025-10-24 01:09:12 +0000";
layers = (
{
anchors = (
{
name = bottom;
pos = (288,0);
},
{
name = top;
pos = (288,505);
}
);
background = {
shapes = (
{
closed = 1;
nodes = (
(141,0,l),
(258,156,l),
(259,156,l),
(257,156,l),
(258,156,l),
(371,0,l),
(535,0,l),
(340,243,l),
(525,490,l),
(367,490,l),
(257,335,l),
(258,335,l),
(256,335,l),
(257,335,l),
(151,490,l),
(-10,490,l),
(175,245,l),
(-20,0,l)
);
}
);
};
hints = (
{
horizontal = 1;
origin = (0,13);
target = up;
type = BottomGhost;
},
{
horizontal = 1;
origin = (0,11);
target = down;
type = TopGhost;
},
{
origin = (0,13);
target = (0,4);
type = Stem;
}
);
layerId = m006;
shapes = (
{
closed = 1;
nodes = (
(181,0,l),
(286,163,l),
(290,163,l),
(391,0,l),
(555,0,l),
(370,254,l),
(545,505,l),
(387,505,l),
(289,349,l),
(285,349,l),
(191,505,l),
(30,505,l),
(205,256,l),
(20,0,l)
);
}
);
width = 575;
},
{
anchors = (
{
name = bottom;
pos = (263,0);
},
{
name = top;
pos = (263,490);
}
);
hints = (
{
horizontal = 1;
origin = (0,13);
target = up;
type = BottomGhost;
},
{
horizontal = 1;
origin = (0,11);
target = down;
type = TopGhost;
},
{
origin = (0,13);
target = (0,4);
type = Stem;
}
);
layerId = "610C2E7D-EDB4-4EC2-BEB5-F0DB9FB0A101";
shapes = (
{
closed = 1;
nodes = (
(117,0,l),
(261,198,l),
(265,198,l),
(406,0,l),
(504,0,l),
(315,247,l),
(492,490,l),
(398,490,l),
(265,299,l),
(261,299,l),
(132,490,l),
(35,490,l),
(212,248,l),
(22,0,l)
);
}
);
width = 526;
}
);
unicode = 120;
},
{
glyphname = y;
kernLeft = y;
kernRight = v;
lastChange = "2025-10-26 03:25:06 +0000";
layers = (
{
anchors = (
{
name = bottom;
pos = (444,0);
},
{
name = ogonek;
pos = (178,-213);
},
{
name = top;
pos = (297,505);
},
{
name = top_hook;
pos = (298,444);
}
);
background = {
shapes = (
{
closed = 1;
nodes = (
(339,0,l),
(545,490,l),
(388,490,l),
(294,211,ls),
(287,191,o),
(277,157,o),
(272,127,c),
(264,127,l),
(259,157,o),
(248,191,o),
(241,211,cs),
(147,490,l),
(-13,490,l),
(194,0,l)
);
}
);
};
hints = (
{
horizontal = 1;
options = 4;
origin = (0,26);
target = (0,19);
type = TTStem;
},
{
horizontal = 1;
options = 4;
origin = (0,14);
type = TTSnap;
},
{
horizontal = 1;
options = 4;
origin = (0,23);
type = TTSnap;
},
{
horizontal = 1;
origin = (0,26);
target = (0,19);
type = Stem;
},
{
horizontal = 1;
origin = (0,14);
target = down;
type = TopGhost;
},
{
horizontal = 1;
origin = (0,23);
target = up;
type = BottomGhost;
},
{
origin = (0,14);
target = (0,3);
type = Stem;
}
);
layerId = m006;
shapes = (
{
closed = 1;
nodes = (
(207,-223,o),
(286,-182,o),
(344,-44,cs),
(576,505,l),
(419,505,l),
(325,217,ls),
(318,196,o),
(306,161,o),
(301,130,c),
(296,130,l),
(291,161,o),
(279,196,o),
(272,217,cs),
(178,505,l),
(18,505,l),
(214,24,l),
(201,-6,ls),
(178,-60,o),
(144,-91,o),
(92,-91,cs),
(70,-91,o),
(55,-89,o),
(35,-83,c),
(15,-213,l),
(42,-220,o),
(65,-223,o),
(92,-223,cs)
);
}
);
width = 591;
},
{
anchors = (
{
name = bottom;
pos = (405,0);
},
{
name = ogonek;
pos = (139,-213);
},
{
name = top;
pos = (258,490);
},
{
name = top_hook;
pos = (259,429);
}
);
hints = (
{
horizontal = 1;
origin = (0,26);
target = (0,19);
type = Stem;
},
{
horizontal = 1;
origin = (0,14);
target = down;
type = TopGhost;
},
{
origin = (0,14);
target = (0,3);
type = Stem;
}
);
layerId = "610C2E7D-EDB4-4EC2-BEB5-F0DB9FB0A101";
shapes = (
{
closed = 1;
nodes = (
(150,-223,o),
(217,-202,o),
(271,-73,cs),
(509,490,l),
(418,490,l),
(298,174,ls),
(287,145,o),
(268,95,o),
(260,59,c),
(253,59,l),
(245,95,o),
(223,146,o),
(212,174,cs),
(91,490,l),
(0,490,l),
(207,-7,l),
(187,-57,ls),
(157,-131,o),
(119,-147,o),
(77,-147,cs),
(53,-147,o),
(35,-144,o),
(14,-137,c),
(0,-211,l),
(21,-218,o),
(46,-223,o),
(79,-223,cs)
);
}
);
width = 509;
}
);
unicode = 121;
},
{
glyphname = z;
kernLeft = z;
kernRight = z;
lastChange = "2025-10-19 20:30:54 +0000";
layers = (
{
anchors = (
{
name = bottom;
pos = (280,0);
},
{
name = ogonek;
pos = (498,0);
},
{
name = top;
pos = (280,505);
}
);
background = {
shapes = (
{
closed = 0;
nodes = (
(473,505,l),
(473,520,l),
(25,520,l),
(25,408,l),
(270,408,l),
(270,406,l),
(259,398,o),
(246,382,o),
(228,353,cs)
);
},
{
closed = 1;
nodes = (
(498,0,l),
(498,112,l),
(258,112,l),
(258,114,l),
(268,121,o),
(279,136,o),
(296,162,cs),
(502,490,l),
(502,505,l),
(54,505,l),
(54,393,l),
(291,393,l),
(291,391,l),
(280,383,o),
(267,366,o),
(249,338,cs),
(44,15,l),
(44,0,l)
);
}
);
};
hints = (
{
horizontal = 1;
origin = (0,17);
target = (0,2);
type = Stem;
},
{
horizontal = 1;
origin = (0,9);
target = (0,11);
type = Stem;
},
{
origin = (0,17);
target = (0,8);
type = Stem;
}
);
layerId = m006;
shapes = (
{
closed = 1;
nodes = (
(498,0,l),
(498,120,l),
(264,120,l),
(264,122,l),
(274,129,o),
(279,136,o),
(296,162,cs),
(502,490,l),
(502,505,l),
(54,505,l),
(54,385,l),
(285,385,l),
(285,383,l),
(274,375,o),
(267,366,o),
(249,338,cs),
(44,15,l),
(44,0,l)
);
}
);
width = 550;
},
{
anchors = (
{
name = bottom;
pos = (255,0);
},
{
name = ogonek;
pos = (473,0);
},
{
name = top;
pos = (255,490);
}
);
background = {
shapes = (
{
closed = 1;
nodes = (
(473,0,l),
(473,71,l),
(180,71,l),
(180,73,l),
(193,83,o),
(202,96,o),
(220,121,cs),
(477,475,l),
(477,490,l),
(56,490,l),
(56,419,l),
(346,419,l),
(346,417,l),
(333,407,o),
(322,391,o),
(302,364,cs),
(46,15,l),
(46,0,l)
);
}
);
};
hints = (
{
horizontal = 1;
origin = (0,17);
target = (0,2);
type = Stem;
},
{
horizontal = 1;
origin = (0,9);
target = (0,11);
type = Stem;
},
{
origin = (0,17);
target = (0,8);
type = Stem;
}
);
layerId = "610C2E7D-EDB4-4EC2-BEB5-F0DB9FB0A101";
shapes = (
{
closed = 1;
nodes = (
(473,0,l),
(473,72,l),
(180,72,l),
(180,74,l),
(193,84,o),
(202,96,o),
(220,121,cs),
(477,475,l),
(477,490,l),
(56,490,l),
(56,418,l),
(346,418,l),
(346,416,l),
(333,406,o),
(322,391,o),
(302,364,cs),
(46,15,l),
(46,0,l)
);
}
);
width = 527;
}
);
unicode = 122;
},
{
glyphname = saltillo;
lastChange = "2025-10-15 20:49:32 +0000";
layers = (
{
background = {
shapes = (
{
pos = (13,0);
ref = exclam;
}
);
};
layerId = "610C2E7D-EDB4-4EC2-BEB5-F0DB9FB0A101";
shapes = (
{
closed = 1;
nodes = (
(144,263,l),
(167,577,l),
(167,700,l),
(77,700,l),
(77,577,l),
(100,263,l)
);
}
);
width = 244;
},
{
layerId = m006;
shapes = (
{
closed = 1;
nodes = (
(191,263,l),
(214,577,l),
(214,700,l),
(74,700,l),
(74,577,l),
(97,263,l)
);
}
);
width = 288;
}
);
unicode = 42892;
},
{
glyphname = a.ss01;
kernLeft = o;
kernRight = u;
lastChange = "2025-10-24 02:40:27 +0000";
layers = (
{
anchors = (
{
name = bottom;
pos = (312,0);
},
{
name = ogonek;
pos = (449,0);
},
{
name = top;
pos = (306,505);
}
);
background = {
shapes = (
{
closed = 1;
nodes = (
(474,-13,o),
(588,101,o),
(588,252,cs),
(588,404,o),
(474,518,o),
(321,518,cs),
(168,518,o),
(54,404,o),
(54,252,cs),
(54,101,o),
(168,-13,o),
(321,-13,cs)
);
},
{
closed = 1;
nodes = (
(240,110,o),
(189,165,o),
(189,252,cs),
(189,340,o),
(240,395,o),
(321,395,cs),
(402,395,o),
(453,340,o),
(453,252,cs),
(453,165,o),
(402,110,o),
(321,110,cs)
);
},
{
closed = 1;
nodes = (
(382,-13,o),
(429,26,o),
(457,85,c),
(457,85,l),
(457,0,l),
(588,0,l),
(588,520,l),
(454,520,l),
(454,438,l),
(454,438,l),
(426,494,o),
(379,531,o),
(289,531,cs),
(146,531,o),
(32,408,o),
(32,258,cs),
(32,108,o),
(146,-13,o),
(289,-13,cs)
);
},
{
closed = 1;
nodes = (
(225,109,o),
(167,180,o),
(167,259,cs),
(167,340,o),
(225,409,o),
(311,409,cs),
(400,409,o),
(457,339,o),
(457,258,cs),
(457,177,o),
(400,109,o),
(311,109,cs)
);
}
);
};
hints = (
{
horizontal = 1;
origin = (0,18);
target = (1,11);
type = Stem;
},
{
horizontal = 1;
origin = (0,12);
target = (1,5);
type = Stem;
},
{
origin = (0,15);
target = (1,2);
type = Stem;
},
{
origin = (0,6);
target = (1,8);
type = Stem;
},
{
horizontal = 1;
options = 4;
origin = (0,18);
target = (1,11);
type = TTStem;
},
{
horizontal = 1;
options = 4;
origin = (0,12);
target = (1,5);
type = TTStem;
},
{
horizontal = 1;
options = 4;
origin = (0,2);
target = (1,11);
type = TTStem;
},
{
horizontal = 1;
options = 4;
origin = (0,9);
target = (1,5);
type = TTStem;
},
{
horizontal = 1;
options = 4;
origin = (0,4);
target = (0,5);
type = TTShift;
},
{
horizontal = 1;
options = 4;
origin = (0,7);
target = (0,6);
type = TTShift;
},
{
horizontal = 1;
origin = (0,5);
target = up;
type = BottomGhost;
},
{
horizontal = 1;
origin = (0,7);
target = down;
type = TopGhost;
}
);
layerId = m006;
shapes = (
{
closed = 1;
nodes = (
(362,-13,o),
(428,21,o),
(447,74,c),
(453,74,l),
(453,0,l),
(584,0,l),
(584,505,l),
(453,505,l),
(453,429,l),
(447,429,l),
(428,484,o),
(362,518,o),
(290,518,cs),
(141,518,o),
(40,393,o),
(40,252,cs),
(40,112,o),
(141,-13,o),
(290,-13,cs)
);
},
{
closed = 1;
nodes = (
(233,110,o),
(175,171,o),
(175,253,cs),
(175,334,o),
(233,395,o),
(312,395,cs),
(391,395,o),
(449,334,o),
(449,252,cs),
(449,171,o),
(391,110,o),
(312,110,cs)
);
}
);
width = 654;
},
{
anchors = (
{
name = bottom;
pos = (293,0);
},
{
name = ogonek;
pos = (460,0);
},
{
name = top;
pos = (289,490);
}
);
background = {
shapes = (
{
closed = 1;
nodes = (
(362,1187,o),
(428,1221,o),
(447,1274,c),
(453,1274,l),
(453,1200,l),
(588,1200,l),
(588,1705,l),
(453,1705,l),
(453,1629,l),
(447,1629,l),
(428,1684,o),
(362,1718,o),
(294,1718,cs),
(145,1718,o),
(44,1593,o),
(44,1452,cs),
(44,1312,o),
(145,1187,o),
(294,1187,cs)
);
},
{
closed = 1;
nodes = (
(237,1310,o),
(179,1371,o),
(179,1453,cs),
(179,1534,o),
(237,1595,o),
(316,1595,cs),
(395,1595,o),
(453,1534,o),
(453,1452,cs),
(453,1371,o),
(395,1310,o),
(316,1310,cs)
);
},
{
closed = 1;
nodes = (
(1241,490,l),
(1161,490,l),
(1161,396,l),
(1155,396,l),
(1135,452,o),
(1097,503,o),
(998,503,cs),
(882,503,o),
(802,410,o),
(802,298,cs),
(802,0,l),
(882,0,l),
(882,288,ls),
(882,369,o),
(920,429,o),
(1014,429,cs),
(1107,429,o),
(1161,366,o),
(1161,288,cs),
(1161,0,l),
(1241,0,l)
);
},
{
closed = 1;
nodes = (
(1161,490,l),
(1161,202,ls),
(1161,124,o),
(1107,61,o),
(1014,61,cs),
(920,61,o),
(882,121,o),
(882,202,cs),
(882,490,l),
(802,490,l),
(802,192,ls),
(802,80,o),
(882,-13,o),
(998,-13,cs),
(1097,-13,o),
(1135,38,o),
(1155,94,c),
(1161,94,l),
(1161,0,l),
(1241,0,l),
(1241,490,l)
);
},
{
closed = 1;
nodes = (
(377,-713,o),
(437,-666,o),
(455,-606,c),
(461,-606,l),
(461,-700,l),
(541,-700,l),
(541,-210,l),
(461,-210,l),
(461,-301,l),
(455,-301,l),
(437,-243,o),
(375,-198,o),
(284,-198,cs),
(144,-198,o),
(39,-304,o),
(39,-456,cs),
(39,-608,o),
(144,-713,o),
(284,-713,cs)
);
},
{
closed = 1;
nodes = (
(185,-639,o),
(119,-560,o),
(119,-455,cs),
(119,-348,o),
(185,-272,o),
(292,-272,cs),
(396,-272,o),
(464,-360,o),
(464,-456,cs),
(464,-558,o),
(396,-639,o),
(292,-639,cs)
);
},
{
closed = 1;
nodes = (
(541,1290,l),
(461,1290,l),
(461,1196,l),
(455,1196,l),
(435,1252,o),
(397,1303,o),
(298,1303,cs),
(182,1303,o),
(102,1210,o),
(102,1098,cs),
(102,800,l),
(182,800,l),
(182,1088,ls),
(182,1169,o),
(220,1229,o),
(314,1229,cs),
(407,1229,o),
(461,1166,o),
(461,1088,cs),
(461,800,l),
(541,800,l)
);
},
{
closed = 1;
nodes = (
(461,1290,l),
(461,1002,ls),
(461,924,o),
(407,861,o),
(314,861,cs),
(220,861,o),
(182,921,o),
(182,1002,cs),
(182,1290,l),
(102,1290,l),
(102,992,ls),
(102,880,o),
(182,787,o),
(298,787,cs),
(397,787,o),
(435,838,o),
(455,894,c),
(461,894,l),
(461,800,l),
(541,800,l),
(541,1290,l)
);
},
{
attr = {
strokeHeight = 74;
strokePos = 1;
strokeWidth = 80;
};
closed = 1;
nodes = (
(185,61,o),
(119,140,o),
(119,245,cs),
(119,352,o),
(185,428,o),
(292,428,cs),
(396,428,o),
(464,340,o),
(464,244,cs),
(464,142,o),
(396,61,o),
(292,61,cs)
);
},
{
closed = 1;
nodes = (
(363,-13,o),
(420,32,o),
(452,94,c),
(458,94,l),
(458,0,l),
(538,0,l),
(538,740,l),
(458,740,l),
(458,399,l),
(451,399,l),
(422,457,o),
(362,503,o),
(281,503,cs),
(138,503,o),
(36,397,o),
(36,244,cs),
(36,92,o),
(138,-13,o),
(281,-13,cs)
);
},
{
closed = 1;
nodes = (
(179,61,o),
(116,140,o),
(116,245,cs),
(116,353,o),
(179,429,o),
(289,429,cs),
(393,429,o),
(459,350,o),
(459,244,cs),
(459,142,o),
(393,61,o),
(289,61,cs)
);
}
);
};
hints = (
{
horizontal = 1;
origin = (0,18);
target = (1,11);
type = Stem;
},
{
horizontal = 1;
origin = (0,12);
target = (1,5);
type = Stem;
},
{
horizontal = 1;
origin = (0,5);
target = up;
type = BottomGhost;
},
{
horizontal = 1;
origin = (0,7);
target = down;
type = TopGhost;
},
{
origin = (0,15);
target = (1,2);
type = Stem;
},
{
origin = (0,6);
target = (1,8);
type = Stem;
},
{
horizontal = 1;
options = 4;
origin = (0,18);
target = (1,11);
type = TTStem;
},
{
horizontal = 1;
options = 4;
origin = (0,12);
target = (1,5);
type = TTStem;
},
{
horizontal = 1;
options = 4;
origin = (0,5);
type = TTSnap;
},
{
horizontal = 1;
options = 4;
origin = (0,7);
type = TTSnap;
}
);
layerId = "610C2E7D-EDB4-4EC2-BEB5-F0DB9FB0A101";
shapes = (
{
closed = 1;
nodes = (
(373,-13,o),
(424,32,o),
(456,94,c),
(462,94,l),
(462,0,l),
(538,0,l),
(538,490,l),
(462,490,l),
(462,399,l),
(456,399,l),
(424,459,o),
(369,503,o),
(281,503,cs),
(141,503,o),
(36,396,o),
(36,244,cs),
(36,92,o),
(141,-13,o),
(281,-13,cs)
);
},
{
closed = 1;
nodes = (
(182,61,o),
(116,140,o),
(116,245,cs),
(116,352,o),
(182,428,o),
(289,428,cs),
(393,428,o),
(461,340,o),
(461,244,cs),
(461,142,o),
(393,61,o),
(289,61,cs)
);
}
);
width = 610;
}
);
metricLeft = o;
metricRight = "=|n";
},
{
glyphname = ae.ss01;
kernLeft = o;
kernRight = e;
lastChange = "2025-10-24 01:52:30 +0000";
layers = (
{
anchors = (
{
name = bottom;
pos = (503,0);
},
{
name = top;
pos = (503,490);
}
);
background = {
shapes = (
{
pos = (1000,0);
ref = a.ss01;
scale = (-1,1);
}
);
};
hints = (
{
horizontal = 1;
origin = (1,32);
target = (1,6);
type = Stem;
},
{
horizontal = 1;
origin = (1,20);
target = (1,18);
type = Stem;
},
{
horizontal = 1;
origin = (1,26);
target = (1,13);
type = Stem;
}
);
layerId = "610C2E7D-EDB4-4EC2-BEB5-F0DB9FB0A101";
shapes = (
{
ref = a.ss01;
},
{
closed = 1;
nodes = (
(797,-13,o),
(870,19,o),
(916,80,c),
(859,129,l),
(824,81,o),
(778,61,o),
(710,61,cs),
(631,61,o),
(541,129,o),
(539,233,c),
(539,245,l),
(538,362,o),
(631,429,o),
(706,429,cs),
(812,429,o),
(868,352,o),
(864,245,c),
(892,284,l),
(498,284,l),
(498,214,l),
(942,214,l),
(944,223,o),
(944,236,o),
(944,246,cs),
(944,397,o),
(855,503,o),
(708,503,cs),
(591,503,o),
(507,392,o),
(507,246,cs),
(507,96,o),
(589,-13,o),
(709,-13,cs)
);
},
{
closed = 1;
nodes = (
(480,94,l),
(551,94,l),
(523,251,l),
(551,399,l),
(480,399,l)
);
}
);
width = 972;
},
{
anchors = (
{
name = bottom;
pos = (516,0);
},
{
name = top;
pos = (516,505);
}
);
background = {
shapes = (
{
pos = (1037,0);
ref = a.ss01;
scale = (-1,1);
}
);
};
hints = (
{
horizontal = 1;
origin = (1,32);
target = (1,6);
type = Stem;
},
{
horizontal = 1;
origin = (1,20);
target = (1,18);
type = Stem;
},
{
horizontal = 1;
origin = (1,26);
target = (1,13);
type = Stem;
}
);
layerId = m006;
shapes = (
{
ref = a.ss01;
},
{
closed = 1;
nodes = (
(832,-13,o),
(911,26,o),
(954,75,c),
(865,165,l),
(839,129,o),
(781,107,o),
(731,107,cs),
(680,107,o),
(593,150,o),
(586,239,c),
(585,260,l),
(581,381,o),
(680,409,o),
(719,409,cs),
(799,409,o),
(844,357,o),
(841,265,c),
(881,316,l),
(531,316,l),
(531,216,l),
(973,216,l),
(976,225,o),
(977,245,o),
(977,262,cs),
(977,416,o),
(879,518,o),
(758,518,cs),
(606,518,o),
(554,419,o),
(554,249,cs),
(554,99,o),
(602,-13,o),
(738,-13,cs)
);
},
{
closed = 1;
nodes = (
(459,74,l),
(604,74,l),
(554,262,l),
(604,429,l),
(459,429,l)
);
}
);
width = 1009;
}
);
metricLeft = a.ss01;
metricRight = e;
},
{
glyphname = c.ss10;
kernLeft = o;
kernRight = c.ss10;
lastChange = "2025-10-27 04:12:49 +0000";
layers = (
{
anchors = (
{
name = bottom;
pos = (276,0);
},
{
name = ogonek;
pos = (369,0);
},
{
name = top;
pos = (276,490);
}
);
background = {
shapes = (
{
closed = 1;
nodes = (
(360,-14,o),
(399,-6,o),
(433,8,c),
(438,152,l),
(408,123,o),
(369,109,o),
(319,109,cs),
(231,109,o),
(175,165,o),
(175,254,cs),
(175,341,o),
(231,395,o),
(319,395,cs),
(369,395,o),
(412,377,o),
(433,359,c),
(433,496,l),
(399,510,o),
(360,518,o),
(319,518,cs),
(155,518,o),
(40,418,o),
(40,254,cs),
(40,89,o),
(155,-14,o),
(319,-14,cs)
);
}
);
};
hints = (
{
horizontal = 1;
origin = (0,25);
target = (0,6);
type = Stem;
},
{
horizontal = 1;
origin = (0,19);
target = (0,12);
type = Stem;
},
{
origin = (0,22);
target = (0,9);
type = Stem;
}
);
layerId = "610C2E7D-EDB4-4EC2-BEB5-F0DB9FB0A101";
shapes = (
{
closed = 1;
nodes = (
(322,-13,o),
(353,-7,o),
(396,8,c),
(403,93,l),
(361,71,o),
(331,65,o),
(303,65,cs),
(188,65,o),
(116,140,o),
(116,245,cs),
(116,348,o),
(184,424,o),
(299,424,cs),
(336,424,o),
(361,421,o),
(401,401,c),
(401,485,l),
(377,493,o),
(341,503,o),
(296,503,cs),
(140,503,o),
(36,384,o),
(36,245,cs),
(36,105,o),
(142,-13,o),
(299,-13,cs)
);
}
);
width = 423;
},
{
anchors = (
{
name = bottom;
pos = (299,0);
},
{
name = ogonek;
pos = (408,0);
},
{
name = top;
pos = (299,505);
}
);
background = {
shapes = (
{
closed = 1;
nodes = (
(411,-13,o),
(478,25,o),
(527,88,c),
(425,168,l),
(402,137,o),
(365,110,o),
(316,110,cs),
(232,110,o),
(175,167,o),
(175,254,cs),
(175,340,o),
(230,395,o),
(313,395,cs),
(370,395,o),
(409,367,o),
(426,334,c),
(527,414,l),
(479,481,o),
(402,519,o),
(301,518,cs),
(139,516,o),
(40,398,o),
(40,254,cs),
(40,111,o),
(142,-13,o),
(304,-13,cs)
);
}
);
};
hints = (
{
horizontal = 1;
origin = (0,25);
target = (0,6);
type = Stem;
},
{
horizontal = 1;
origin = (0,19);
target = (0,12);
type = Stem;
},
{
origin = (0,22);
target = (0,9);
type = Stem;
}
);
layerId = m006;
shapes = (
{
closed = 1;
nodes = (
(360,-14,o),
(399,-6,o),
(433,8,c),
(438,156,l),
(408,127,o),
(369,113,o),
(319,113,cs),
(251,113,o),
(175,165,o),
(175,254,cs),
(175,341,o),
(251,391,o),
(319,391,cs),
(369,391,o),
(412,373,o),
(433,355,c),
(433,496,l),
(399,510,o),
(360,518,o),
(319,518,cs),
(155,518,o),
(40,418,o),
(40,254,cs),
(40,89,o),
(155,-14,o),
(319,-14,cs)
);
}
);
width = 471;
}
);
metricLeft = o;
},
{
glyphname = jdotless.ss10;
kernLeft = j;
kernRight = j;
lastChange = "2025-10-14 15:38:18 +0000";
layers = (
{
anchors = (
{
name = bottom;
pos = (138,-220);
},
{
name = ogonek;
pos = (152,-220);
},
{
name = top;
pos = (138,505);
}
);
hints = (
{
horizontal = 1;
origin = (0,3);
target = up;
type = BottomGhost;
},
{
horizontal = 1;
origin = (0,2);
target = down;
type = TopGhost;
},
{
origin = (0,3);
target = (0,1);
type = Stem;
}
);
layerId = m006;
shapes = (
{
closed = 1;
nodes = (
(205,-220,l),
(205,505,l),
(70,505,l),
(70,-220,l)
);
}
);
width = 275;
},
{
anchors = (
{
name = bottom;
pos = (110,-220);
},
{
name = ogonek;
pos = (124,-220);
},
{
name = top;
pos = (112,490);
}
);
hints = (
{
horizontal = 1;
origin = (0,3);
target = up;
type = BottomGhost;
},
{
horizontal = 1;
origin = (0,2);
target = down;
type = TopGhost;
},
{
origin = (0,3);
target = (0,1);
type = Stem;
}
);
layerId = "610C2E7D-EDB4-4EC2-BEB5-F0DB9FB0A101";
shapes = (
{
closed = 1;
nodes = (
(152,-220,l),
(152,490,l),
(72,490,l),
(72,-220,l)
);
}
);
width = 224;
}
);
},
{
glyphname = eng.ss10;
kernLeft = n;
kernRight = n;
lastChange = "2025-10-24 01:55:15 +0000";
layers = (
{
hints = (
{
horizontal = 1;
options = 4;
type = TTSnap;
},
{
horizontal = 1;
options = 4;
place = (503,-74);
type = TTStem;
},
{
horizontal = 1;
options = 4;
type = TTSnap;
},
{
horizontal = 1;
place = (0,21);
target = up;
type = BottomGhost;
},
{
horizontal = 1;
place = (503,-74);
type = Stem;
},
{
horizontal = 1;
place = (490,-20);
target = down;
type = TopGhost;
},
{
place = (72,80);
type = Stem;
},
{
place = (411,80);
type = Stem;
},
{
horizontal = 1;
options = 4;
place = (0,0);
type = TTShift;
}
);
layerId = "610C2E7D-EDB4-4EC2-BEB5-F0DB9FB0A101";
shapes = (
{
closed = 1;
nodes = (
(152,0,l),
(152,296,ls),
(152,378,o),
(207,429,o),
(294,429,cs),
(366,429,o),
(412,378,o),
(412,296,cs),
(412,-220,l),
(492,-220,l),
(492,314,ls),
(492,431,o),
(416,503,o),
(306,503,cs),
(225,503,o),
(181,463,o),
(154,416,c),
(148,416,l),
(148,490,l),
(72,490,l),
(72,0,l)
);
}
);
width = 559;
},
{
hints = (
{
horizontal = 1;
options = 4;
origin = (0,20);
target = (0,8);
type = TTShift;
},
{
horizontal = 1;
origin = (0,20);
target = up;
type = BottomGhost;
},
{
horizontal = 1;
origin = (0,13);
target = (0,4);
type = Stem;
},
{
origin = (0,8);
target = (0,10);
type = Stem;
},
{
horizontal = 1;
origin = (0,19);
target = down;
type = TopGhost;
},
{
origin = (0,20);
target = (0,0);
type = Stem;
}
);
layerId = m006;
shapes = (
{
closed = 1;
nodes = (
(205,0,l),
(205,290,ls),
(205,357,o),
(243,399,o),
(303,399,cs),
(366,399,o),
(405,357,o),
(405,290,cs),
(405,-220,l),
(540,-220,l),
(540,323,ls),
(540,434,o),
(454,517,o),
(357,517,cs),
(281,517,o),
(230,477,o),
(207,440,c),
(201,440,l),
(201,505,l),
(70,505,l),
(70,0,l)
);
}
);
width = 605;
}
);
},
{
glyphname = t.ss10;
kernLeft = f;
kernRight = t.ss10;
lastChange = "2025-10-27 04:20:23 +0000";
layers = (
{
anchors = (
{
name = bar;
pos = (197,293);
},
{
name = bottom;
pos = (196,0);
},
{
name = center;
pos = (198,276);
},
{
name = top;
pos = (196,610);
},
{
name = topright;
pos = (315,740);
}
);
background = {
shapes = (
{
closed = 1;
nodes = (
(358,-13,o),
(378,-10,o),
(407,-4,c),
(407,110,l),
(389,105,o),
(365,102,o),
(337,102,cs),
(300,102,o),
(263,123,o),
(263,174,cs),
(263,644,l),
(128,630,l),
(128,163,ls),
(128,57,o),
(206,-13,o),
(316,-13,cs)
);
},
{
closed = 1;
nodes = (
(407,385,l),
(407,505,l),
(35,505,l),
(35,385,l)
);
},
{
closed = 1;
nodes = (
(263,0,l),
(263,610,l),
(183,610,l),
(183,0,l)
);
},
{
closed = 1;
nodes = (
(384,418,l),
(384,490,l),
(79,490,l),
(79,418,l)
);
}
);
};
hints = (
{
horizontal = 1;
origin = (0,3);
target = up;
type = BottomGhost;
},
{
horizontal = 1;
origin = (1,2);
target = (1,3);
type = Stem;
},
{
origin = (0,3);
target = (0,1);
type = Stem;
}
);
layerId = m006;
shapes = (
{
closed = 1;
nodes = (
(263,0,l),
(263,610,l),
(128,610,l),
(128,0,l)
);
},
{
closed = 1;
nodes = (
(373,385,l),
(373,505,l),
(20,505,l),
(20,385,l)
);
}
);
width = 393;
},
{
anchors = (
{
name = bar;
pos = (171,331);
},
{
name = bottom;
pos = (161,0);
},
{
name = center;
pos = (161,276);
},
{
name = top;
pos = (161,610);
},
{
name = topright;
pos = (263,740);
}
);
hints = (
{
horizontal = 1;
origin = (0,3);
target = up;
type = BottomGhost;
},
{
horizontal = 1;
origin = (1,2);
target = (1,3);
type = Stem;
},
{
origin = (0,3);
target = (0,1);
type = Stem;
}
);
layerId = "610C2E7D-EDB4-4EC2-BEB5-F0DB9FB0A101";
shapes = (
{
closed = 1;
nodes = (
(201,0,l),
(201,610,l),
(121,610,l),
(121,0,l)
);
},
{
closed = 1;
nodes = (
(322,418,l),
(322,490,l),
(17,490,l),
(17,418,l)
);
}
);
width = 339;
}
);
},
{
glyphname = tbar.ss10;
kernLeft = f;
kernRight = t.ss10;
lastChange = "2025-10-14 15:38:36 +0000";
layers = (
{
layerId = "610C2E7D-EDB4-4EC2-BEB5-F0DB9FB0A101";
shapes = (
{
ref = t.ss10;
},
{
pos = (171,-20);
ref = strokeshortcomb;
}
);
width = 339;
},
{
background = {
shapes = (
{
closed = 1;
nodes = (
(333,-13,o),
(353,-10,o),
(382,-4,c),
(382,110,l),
(364,105,o),
(340,102,o),
(312,102,cs),
(275,102,o),
(238,123,o),
(238,174,cs),
(238,644,l),
(103,630,l),
(103,163,ls),
(103,57,o),
(181,-13,o),
(291,-13,cs)
);
},
{
closed = 1;
nodes = (
(382,385,l),
(382,505,l),
(10,505,l),
(10,385,l)
);
}
);
};
layerId = m006;
shapes = (
{
ref = t.ss10;
},
{
pos = (197,-58);
ref = strokeshortcomb;
}
);
width = 393;
}
);
},
{
glyphname = u.ss10;
kernLeft = u;
kernRight = u.ss10;
lastChange = "2025-10-14 15:38:43 +0000";
layers = (
{
anchors = (
{
name = bottom;
pos = (302,0);
},
{
name = ogonek;
pos = (297,0);
},
{
name = top;
pos = (304,505);
},
{
name = topright;
pos = (532,505);
}
);
hints = (
{
horizontal = 1;
origin = (0,17);
target = (0,8);
type = Stem;
},
{
horizontal = 1;
origin = (0,13);
target = down;
type = TopGhost;
},
{
origin = (0,12);
target = (0,14);
type = Stem;
},
{
origin = (0,3);
target = (0,5);
type = Stem;
}
);
layerId = m006;
shapes = (
{
closed = 1;
nodes = (
(455,-12,o),
(535,71,o),
(535,202,cs),
(535,505,l),
(400,505,l),
(400,235,ls),
(400,145,o),
(373,106,o),
(304,106,cs),
(238,106,o),
(200,145,o),
(200,235,cs),
(200,505,l),
(65,505,l),
(65,202,ls),
(65,71,o),
(151,-12,o),
(302,-12,cs)
);
}
);
width = 600;
},
{
anchors = (
{
name = bottom;
pos = (271,0);
},
{
name = ogonek;
pos = (271,0);
},
{
name = top;
pos = (272,490);
},
{
name = topright;
pos = (474,490);
}
);
background = {
anchors = (
{
name = bottom;
pos = (262,0);
},
{
name = ogonek;
pos = (400,0);
},
{
name = top;
pos = (272,490);
},
{
name = topright;
pos = (478,490);
}
);
hints = (
{
horizontal = 1;
options = 4;
place = (490,0);
type = TTShift;
},
{
horizontal = 1;
origin = (0,20);
target = (0,11);
type = Stem;
},
{
horizontal = 1;
origin = (0,6);
target = down;
type = TopGhost;
},
{
horizontal = 1;
origin = (0,5);
target = up;
type = BottomGhost;
},
{
origin = (0,15);
target = (0,17);
type = Stem;
},
{
origin = (0,8);
target = (0,6);
type = Stem;
}
);
shapes = (
{
closed = 1;
nodes = (
(324,-13,o),
(369,27,o),
(396,74,c),
(402,74,l),
(402,0,l),
(478,0,l),
(478,490,l),
(398,490,l),
(398,194,ls),
(398,112,o),
(342,61,o),
(260,61,cs),
(193,61,o),
(147,112,o),
(147,194,cs),
(147,490,l),
(67,490,l),
(67,176,ls),
(67,59,o),
(144,-13,o),
(248,-13,cs)
);
}
);
};
hints = (
{
horizontal = 1;
origin = (0,17);
target = (0,8);
type = Stem;
},
{
horizontal = 1;
origin = (0,13);
target = down;
type = TopGhost;
},
{
origin = (0,12);
target = (0,14);
type = Stem;
},
{
origin = (0,3);
target = (0,5);
type = Stem;
}
);
layerId = "610C2E7D-EDB4-4EC2-BEB5-F0DB9FB0A101";
shapes = (
{
closed = 1;
nodes = (
(396,-12,o),
(474,65,o),
(474,205,cs),
(474,490,l),
(395,490,l),
(395,205,ls),
(395,110,o),
(352,61,o),
(271,61,cs),
(190,61,o),
(147,110,o),
(147,205,cs),
(147,490,l),
(67,490,l),
(67,205,ls),
(67,65,o),
(146,-12,o),
(271,-12,cs)
);
}
);
width = 541;
}
);
metricLeft = "=|n";
metricRight = n;
},
{
export = 0;
glyphname = germandbls.ss10;
kernLeft = f;
kernRight = B;
lastChange = "2025-10-27 04:26:19 +0000";
layers = (
{
layerId = "610C2E7D-EDB4-4EC2-BEB5-F0DB9FB0A101";
shapes = (
{
closed = 1;
nodes = (
(162,418,l),
(162,490,l),
(17,490,l),
(17,418,l)
);
},
{
pos = (44,0);
ref = germandbls;
}
);
width = 656;
},
{
background = {
shapes = (
{
closed = 1;
nodes = (
(248,0,l),
(248,547,ls),
(248,607,o),
(283,642,o),
(347,642,cs),
(410,642,o),
(441,608,o),
(441,554,c),
(576,554,l),
(576,668,o),
(483,753,o),
(347,753,cs),
(210,753,o),
(113,668,o),
(113,554,cs),
(113,0,l)
);
},
{
closed = 1;
nodes = (
(387,385,l),
(387,505,l),
(20,505,l),
(20,385,l)
);
}
);
};
layerId = m006;
shapes = (
{
closed = 1;
nodes = (
(172,385,l),
(172,505,l),
(20,505,l),
(20,385,l)
);
},
{
pos = (51,0);
ref = germandbls;
}
);
width = 693;
}
);
metricLeft = f;
metricRight = B;
},
{
glyphname = f_f_i;
kernLeft = f;
kernRight = i;
lastChange = "2025-10-23 15:12:10 +0000";
layers = (
{
anchors = (
{
name = caret_1;
pos = (369,0);
},
{
name = caret_2;
pos = (685,0);
}
);
background = {
shapes = (
{
ref = f_f_i.ss11;
}
);
};
layerId = "610C2E7D-EDB4-4EC2-BEB5-F0DB9FB0A101";
shapes = (
{
ref = f;
},
{
alignment = -1;
pos = (316,0);
ref = f;
},
{
alignment = -1;
pos = (675,0);
ref = i;
},
{
closed = 1;
nodes = (
(817,418,l),
(827,490,l),
(17,490,l),
(17,418,l)
);
}
);
width = 898;
},
{
anchors = (
{
name = caret_1;
pos = (392,0);
},
{
name = caret_2;
pos = (720,0);
}
);
background = {
shapes = (
{
closed = 1;
nodes = (
(248,0,l),
(248,547,ls),
(248,598,o),
(286,630,o),
(347,630,cs),
(405,630,o),
(441,601,o),
(441,554,cs),
(441,0,l),
(576,0,l),
(576,547,ls),
(576,598,o),
(614,630,o),
(675,630,cs),
(733,630,o),
(769,601,o),
(769,554,c),
(904,554,l),
(904,668,o),
(811,753,o),
(675,753,cs),
(614,753,o),
(547,725,o),
(513,675,c),
(507,675,l),
(473,726,o),
(407,753,o),
(347,753,cs),
(210,753,o),
(113,668,o),
(113,554,cs),
(113,0,l)
);
},
{
closed = 1;
nodes = (
(715,385,l),
(715,505,l),
(20,505,l),
(20,385,l)
);
},
{
alignment = -1;
pos = (699,0);
ref = idotless;
}
);
};
layerId = m006;
shapes = (
{
ref = f;
},
{
alignment = -1;
pos = (328,0);
ref = f;
},
{
alignment = -1;
pos = (699,0);
ref = i;
},
{
closed = 1;
nodes = (
(894,385,l),
(904,505,l),
(509,505,l),
(509,385,l)
);
}
);
width = 975;
}
);
metricLeft = f;
metricRight = i;
},
{
glyphname = f_f_l;
kernLeft = f;
kernRight = l;
lastChange = "2025-10-20 14:25:30 +0000";
layers = (
{
anchors = (
{
name = caret_1;
pos = (369,0);
},
{
name = caret_2;
pos = (685,0);
}
);
background = {
shapes = (
{
ref = f_f_l.ss11;
}
);
};
layerId = "610C2E7D-EDB4-4EC2-BEB5-F0DB9FB0A101";
shapes = (
{
ref = f;
},
{
alignment = -1;
pos = (316,0);
ref = f;
},
{
alignment = -1;
pos = (676,0);
ref = l;
},
{
closed = 1;
nodes = (
(818,418,l),
(828,490,l),
(17,490,l),
(17,418,l)
);
}
);
width = 900;
},
{
anchors = (
{
name = caret_1;
pos = (392,0);
},
{
name = caret_2;
pos = (720,0);
}
);
background = {
shapes = (
{
closed = 1;
nodes = (
(248,0,l),
(248,547,ls),
(248,598,o),
(286,630,o),
(347,630,cs),
(405,630,o),
(441,601,o),
(441,554,cs),
(441,0,l),
(576,0,l),
(576,547,ls),
(576,598,o),
(614,630,o),
(675,630,cs),
(733,630,o),
(769,601,o),
(769,554,cs),
(769,0,l),
(904,0,l),
(904,554,ls),
(904,668,o),
(811,753,o),
(675,753,cs),
(614,753,o),
(547,725,o),
(513,675,c),
(507,675,l),
(473,726,o),
(407,753,o),
(347,753,cs),
(210,753,o),
(113,668,o),
(113,554,cs),
(113,0,l)
);
},
{
closed = 1;
nodes = (
(715,385,l),
(715,505,l),
(20,505,l),
(20,385,l)
);
}
);
};
layerId = m006;
shapes = (
{
ref = f;
},
{
alignment = -1;
pos = (328,0);
ref = f;
},
{
alignment = -1;
pos = (699,0);
ref = l;
},
{
closed = 1;
nodes = (
(894,385,l),
(904,505,l),
(509,505,l),
(509,385,l)
);
}
);
width = 974;
}
);
metricLeft = f;
metricRight = l;
},
{
glyphname = fi;
kernLeft = f;
kernRight = i;
lastChange = "2025-10-20 14:28:17 +0000";
layers = (
{
anchors = (
{
name = caret_1;
pos = (392,0);
}
);
hints = (
{
horizontal = 1;
origin = (2,2);
target = (2,3);
type = Stem;
}
);
layerId = "610C2E7D-EDB4-4EC2-BEB5-F0DB9FB0A101";
shapes = (
{
ref = f;
},
{
pos = (365,0);
ref = i;
},
{
closed = 1;
nodes = (
(507,418,l),
(517,490,l),
(17,490,l),
(17,418,l)
);
}
);
width = 588;
},
{
anchors = (
{
name = caret_1;
pos = (392,0);
}
);
background = {
shapes = (
{
alignment = -1;
pos = (434,0);
ref = i;
}
);
};
hints = (
{
horizontal = 1;
origin = (2,2);
target = (2,3);
type = Stem;
}
);
layerId = m006;
shapes = (
{
ref = f;
},
{
alignment = -1;
pos = (366,0);
ref = i;
},
{
closed = 1;
nodes = (
(561,385,l),
(571,505,l),
(21,505,l),
(21,385,l)
);
}
);
width = 642;
}
);
metricLeft = f;
metricRight = i;
unicode = 64257;
},
{
glyphname = fl;
kernLeft = f;
kernRight = l;
lastChange = "2025-10-20 14:28:15 +0000";
layers = (
{
anchors = (
{
name = caret_1;
pos = (392,0);
}
);
background = {
shapes = (
{
alignment = -1;
pos = (434,0);
ref = l;
}
);
};
hints = (
{
horizontal = 1;
origin = (2,2);
target = (2,3);
type = Stem;
}
);
layerId = m006;
shapes = (
{
ref = f;
},
{
alignment = -1;
pos = (360,0);
ref = l;
},
{
closed = 1;
nodes = (
(555,385,l),
(565,505,l),
(21,505,l),
(21,385,l)
);
}
);
width = 635;
},
{
anchors = (
{
name = caret_1;
pos = (392,0);
}
);
hints = (
{
horizontal = 1;
origin = (2,2);
target = (2,3);
type = Stem;
}
);
layerId = "610C2E7D-EDB4-4EC2-BEB5-F0DB9FB0A101";
shapes = (
{
ref = f;
},
{
alignment = -1;
pos = (369,0);
ref = l;
},
{
closed = 1;
nodes = (
(511,418,l),
(521,490,l),
(17,490,l),
(17,418,l)
);
}
);
width = 593;
},
{
associatedMasterId = "610C2E7D-EDB4-4EC2-BEB5-F0DB9FB0A101";
hints = (
{
horizontal = 1;
origin = (2,2);
target = (2,3);
type = Stem;
}
);
layerId = "C1E40B84-4810-4F7A-9406-2AC731F9CA1D";
name = "Jul 24, 25 at 13:14";
shapes = (
{
ref = f;
},
{
alignment = -1;
pos = (389,0);
ref = l;
},
{
closed = 1;
nodes = (
(537,425,l),
(537,490,l),
(33,490,l),
(33,425,l)
);
}
);
width = 605;
}
);
metricLeft = f;
metricRight = l;
unicode = 64258;
},
